{"glyphs":{"0":{"ha":790,"x_min":54,"x_max":736,"o":"m 394 -8 q 260 9 322 -8 q 153 66 199 26 q 81 167 107 106 q 54 319 54 229 l 54 688 q 81 839 54 776 q 153 941 107 901 q 260 998 199 981 q 394 1015 322 1015 q 529 998 467 1015 q 638 941 592 981 q 710 839 683 901 q 736 688 736 776 l 736 319 q 710 167 736 229 q 638 66 683 106 q 529 9 592 26 q 394 -8 467 -8 m 519 688 q 486 793 519 760 q 394 826 453 826 q 303 793 336 826 q 271 688 271 760 l 271 319 q 303 214 271 247 q 394 181 336 181 q 486 214 453 181 q 519 319 519 247 l 519 688 m 396 572 q 447 553 428 572 q 465 503 465 535 q 447 451 465 471 q 396 432 428 432 q 344 451 363 432 q 325 503 325 471 q 344 553 325 535 q 396 572 363 572 z "},"1":{"ha":428,"x_min":-3,"x_max":357,"o":"m 140 774 l 100 749 q 65 738 83 738 q 16 765 35 738 q -3 824 -3 792 q 7 865 -3 846 q 38 897 17 885 l 221 1008 q 261 1018 236 1018 q 326 1000 294 1018 q 357 950 357 982 l 357 67 q 323 17 357 33 q 249 0 289 0 q 174 17 208 0 q 140 67 140 33 l 140 774 z "},"2":{"ha":718,"x_min":32,"x_max":686,"o":"m 49 749 q 76 862 49 813 q 147 945 103 911 q 247 997 190 979 q 363 1015 303 1015 q 481 997 422 1015 q 585 941 539 978 q 658 851 631 904 q 686 728 686 797 q 654 593 686 653 q 575 485 622 533 q 472 399 528 438 q 368 327 415 361 q 289 263 321 293 q 257 201 257 233 l 257 189 l 621 189 q 667 161 647 189 q 686 96 686 133 q 667 29 686 58 q 621 0 647 0 l 126 0 q 95 5 111 0 q 65 18 79 10 q 41 39 50 26 q 32 67 32 51 l 32 201 q 65 303 32 256 q 146 394 97 351 q 251 476 194 436 q 356 556 307 517 q 437 636 404 596 q 469 721 469 676 q 464 755 469 738 q 446 787 458 772 q 413 810 433 801 q 364 819 393 819 q 291 797 322 819 q 260 715 260 774 q 229 660 260 685 q 146 636 199 636 q 76 660 104 636 q 49 749 49 683 z "},"3":{"ha":742,"x_min":22,"x_max":704,"o":"m 360 181 q 459 209 431 181 q 488 306 488 238 l 488 332 q 477 388 488 367 q 449 422 467 410 q 408 439 432 435 q 354 443 383 443 q 305 469 318 443 q 292 526 292 494 q 305 584 292 558 q 354 610 318 610 q 393 613 374 610 q 428 627 413 615 q 453 663 443 639 q 463 729 463 688 q 433 809 463 789 q 360 829 403 829 q 283 814 308 829 q 257 758 257 799 q 237 701 257 722 q 156 679 217 679 q 96 683 118 679 q 62 698 74 688 q 47 725 50 708 q 43 767 43 742 q 59 851 43 807 q 112 931 75 894 q 209 992 149 968 q 360 1015 269 1015 q 483 1002 426 1015 q 581 960 539 989 q 646 883 622 931 q 669 764 669 835 q 663 690 669 726 q 642 624 656 654 q 608 571 628 593 q 563 536 589 549 q 665 465 625 513 q 704 332 704 417 l 704 306 q 676 160 704 219 q 601 63 649 100 q 490 8 554 25 q 353 -8 425 -8 q 200 16 263 -8 q 98 79 138 40 q 40 164 58 118 q 22 254 22 210 q 44 317 22 301 q 125 333 67 333 q 214 317 192 333 q 236 261 236 301 q 247 221 236 236 q 274 197 257 206 q 314 184 292 188 q 360 181 336 181 z "},"4":{"ha":729,"x_min":-7,"x_max":733,"o":"m 390 214 l 65 214 q 14 233 35 214 q -7 289 -7 253 q -5 308 -7 297 q 4 331 -3 319 l 325 960 q 365 1003 340 990 q 415 1015 389 1015 q 448 1010 429 1015 q 483 993 467 1004 q 512 967 500 982 q 524 933 524 951 q 517 907 524 924 l 271 414 l 390 414 l 390 511 q 424 561 390 546 q 499 576 458 576 q 573 561 539 576 q 607 511 607 546 l 607 414 l 667 414 q 717 383 700 414 q 733 314 733 351 q 713 245 733 276 q 667 214 692 214 l 607 214 l 607 67 q 573 17 607 33 q 499 0 539 0 q 424 17 458 0 q 390 67 390 33 l 390 214 z "},"5":{"ha":724,"x_min":18,"x_max":699,"o":"m 358 640 q 492 624 431 640 q 600 572 554 608 q 672 478 646 536 q 699 338 699 421 l 699 311 q 672 163 699 224 q 600 65 646 103 q 492 9 554 26 q 361 -8 431 -8 q 213 14 278 -8 q 106 72 149 36 q 40 155 63 108 q 18 250 18 201 q 47 326 18 307 q 126 346 75 346 q 183 340 161 346 q 216 322 204 333 q 231 297 228 311 q 235 265 235 282 q 269 202 235 224 q 356 181 304 181 q 449 212 415 181 q 482 311 482 243 l 482 338 q 449 440 482 407 q 358 474 417 474 l 147 474 q 81 496 99 474 q 64 558 64 518 q 65 578 64 569 q 67 599 65 588 l 104 949 q 116 998 107 981 q 143 1015 125 1015 l 586 1015 q 633 986 618 1015 q 649 921 649 957 q 633 856 649 885 q 586 826 618 826 l 282 826 l 268 640 l 358 640 z "},"6":{"ha":781,"x_min":54,"x_max":736,"o":"m 444 624 q 557 609 504 624 q 649 561 610 594 q 713 472 689 528 q 736 332 736 415 l 736 319 q 710 167 736 229 q 638 66 683 106 q 530 9 592 26 q 396 -8 468 -8 q 261 9 324 -8 q 153 66 199 26 q 81 167 107 106 q 54 319 54 229 l 54 688 q 81 839 54 776 q 156 941 108 901 q 269 998 204 981 q 408 1015 333 1015 q 558 991 496 1015 q 660 928 621 967 q 718 844 700 890 q 736 754 736 797 q 712 685 736 704 q 635 667 688 667 q 592 670 613 667 q 556 683 572 674 q 531 707 540 692 q 522 746 522 722 q 486 806 522 786 q 401 826 450 826 q 305 793 339 826 q 271 688 271 760 l 271 563 q 349 611 304 599 q 444 624 394 624 m 271 304 q 304 199 271 232 q 396 167 338 167 q 487 199 454 167 q 519 304 519 232 l 519 317 q 487 425 519 393 q 394 457 454 457 q 304 428 338 457 q 271 329 271 399 l 271 304 z "},"7":{"ha":711,"x_min":17,"x_max":699,"o":"m 699 775 q 685 711 699 747 q 654 643 671 675 l 329 21 q 268 -8 314 -8 q 218 0 243 -8 q 174 23 193 8 q 142 58 154 38 q 131 101 131 78 q 140 138 131 119 l 482 729 l 482 826 l 233 826 l 233 733 q 200 686 233 706 q 124 667 167 667 q 48 686 79 667 q 17 733 17 706 l 17 949 q 46 994 17 974 q 111 1015 75 1015 l 604 1015 q 636 1010 619 1015 q 667 994 653 1004 q 690 973 681 985 q 699 949 699 961 l 699 775 z "},"8":{"ha":757,"x_min":38,"x_max":719,"o":"m 379 1015 q 503 1001 446 1015 q 600 957 560 988 q 663 880 640 926 q 686 768 686 833 q 649 628 686 681 q 549 556 611 576 q 673 466 626 529 q 719 294 719 403 l 719 278 q 693 146 719 200 q 621 57 667 92 q 513 7 575 22 q 379 -8 451 -8 q 244 7 307 -8 q 136 57 182 22 q 64 146 90 92 q 38 278 38 200 l 38 294 q 85 466 38 403 q 210 556 132 529 q 110 628 147 576 q 72 768 72 681 q 95 880 72 833 q 158 957 118 926 q 256 1001 199 988 q 379 1015 313 1015 m 503 335 q 470 435 503 403 q 379 467 438 467 q 288 435 321 467 q 254 335 254 403 l 254 304 q 288 199 254 232 q 379 165 321 165 q 471 199 439 165 q 503 304 503 233 l 503 335 m 379 842 q 306 817 332 842 q 281 740 281 793 q 306 663 281 686 q 379 640 332 640 q 452 663 426 640 q 478 740 478 686 q 452 817 478 793 q 379 842 426 842 z "},"9":{"ha":782,"x_min":46,"x_max":728,"o":"m 338 383 q 225 398 278 383 q 133 446 172 413 q 69 535 93 479 q 46 675 46 592 l 46 688 q 72 839 46 776 q 144 941 99 901 q 252 998 190 981 q 386 1015 314 1015 q 521 998 458 1015 q 629 941 583 981 q 701 839 675 901 q 728 688 728 776 l 728 319 q 701 167 728 229 q 626 66 674 106 q 513 9 578 26 q 374 -8 449 -8 q 224 16 286 -8 q 122 78 161 40 q 64 163 82 117 q 46 253 46 210 q 70 322 46 303 q 147 340 94 340 q 190 337 169 340 q 226 324 210 333 q 251 300 242 315 q 260 261 260 285 q 296 201 260 221 q 381 181 332 181 q 477 214 443 181 q 511 319 511 247 l 511 444 q 433 396 478 408 q 338 383 388 383 m 511 703 q 478 808 511 775 q 386 840 444 840 q 295 808 328 840 q 263 703 263 775 l 263 690 q 295 582 263 614 q 388 550 328 550 q 478 579 444 550 q 511 678 511 608 l 511 703 z "},"A":{"ha":818,"x_min":6,"x_max":813,"o":"m 144 0 q 98 7 122 0 q 53 26 74 14 q 19 53 32 38 q 6 89 6 69 q 8 104 6 93 l 267 951 q 319 1006 278 988 q 408 1024 360 1024 q 498 1006 457 1024 q 550 951 539 988 l 810 104 q 813 89 813 93 q 799 53 813 69 q 765 26 786 38 q 720 7 744 14 q 674 0 696 0 q 628 9 647 0 q 603 40 610 18 l 556 214 l 263 214 l 215 40 q 190 9 208 18 q 144 0 171 0 m 510 381 l 408 753 l 307 381 l 510 381 z "},"Æ":{"ha":1135,"x_min":71,"x_max":1115,"o":"m 736 592 l 886 592 q 935 566 918 592 q 951 507 951 540 q 936 452 951 479 q 886 425 921 425 l 736 425 l 736 189 l 1050 189 q 1099 160 1082 189 q 1115 93 1115 132 q 1100 30 1115 60 q 1050 0 1085 0 l 614 0 q 549 17 578 0 q 519 67 519 33 l 519 425 l 274 425 l 274 74 q 270 44 274 58 q 256 21 267 31 q 223 6 244 11 q 165 0 201 0 q 92 21 114 0 q 71 74 71 42 l 71 688 q 97 839 71 776 q 166 941 122 901 q 269 998 210 981 q 399 1015 329 1015 l 1050 1015 q 1100 985 1085 1015 q 1115 922 1115 956 q 1099 855 1115 883 q 1050 826 1082 826 l 736 826 l 736 592 m 274 592 l 519 592 l 519 826 l 399 826 q 307 792 340 826 q 274 688 274 758 l 274 592 z "},"Ǽ":{"ha":1135,"x_min":71,"x_max":1115,"o":"m 736 592 l 886 592 q 935 566 918 592 q 951 507 951 540 q 936 452 951 479 q 886 425 921 425 l 736 425 l 736 189 l 1050 189 q 1099 160 1082 189 q 1115 93 1115 132 q 1100 30 1115 60 q 1050 0 1085 0 l 614 0 q 549 17 578 0 q 519 67 519 33 l 519 425 l 274 425 l 274 74 q 270 44 274 58 q 256 21 267 31 q 223 6 244 11 q 165 0 201 0 q 92 21 114 0 q 71 74 71 42 l 71 688 q 97 839 71 776 q 166 941 122 901 q 269 998 210 981 q 399 1015 329 1015 l 1050 1015 q 1100 985 1085 1015 q 1115 922 1115 956 q 1099 855 1115 883 q 1050 826 1082 826 l 736 826 l 736 592 m 274 592 l 519 592 l 519 826 l 399 826 q 307 792 340 826 q 274 688 274 758 l 274 592 m 624 1108 q 603 1103 610 1103 q 557 1129 575 1103 q 539 1183 539 1156 q 567 1232 539 1218 l 761 1322 q 781 1326 771 1326 q 806 1319 794 1326 q 827 1299 818 1311 q 841 1274 836 1288 q 846 1246 846 1260 q 840 1218 846 1231 q 818 1199 833 1206 l 624 1108 z "},"Á":{"ha":818,"x_min":6,"x_max":813,"o":"m 144 0 q 98 7 122 0 q 53 26 74 14 q 19 53 32 38 q 6 89 6 69 q 8 104 6 93 l 267 951 q 319 1006 278 988 q 408 1024 360 1024 q 498 1006 457 1024 q 550 951 539 988 l 810 104 q 813 89 813 93 q 799 53 813 69 q 765 26 786 38 q 720 7 744 14 q 674 0 696 0 q 628 9 647 0 q 603 40 610 18 l 556 214 l 263 214 l 215 40 q 190 9 208 18 q 144 0 171 0 m 510 381 l 408 753 l 307 381 l 510 381 m 392 1114 q 371 1108 378 1108 q 325 1135 343 1108 q 307 1189 307 1161 q 335 1238 307 1224 l 529 1328 q 549 1332 539 1332 q 574 1324 563 1332 q 595 1305 586 1317 q 609 1279 604 1293 q 614 1251 614 1265 q 608 1224 614 1236 q 586 1204 601 1211 l 392 1114 z "},"Ă":{"ha":818,"x_min":6,"x_max":813,"o":"m 144 0 q 98 7 122 0 q 53 26 74 14 q 19 53 32 38 q 6 89 6 69 q 8 104 6 93 l 267 951 q 319 1006 278 988 q 408 1024 360 1024 q 498 1006 457 1024 q 550 951 539 988 l 810 104 q 813 89 813 93 q 799 53 813 69 q 765 26 786 38 q 720 7 744 14 q 674 0 696 0 q 628 9 647 0 q 603 40 610 18 l 556 214 l 263 214 l 215 40 q 190 9 208 18 q 144 0 171 0 m 510 381 l 408 753 l 307 381 l 510 381 m 603 1338 q 587 1264 603 1299 q 544 1203 571 1229 q 482 1160 517 1176 q 410 1144 447 1144 q 337 1160 372 1144 q 274 1203 301 1176 q 231 1264 247 1229 q 215 1338 215 1299 l 326 1338 q 353 1265 326 1293 q 410 1236 379 1236 q 465 1265 439 1236 q 492 1338 492 1293 l 603 1338 z "},"Â":{"ha":818,"x_min":6,"x_max":813,"o":"m 144 0 q 98 7 122 0 q 53 26 74 14 q 19 53 32 38 q 6 89 6 69 q 8 104 6 93 l 267 951 q 319 1006 278 988 q 408 1024 360 1024 q 498 1006 457 1024 q 550 951 539 988 l 810 104 q 813 89 813 93 q 799 53 813 69 q 765 26 786 38 q 720 7 744 14 q 674 0 696 0 q 628 9 647 0 q 603 40 610 18 l 556 214 l 263 214 l 215 40 q 190 9 208 18 q 144 0 171 0 m 510 381 l 408 753 l 307 381 l 510 381 m 264 1126 q 249 1122 256 1122 q 217 1142 229 1122 q 206 1186 206 1163 q 213 1220 206 1204 q 240 1247 221 1236 l 385 1325 q 408 1332 399 1332 q 432 1325 418 1332 l 576 1247 q 603 1220 596 1236 q 611 1186 611 1204 q 599 1142 611 1163 q 568 1122 588 1122 q 553 1126 561 1122 l 408 1204 l 264 1126 z "},"Ä":{"ha":818,"x_min":6,"x_max":813,"o":"m 144 0 q 98 7 122 0 q 53 26 74 14 q 19 53 32 38 q 6 89 6 69 q 8 104 6 93 l 267 951 q 319 1006 278 988 q 408 1024 360 1024 q 498 1006 457 1024 q 550 951 539 988 l 810 104 q 813 89 813 93 q 799 53 813 69 q 765 26 786 38 q 720 7 744 14 q 674 0 696 0 q 628 9 647 0 q 603 40 610 18 l 556 214 l 263 214 l 215 40 q 190 9 208 18 q 144 0 171 0 m 510 381 l 408 753 l 307 381 l 510 381 m 300 1288 q 355 1263 332 1288 q 378 1207 378 1239 q 355 1150 378 1175 q 300 1125 332 1125 q 244 1150 268 1125 q 221 1207 221 1175 q 244 1263 221 1239 q 300 1288 268 1288 m 522 1288 q 577 1263 554 1288 q 600 1207 600 1239 q 577 1150 600 1175 q 522 1125 554 1125 q 467 1150 490 1125 q 443 1207 443 1175 q 467 1263 443 1239 q 522 1288 490 1288 z "},"À":{"ha":818,"x_min":6,"x_max":813,"o":"m 144 0 q 98 7 122 0 q 53 26 74 14 q 19 53 32 38 q 6 89 6 69 q 8 104 6 93 l 267 951 q 319 1006 278 988 q 408 1024 360 1024 q 498 1006 457 1024 q 550 951 539 988 l 810 104 q 813 89 813 93 q 799 53 813 69 q 765 26 786 38 q 720 7 744 14 q 674 0 696 0 q 628 9 647 0 q 603 40 610 18 l 556 214 l 263 214 l 215 40 q 190 9 208 18 q 144 0 171 0 m 510 381 l 408 753 l 307 381 l 510 381 m 258 1204 q 237 1224 243 1211 q 231 1251 231 1236 q 235 1279 231 1265 q 249 1305 240 1293 q 270 1324 258 1317 q 296 1332 282 1332 q 315 1328 304 1332 l 510 1238 q 538 1189 538 1224 q 519 1135 538 1161 q 474 1108 501 1108 q 453 1114 467 1108 l 258 1204 z "},"Ā":{"ha":818,"x_min":6,"x_max":813,"o":"m 144 0 q 98 7 122 0 q 53 26 74 14 q 19 53 32 38 q 6 89 6 69 q 8 104 6 93 l 267 951 q 319 1006 278 988 q 408 1024 360 1024 q 498 1006 457 1024 q 550 951 539 988 l 810 104 q 813 89 813 93 q 799 53 813 69 q 765 26 786 38 q 720 7 744 14 q 674 0 696 0 q 628 9 647 0 q 603 40 610 18 l 556 214 l 263 214 l 215 40 q 190 9 208 18 q 144 0 171 0 m 510 381 l 408 753 l 307 381 l 510 381 m 204 1233 q 222 1283 204 1263 q 269 1303 240 1303 l 547 1303 q 593 1283 572 1303 q 614 1233 614 1263 q 593 1184 614 1203 q 547 1165 572 1165 l 269 1165 q 222 1184 240 1165 q 204 1233 204 1203 z "},"Ą":{"ha":818,"x_min":6,"x_max":813,"o":"m 707 -215 q 734 -231 726 -215 q 742 -262 742 -247 q 734 -290 742 -278 q 699 -303 726 -303 q 566 -263 607 -303 q 525 -168 525 -224 q 551 -73 525 -122 q 622 13 576 -24 q 603 40 607 21 l 556 214 l 263 214 l 215 40 q 190 9 208 18 q 144 0 171 0 q 98 7 122 0 q 53 26 74 14 q 19 53 32 38 q 6 89 6 69 q 8 104 6 93 l 267 951 q 319 1006 278 988 q 408 1024 360 1024 q 498 1006 457 1024 q 550 951 539 988 l 810 104 q 813 89 813 93 q 788 41 813 61 q 732 10 764 21 q 690 -22 708 -3 q 656 -62 671 -40 q 634 -106 642 -83 q 626 -149 626 -128 q 644 -197 626 -178 q 707 -215 663 -215 m 510 381 l 408 753 l 307 381 l 510 381 z "},"Å":{"ha":818,"x_min":6,"x_max":813,"o":"m 144 0 q 98 7 122 0 q 53 26 74 14 q 19 53 32 38 q 6 89 6 69 q 8 104 6 93 l 267 951 q 319 1006 278 988 q 408 1024 360 1024 q 498 1006 457 1024 q 550 951 539 988 l 810 104 q 813 89 813 93 q 799 53 813 69 q 765 26 786 38 q 720 7 744 14 q 674 0 696 0 q 628 9 647 0 q 603 40 610 18 l 556 214 l 263 214 l 215 40 q 190 9 208 18 q 144 0 171 0 m 510 381 l 408 753 l 307 381 l 510 381 m 407 1400 q 460 1388 435 1400 q 506 1357 486 1376 q 536 1313 525 1338 q 547 1260 547 1288 q 535 1206 547 1232 q 504 1160 524 1179 q 460 1128 485 1140 q 407 1117 435 1117 q 354 1128 379 1117 q 310 1160 329 1140 q 281 1206 292 1179 q 269 1260 269 1232 q 280 1312 269 1286 q 309 1357 290 1338 q 353 1388 328 1376 q 407 1400 378 1400 m 463 1258 q 447 1296 463 1279 q 408 1313 432 1313 q 368 1295 385 1313 q 351 1258 351 1278 q 368 1219 351 1238 q 408 1200 385 1200 q 447 1218 432 1200 q 463 1258 463 1236 z "},"Ã":{"ha":818,"x_min":6,"x_max":813,"o":"m 144 0 q 98 7 122 0 q 53 26 74 14 q 19 53 32 38 q 6 89 6 69 q 8 104 6 93 l 267 951 q 319 1006 278 988 q 408 1024 360 1024 q 498 1006 457 1024 q 550 951 539 988 l 810 104 q 813 89 813 93 q 799 53 813 69 q 765 26 786 38 q 720 7 744 14 q 674 0 696 0 q 628 9 647 0 q 603 40 610 18 l 556 214 l 263 214 l 215 40 q 190 9 208 18 q 144 0 171 0 m 510 381 l 408 753 l 307 381 l 510 381 m 335 1174 q 296 1169 313 1174 q 265 1159 279 1164 q 240 1149 251 1154 q 215 1144 228 1144 q 189 1153 199 1144 q 173 1173 179 1161 q 165 1196 167 1185 q 163 1213 163 1207 q 177 1270 163 1250 q 212 1300 192 1290 q 251 1312 232 1310 q 281 1314 271 1314 q 338 1308 313 1314 q 385 1295 363 1303 q 431 1282 408 1288 q 483 1276 454 1276 q 522 1281 506 1276 q 553 1291 539 1286 q 578 1301 567 1296 q 603 1306 590 1306 q 629 1297 619 1306 q 645 1276 639 1288 q 653 1254 651 1265 q 656 1238 656 1243 q 641 1180 656 1200 q 606 1150 626 1160 q 567 1138 586 1140 q 538 1136 547 1136 q 474 1142 500 1136 q 424 1155 447 1147 q 381 1168 401 1163 q 335 1174 360 1174 z "},"B":{"ha":794,"x_min":75,"x_max":757,"o":"m 75 949 q 104 999 75 982 q 169 1015 133 1015 l 454 1015 q 556 1004 506 1015 q 645 965 606 993 q 708 890 685 938 q 732 768 732 842 q 701 628 732 683 q 614 550 669 574 q 672 521 646 538 q 717 478 699 504 q 747 416 736 453 q 757 328 757 379 l 757 299 q 735 160 757 217 q 676 67 714 103 q 588 16 639 32 q 478 0 536 0 l 169 0 q 100 19 125 0 q 75 65 75 39 l 75 949 m 429 189 q 511 219 482 189 q 540 317 540 250 l 540 339 q 511 438 540 410 q 429 467 482 467 l 290 467 l 290 189 l 429 189 m 290 633 l 436 633 q 496 663 476 633 q 515 729 515 693 q 496 796 515 765 q 436 826 476 826 l 290 826 l 290 633 z "},"C":{"ha":781,"x_min":64,"x_max":746,"o":"m 529 701 q 526 736 529 715 q 511 777 524 757 q 474 812 499 797 q 406 826 450 826 q 313 792 346 826 q 281 688 281 758 l 281 319 q 313 215 281 249 q 407 181 346 181 q 472 194 449 181 q 508 229 496 208 q 524 274 521 250 q 529 319 528 299 q 563 372 532 358 q 636 385 594 385 q 719 365 693 385 q 746 282 746 344 q 719 158 746 213 q 646 67 693 104 q 535 11 599 31 q 397 -8 472 -8 q 269 9 329 -8 q 163 66 208 26 q 90 167 117 106 q 64 319 64 229 l 64 688 q 90 839 64 776 q 163 941 117 901 q 269 998 208 981 q 397 1015 329 1015 q 535 997 472 1015 q 646 944 599 979 q 719 857 693 908 q 746 739 746 806 q 719 656 746 676 q 638 636 693 636 q 563 650 593 636 q 529 701 532 664 z "},"\r":{"ha":0,"x_min":0,"x_max":0,"o":""},"Ć":{"ha":781,"x_min":64,"x_max":746,"o":"m 529 701 q 526 736 529 715 q 511 777 524 757 q 474 812 499 797 q 406 826 450 826 q 313 792 346 826 q 281 688 281 758 l 281 319 q 313 215 281 249 q 407 181 346 181 q 472 194 449 181 q 508 229 496 208 q 524 274 521 250 q 529 319 528 299 q 563 372 532 358 q 636 385 594 385 q 719 365 693 385 q 746 282 746 344 q 719 158 746 213 q 646 67 693 104 q 535 11 599 31 q 397 -8 472 -8 q 269 9 329 -8 q 163 66 208 26 q 90 167 117 106 q 64 319 64 229 l 64 688 q 90 839 64 776 q 163 941 117 901 q 269 998 208 981 q 397 1015 329 1015 q 535 997 472 1015 q 646 944 599 979 q 719 857 693 908 q 746 739 746 806 q 719 656 746 676 q 638 636 693 636 q 563 650 593 636 q 529 701 532 664 m 369 1114 q 349 1108 356 1108 q 303 1135 321 1108 q 285 1189 285 1161 q 313 1238 285 1224 l 507 1328 q 526 1332 517 1332 q 552 1324 540 1332 q 573 1305 564 1317 q 587 1279 582 1293 q 592 1251 592 1265 q 585 1224 592 1236 q 564 1204 579 1211 l 369 1114 z "},"Č":{"ha":781,"x_min":64,"x_max":746,"o":"m 529 701 q 526 736 529 715 q 511 777 524 757 q 474 812 499 797 q 406 826 450 826 q 313 792 346 826 q 281 688 281 758 l 281 319 q 313 215 281 249 q 407 181 346 181 q 472 194 449 181 q 508 229 496 208 q 524 274 521 250 q 529 319 528 299 q 563 372 532 358 q 636 385 594 385 q 719 365 693 385 q 746 282 746 344 q 719 158 746 213 q 646 67 693 104 q 535 11 599 31 q 397 -8 472 -8 q 269 9 329 -8 q 163 66 208 26 q 90 167 117 106 q 64 319 64 229 l 64 688 q 90 839 64 776 q 163 941 117 901 q 269 998 208 981 q 397 1015 329 1015 q 535 997 472 1015 q 646 944 599 979 q 719 857 693 908 q 746 739 746 806 q 719 656 746 676 q 638 636 693 636 q 563 650 593 636 q 529 701 532 664 m 403 1267 l 547 1344 q 563 1349 556 1349 q 594 1328 582 1349 q 606 1285 606 1308 q 598 1251 606 1267 q 571 1224 590 1235 l 426 1146 q 403 1139 413 1139 q 379 1146 393 1139 l 235 1224 q 208 1251 215 1235 q 200 1285 200 1267 q 212 1328 200 1308 q 243 1349 224 1349 q 258 1344 250 1349 l 403 1267 z "},"Ç":{"ha":781,"x_min":64,"x_max":746,"o":"m 529 701 q 526 736 529 715 q 511 777 524 757 q 474 812 499 797 q 406 826 450 826 q 313 792 346 826 q 281 688 281 758 l 281 319 q 313 215 281 249 q 407 181 346 181 q 472 194 449 181 q 508 229 496 208 q 524 274 521 250 q 529 319 528 299 q 563 372 532 358 q 636 385 594 385 q 719 365 693 385 q 746 282 746 344 q 724 167 746 218 q 662 81 701 117 q 567 22 622 44 q 447 -6 513 0 l 428 -65 q 533 -99 499 -68 q 567 -175 567 -131 q 560 -215 567 -193 q 535 -258 553 -237 q 488 -291 518 -278 q 413 -304 458 -304 q 372 -301 393 -304 q 332 -294 350 -299 q 302 -281 314 -289 q 290 -261 290 -272 q 292 -247 290 -257 q 299 -228 294 -237 q 310 -210 303 -218 q 326 -203 317 -203 q 356 -212 339 -203 q 407 -222 374 -222 q 453 -212 435 -222 q 471 -179 471 -201 q 457 -148 471 -161 q 411 -132 443 -135 l 325 -124 l 360 -7 q 244 17 297 -3 q 150 77 190 38 q 87 176 110 117 q 64 319 64 236 l 64 688 q 90 839 64 776 q 163 941 117 901 q 269 998 208 981 q 397 1015 329 1015 q 535 997 472 1015 q 646 944 599 979 q 719 857 693 908 q 746 739 746 806 q 719 656 746 676 q 638 636 693 636 q 563 650 593 636 q 529 701 532 664 z "},"Ĉ":{"ha":781,"x_min":64,"x_max":746,"o":"m 529 701 q 526 736 529 715 q 511 777 524 757 q 474 812 499 797 q 406 826 450 826 q 313 792 346 826 q 281 688 281 758 l 281 319 q 313 215 281 249 q 407 181 346 181 q 472 194 449 181 q 508 229 496 208 q 524 274 521 250 q 529 319 528 299 q 563 372 532 358 q 636 385 594 385 q 719 365 693 385 q 746 282 746 344 q 719 158 746 213 q 646 67 693 104 q 535 11 599 31 q 397 -8 472 -8 q 269 9 329 -8 q 163 66 208 26 q 90 167 117 106 q 64 319 64 229 l 64 688 q 90 839 64 776 q 163 941 117 901 q 269 998 208 981 q 397 1015 329 1015 q 535 997 472 1015 q 646 944 599 979 q 719 857 693 908 q 746 739 746 806 q 719 656 746 676 q 638 636 693 636 q 563 650 593 636 q 529 701 532 664 m 260 1126 q 244 1122 251 1122 q 213 1142 225 1122 q 201 1186 201 1163 q 209 1220 201 1204 q 236 1247 217 1236 l 381 1325 q 404 1332 394 1332 q 428 1325 414 1332 l 572 1247 q 599 1220 592 1236 q 607 1186 607 1204 q 595 1142 607 1163 q 564 1122 583 1122 q 549 1126 557 1122 l 404 1204 l 260 1126 z "},"Ċ":{"ha":781,"x_min":64,"x_max":746,"o":"m 529 701 q 526 736 529 715 q 511 777 524 757 q 474 812 499 797 q 406 826 450 826 q 313 792 346 826 q 281 688 281 758 l 281 319 q 313 215 281 249 q 407 181 346 181 q 472 194 449 181 q 508 229 496 208 q 524 274 521 250 q 529 319 528 299 q 563 372 532 358 q 636 385 594 385 q 719 365 693 385 q 746 282 746 344 q 719 158 746 213 q 646 67 693 104 q 535 11 599 31 q 397 -8 472 -8 q 269 9 329 -8 q 163 66 208 26 q 90 167 117 106 q 64 319 64 229 l 64 688 q 90 839 64 776 q 163 941 117 901 q 269 998 208 981 q 397 1015 329 1015 q 535 997 472 1015 q 646 944 599 979 q 719 857 693 908 q 746 739 746 806 q 719 656 746 676 q 638 636 693 636 q 563 650 593 636 q 529 701 532 664 m 407 1288 q 462 1263 439 1288 q 485 1207 485 1239 q 462 1150 485 1175 q 407 1125 439 1125 q 351 1150 375 1125 q 328 1207 328 1175 q 351 1263 328 1239 q 407 1288 375 1288 z "},"D":{"ha":819,"x_min":75,"x_max":757,"o":"m 415 1015 q 550 998 488 1015 q 658 941 613 981 q 731 839 704 901 q 757 688 757 776 l 757 328 q 731 176 757 238 q 658 74 704 114 q 550 17 613 35 q 415 0 488 0 l 169 0 q 101 19 126 0 q 75 65 75 39 l 75 950 q 101 996 75 976 q 169 1015 126 1015 l 415 1015 m 292 826 l 292 189 l 415 189 q 507 223 474 189 q 540 328 540 257 l 540 688 q 507 792 540 758 q 415 826 474 826 l 292 826 z "},"Ď":{"ha":819,"x_min":75,"x_max":757,"o":"m 415 1015 q 550 998 488 1015 q 658 941 613 981 q 731 839 704 901 q 757 688 757 776 l 757 328 q 731 176 757 238 q 658 74 704 114 q 550 17 613 35 q 415 0 488 0 l 169 0 q 101 19 126 0 q 75 65 75 39 l 75 950 q 101 996 75 976 q 169 1015 126 1015 l 415 1015 m 292 826 l 292 189 l 415 189 q 507 223 474 189 q 540 328 540 257 l 540 688 q 507 792 540 758 q 415 826 474 826 l 292 826 m 381 1267 l 525 1344 q 540 1349 533 1349 q 572 1328 560 1349 q 583 1285 583 1308 q 576 1251 583 1267 q 549 1224 568 1235 l 404 1146 q 381 1139 390 1139 q 357 1146 371 1139 l 213 1224 q 185 1251 193 1235 q 178 1285 178 1267 q 190 1328 178 1308 q 221 1349 201 1349 q 236 1344 228 1349 l 381 1267 z "},"Đ":{"ha":828,"x_min":-14,"x_max":765,"o":"m 424 1015 q 558 998 496 1015 q 667 941 621 981 q 739 839 713 901 q 765 688 765 776 l 765 328 q 739 176 765 238 q 667 74 713 114 q 558 17 621 35 q 424 0 496 0 l 178 0 q 109 19 135 0 q 83 65 83 39 l 83 454 l 39 454 q -1 478 13 454 q -14 531 -14 501 q -1 583 -14 558 q 39 607 13 607 l 83 607 l 83 950 q 109 996 83 976 q 178 1015 135 1015 l 424 1015 m 300 826 l 300 607 l 386 607 q 426 583 413 607 q 439 531 439 558 q 426 477 439 500 q 386 454 413 454 l 300 454 l 300 189 l 424 189 q 515 223 482 189 q 549 328 549 257 l 549 688 q 515 792 549 758 q 424 826 482 826 l 300 826 z "},"∆":{"ha":864,"x_min":28,"x_max":836,"o":"m 828 122 q 836 74 836 97 q 815 20 836 40 q 744 0 794 0 l 119 0 q 49 20 69 0 q 28 74 28 40 q 36 122 28 97 l 289 943 q 337 1001 300 979 q 432 1024 374 1024 q 527 1001 490 1024 q 575 943 564 979 l 828 122 m 588 189 l 432 767 l 276 189 l 588 189 z "},"E":{"ha":749,"x_min":75,"x_max":729,"o":"m 292 592 l 500 592 q 549 566 532 592 q 565 507 565 540 q 550 452 565 479 q 500 425 535 425 l 292 425 l 292 189 l 664 189 q 713 160 696 189 q 729 93 729 132 q 714 30 729 60 q 664 0 699 0 l 169 0 q 104 17 133 0 q 75 67 75 33 l 75 949 q 104 999 75 982 q 169 1015 133 1015 l 664 1015 q 714 985 699 1015 q 729 922 729 956 q 713 855 729 883 q 664 826 696 826 l 292 826 l 292 592 z "},"É":{"ha":749,"x_min":75,"x_max":729,"o":"m 292 592 l 500 592 q 549 566 532 592 q 565 507 565 540 q 550 452 565 479 q 500 425 535 425 l 292 425 l 292 189 l 664 189 q 713 160 696 189 q 729 93 729 132 q 714 30 729 60 q 664 0 699 0 l 169 0 q 104 17 133 0 q 75 67 75 33 l 75 949 q 104 999 75 982 q 169 1015 133 1015 l 664 1015 q 714 985 699 1015 q 729 922 729 956 q 713 855 729 883 q 664 826 696 826 l 292 826 l 292 592 m 367 1114 q 346 1108 353 1108 q 300 1135 318 1108 q 282 1189 282 1161 q 310 1238 282 1224 l 504 1328 q 524 1332 514 1332 q 549 1324 538 1332 q 570 1305 561 1317 q 584 1279 579 1293 q 589 1251 589 1265 q 583 1224 589 1236 q 561 1204 576 1211 l 367 1114 z "},"Ĕ":{"ha":749,"x_min":75,"x_max":729,"o":"m 292 592 l 500 592 q 549 566 532 592 q 565 507 565 540 q 550 452 565 479 q 500 425 535 425 l 292 425 l 292 189 l 664 189 q 713 160 696 189 q 729 93 729 132 q 714 30 729 60 q 664 0 699 0 l 169 0 q 104 17 133 0 q 75 67 75 33 l 75 949 q 104 999 75 982 q 169 1015 133 1015 l 664 1015 q 714 985 699 1015 q 729 922 729 956 q 713 855 729 883 q 664 826 696 826 l 292 826 l 292 592 m 594 1338 q 578 1264 594 1299 q 535 1203 563 1229 q 474 1160 508 1176 q 401 1144 439 1144 q 328 1160 364 1144 q 266 1203 293 1176 q 223 1264 239 1229 q 207 1338 207 1299 l 318 1338 q 344 1265 318 1293 q 401 1236 371 1236 q 457 1265 431 1236 q 483 1338 483 1293 l 594 1338 z "},"Ě":{"ha":749,"x_min":75,"x_max":729,"o":"m 292 592 l 500 592 q 549 566 532 592 q 565 507 565 540 q 550 452 565 479 q 500 425 535 425 l 292 425 l 292 189 l 664 189 q 713 160 696 189 q 729 93 729 132 q 714 30 729 60 q 664 0 699 0 l 169 0 q 104 17 133 0 q 75 67 75 33 l 75 949 q 104 999 75 982 q 169 1015 133 1015 l 664 1015 q 714 985 699 1015 q 729 922 729 956 q 713 855 729 883 q 664 826 696 826 l 292 826 l 292 592 m 400 1267 l 544 1344 q 560 1349 553 1349 q 591 1328 579 1349 q 603 1285 603 1308 q 595 1251 603 1267 q 568 1224 588 1235 l 424 1146 q 400 1139 410 1139 q 376 1146 390 1139 l 232 1224 q 205 1251 213 1235 q 197 1285 197 1267 q 209 1328 197 1308 q 240 1349 221 1349 q 256 1344 247 1349 l 400 1267 z "},"Ê":{"ha":749,"x_min":75,"x_max":729,"o":"m 292 592 l 500 592 q 549 566 532 592 q 565 507 565 540 q 550 452 565 479 q 500 425 535 425 l 292 425 l 292 189 l 664 189 q 713 160 696 189 q 729 93 729 132 q 714 30 729 60 q 664 0 699 0 l 169 0 q 104 17 133 0 q 75 67 75 33 l 75 949 q 104 999 75 982 q 169 1015 133 1015 l 664 1015 q 714 985 699 1015 q 729 922 729 956 q 713 855 729 883 q 664 826 696 826 l 292 826 l 292 592 m 271 1126 q 256 1122 263 1122 q 224 1142 236 1122 q 213 1186 213 1163 q 220 1220 213 1204 q 247 1247 228 1236 l 392 1325 q 415 1332 406 1332 q 439 1325 425 1332 l 583 1247 q 610 1220 603 1236 q 618 1186 618 1204 q 606 1142 618 1163 q 575 1122 594 1122 q 560 1126 568 1122 l 415 1204 l 271 1126 z "},"Ë":{"ha":749,"x_min":75,"x_max":729,"o":"m 292 592 l 500 592 q 549 566 532 592 q 565 507 565 540 q 550 452 565 479 q 500 425 535 425 l 292 425 l 292 189 l 664 189 q 713 160 696 189 q 729 93 729 132 q 714 30 729 60 q 664 0 699 0 l 169 0 q 104 17 133 0 q 75 67 75 33 l 75 949 q 104 999 75 982 q 169 1015 133 1015 l 664 1015 q 714 985 699 1015 q 729 922 729 956 q 713 855 729 883 q 664 826 696 826 l 292 826 l 292 592 m 296 1288 q 351 1263 328 1288 q 374 1207 374 1239 q 351 1150 374 1175 q 296 1125 328 1125 q 240 1150 264 1125 q 217 1207 217 1175 q 240 1263 217 1239 q 296 1288 264 1288 m 518 1288 q 573 1263 550 1288 q 596 1207 596 1239 q 573 1150 596 1175 q 518 1125 550 1125 q 463 1150 486 1125 q 439 1207 439 1175 q 463 1263 439 1239 q 518 1288 486 1288 z "},"Ė":{"ha":749,"x_min":75,"x_max":729,"o":"m 292 592 l 500 592 q 549 566 532 592 q 565 507 565 540 q 550 452 565 479 q 500 425 535 425 l 292 425 l 292 189 l 664 189 q 713 160 696 189 q 729 93 729 132 q 714 30 729 60 q 664 0 699 0 l 169 0 q 104 17 133 0 q 75 67 75 33 l 75 949 q 104 999 75 982 q 169 1015 133 1015 l 664 1015 q 714 985 699 1015 q 729 922 729 956 q 713 855 729 883 q 664 826 696 826 l 292 826 l 292 592 m 421 1288 q 476 1263 453 1288 q 499 1207 499 1239 q 476 1150 499 1175 q 421 1125 453 1125 q 365 1150 389 1125 q 342 1207 342 1175 q 365 1263 342 1239 q 421 1288 389 1288 z "},"È":{"ha":749,"x_min":75,"x_max":729,"o":"m 292 592 l 500 592 q 549 566 532 592 q 565 507 565 540 q 550 452 565 479 q 500 425 535 425 l 292 425 l 292 189 l 664 189 q 713 160 696 189 q 729 93 729 132 q 714 30 729 60 q 664 0 699 0 l 169 0 q 104 17 133 0 q 75 67 75 33 l 75 949 q 104 999 75 982 q 169 1015 133 1015 l 664 1015 q 714 985 699 1015 q 729 922 729 956 q 713 855 729 883 q 664 826 696 826 l 292 826 l 292 592 m 268 1204 q 247 1224 253 1211 q 240 1251 240 1236 q 245 1279 240 1265 q 259 1305 250 1293 q 280 1324 268 1317 q 306 1332 292 1332 q 325 1328 314 1332 l 519 1238 q 547 1189 547 1224 q 529 1135 547 1161 q 483 1108 511 1108 q 463 1114 476 1108 l 268 1204 z "},"Ē":{"ha":749,"x_min":75,"x_max":729,"o":"m 292 592 l 500 592 q 549 566 532 592 q 565 507 565 540 q 550 452 565 479 q 500 425 535 425 l 292 425 l 292 189 l 664 189 q 713 160 696 189 q 729 93 729 132 q 714 30 729 60 q 664 0 699 0 l 169 0 q 104 17 133 0 q 75 67 75 33 l 75 949 q 104 999 75 982 q 169 1015 133 1015 l 664 1015 q 714 985 699 1015 q 729 922 729 956 q 713 855 729 883 q 664 826 696 826 l 292 826 l 292 592 m 204 1233 q 222 1283 204 1263 q 269 1303 240 1303 l 547 1303 q 593 1283 572 1303 q 614 1233 614 1263 q 593 1184 614 1203 q 547 1165 572 1165 l 269 1165 q 222 1184 240 1165 q 204 1233 204 1203 z "},"Ŋ":{"ha":861,"x_min":75,"x_max":785,"o":"m 532 -121 q 562 -98 556 -121 q 568 -39 568 -75 l 568 11 q 565 37 568 26 q 556 58 563 47 l 292 539 l 292 67 q 258 17 292 33 q 183 0 224 0 q 109 17 143 0 q 75 67 75 33 l 75 949 q 109 999 75 983 q 183 1015 143 1015 q 233 1013 213 1015 q 272 999 254 1010 q 307 967 290 989 q 343 907 324 944 l 568 478 l 568 950 q 602 1000 568 985 q 676 1015 636 1015 q 751 1000 717 1015 q 785 950 785 985 l 785 -39 q 770 -145 785 -97 q 727 -228 756 -193 q 658 -282 699 -262 q 564 -301 617 -301 q 508 -294 529 -301 q 474 -274 486 -286 q 456 -246 461 -261 q 451 -214 451 -231 q 475 -146 451 -171 q 532 -121 499 -121 z "},"Ę":{"ha":749,"x_min":75,"x_max":729,"o":"m 669 -215 q 697 -231 689 -215 q 704 -262 704 -247 q 697 -290 704 -278 q 661 -303 689 -303 q 528 -263 569 -303 q 488 -168 488 -224 q 509 -81 488 -125 q 571 0 531 -36 l 169 0 q 104 17 133 0 q 75 67 75 33 l 75 949 q 104 999 75 982 q 169 1015 133 1015 l 664 1015 q 714 985 699 1015 q 729 922 729 956 q 713 855 729 883 q 664 826 696 826 l 292 826 l 292 592 l 500 592 q 549 566 532 592 q 565 507 565 540 q 550 452 565 479 q 500 425 535 425 l 292 425 l 292 189 l 664 189 q 713 160 696 189 q 729 93 729 132 q 718 38 729 65 q 682 3 707 11 q 615 -68 642 -25 q 589 -149 589 -111 q 607 -197 589 -178 q 669 -215 625 -215 z "},"Ð":{"ha":828,"x_min":-14,"x_max":765,"o":"m 424 1015 q 558 998 496 1015 q 667 941 621 981 q 739 839 713 901 q 765 688 765 776 l 765 328 q 739 176 765 238 q 667 74 713 114 q 558 17 621 35 q 424 0 496 0 l 178 0 q 109 19 135 0 q 83 65 83 39 l 83 454 l 39 454 q -1 478 13 454 q -14 531 -14 501 q -1 583 -14 558 q 39 607 13 607 l 83 607 l 83 950 q 109 996 83 976 q 178 1015 135 1015 l 424 1015 m 300 826 l 300 607 l 386 607 q 426 583 413 607 q 439 531 439 558 q 426 477 439 500 q 386 454 413 454 l 300 454 l 300 189 l 424 189 q 515 223 482 189 q 549 328 549 257 l 549 688 q 515 792 549 758 q 424 826 482 826 l 300 826 z "},"€":{"ha":883,"x_min":32,"x_max":835,"o":"m 369 294 q 373 269 369 288 q 389 231 376 251 q 427 196 401 211 q 497 181 453 181 q 563 194 539 181 q 599 229 586 208 q 615 274 611 250 q 618 319 618 299 q 643 366 619 353 q 725 379 667 379 q 810 360 785 379 q 835 281 835 342 q 808 159 835 213 q 735 68 782 106 q 624 11 688 31 q 488 -8 561 -8 q 343 15 406 -8 q 238 79 281 39 q 174 175 196 119 q 153 294 153 231 l 153 300 l 97 300 q 50 320 68 300 q 32 372 32 340 q 50 426 32 404 q 97 449 68 449 l 153 449 l 153 532 l 97 532 q 50 552 68 532 q 32 604 32 572 q 50 658 32 636 q 97 681 68 681 l 153 681 l 153 688 q 179 839 153 776 q 251 941 206 901 q 357 998 296 981 q 488 1015 418 1015 q 624 997 561 1015 q 735 944 688 979 q 808 857 782 908 q 835 739 835 806 q 828 690 835 708 q 809 660 822 671 q 775 646 796 650 q 725 642 754 642 q 642 656 667 642 q 618 701 618 669 q 615 735 618 714 q 601 777 613 757 q 564 812 589 797 q 496 826 539 826 q 369 688 369 826 l 369 681 l 458 681 q 504 659 483 681 q 525 606 525 638 q 504 553 525 574 q 458 532 483 532 l 369 532 l 369 449 l 458 449 q 504 427 483 449 q 525 374 525 406 q 504 321 525 342 q 458 300 483 300 l 369 300 l 369 294 z "},"F":{"ha":715,"x_min":75,"x_max":717,"o":"m 75 949 q 104 999 75 982 q 169 1015 133 1015 l 651 1015 q 701 985 686 1015 q 717 922 717 956 q 700 855 717 883 q 651 826 683 826 l 292 826 l 292 592 l 501 592 q 550 566 533 592 q 567 507 567 540 q 551 452 567 479 q 501 425 536 425 l 292 425 l 292 67 q 258 17 292 33 q 183 0 224 0 q 109 17 143 0 q 75 67 75 33 l 75 949 z "},"G":{"ha":796,"x_min":64,"x_max":746,"o":"m 529 701 q 526 742 529 719 q 511 783 524 764 q 474 814 499 801 q 406 826 450 826 q 313 792 346 826 q 281 688 281 758 l 281 319 q 313 215 281 249 q 404 181 346 181 q 496 215 463 181 q 529 319 529 249 l 529 367 l 447 367 q 399 392 415 367 q 382 450 382 418 q 399 507 382 481 q 447 533 415 533 l 681 533 q 729 513 713 533 q 746 465 746 493 l 746 319 q 719 167 746 229 q 647 66 693 106 q 539 9 601 26 q 404 -8 476 -8 q 270 9 332 -8 q 163 66 208 26 q 90 167 117 106 q 64 319 64 229 l 64 688 q 90 839 64 776 q 163 941 117 901 q 269 998 208 981 q 397 1015 329 1015 q 535 997 472 1015 q 646 944 599 979 q 719 857 693 908 q 746 739 746 806 q 719 656 746 676 q 638 636 693 636 q 562 650 593 636 q 529 701 531 664 z "},"Ğ":{"ha":796,"x_min":64,"x_max":746,"o":"m 529 701 q 526 742 529 719 q 511 783 524 764 q 474 814 499 801 q 406 826 450 826 q 313 792 346 826 q 281 688 281 758 l 281 319 q 313 215 281 249 q 404 181 346 181 q 496 215 463 181 q 529 319 529 249 l 529 367 l 447 367 q 399 392 415 367 q 382 450 382 418 q 399 507 382 481 q 447 533 415 533 l 681 533 q 729 513 713 533 q 746 465 746 493 l 746 319 q 719 167 746 229 q 647 66 693 106 q 539 9 601 26 q 404 -8 476 -8 q 270 9 332 -8 q 163 66 208 26 q 90 167 117 106 q 64 319 64 229 l 64 688 q 90 839 64 776 q 163 941 117 901 q 269 998 208 981 q 397 1015 329 1015 q 535 997 472 1015 q 646 944 599 979 q 719 857 693 908 q 746 739 746 806 q 719 656 746 676 q 638 636 693 636 q 562 650 593 636 q 529 701 531 664 m 596 1338 q 580 1264 596 1299 q 537 1203 564 1229 q 475 1160 510 1176 q 403 1144 440 1144 q 330 1160 365 1144 q 267 1203 294 1176 q 224 1264 240 1229 q 208 1338 208 1299 l 319 1338 q 346 1265 319 1293 q 403 1236 372 1236 q 458 1265 432 1236 q 485 1338 485 1293 l 596 1338 z "},"Ĝ":{"ha":796,"x_min":64,"x_max":746,"o":"m 529 701 q 526 742 529 719 q 511 783 524 764 q 474 814 499 801 q 406 826 450 826 q 313 792 346 826 q 281 688 281 758 l 281 319 q 313 215 281 249 q 404 181 346 181 q 496 215 463 181 q 529 319 529 249 l 529 367 l 447 367 q 399 392 415 367 q 382 450 382 418 q 399 507 382 481 q 447 533 415 533 l 681 533 q 729 513 713 533 q 746 465 746 493 l 746 319 q 719 167 746 229 q 647 66 693 106 q 539 9 601 26 q 404 -8 476 -8 q 270 9 332 -8 q 163 66 208 26 q 90 167 117 106 q 64 319 64 229 l 64 688 q 90 839 64 776 q 163 941 117 901 q 269 998 208 981 q 397 1015 329 1015 q 535 997 472 1015 q 646 944 599 979 q 719 857 693 908 q 746 739 746 806 q 719 656 746 676 q 638 636 693 636 q 562 650 593 636 q 529 701 531 664 m 239 1126 q 224 1122 231 1122 q 192 1142 204 1122 q 181 1186 181 1163 q 188 1220 181 1204 q 215 1247 196 1236 l 360 1325 q 383 1332 374 1332 q 407 1325 393 1332 l 551 1247 q 578 1220 571 1236 q 586 1186 586 1204 q 574 1142 586 1163 q 543 1122 563 1122 q 528 1126 536 1122 l 383 1204 l 239 1126 z "},"Ģ":{"ha":796,"x_min":64,"x_max":746,"o":"m 529 701 q 526 742 529 719 q 511 783 524 764 q 474 814 499 801 q 406 826 450 826 q 313 792 346 826 q 281 688 281 758 l 281 319 q 313 215 281 249 q 404 181 346 181 q 496 215 463 181 q 529 319 529 249 l 529 367 l 447 367 q 399 392 415 367 q 382 450 382 418 q 399 507 382 481 q 447 533 415 533 l 681 533 q 729 513 713 533 q 746 465 746 493 l 746 319 q 719 167 746 229 q 647 66 693 106 q 539 9 601 26 q 404 -8 476 -8 q 270 9 332 -8 q 163 66 208 26 q 90 167 117 106 q 64 319 64 229 l 64 688 q 90 839 64 776 q 163 941 117 901 q 269 998 208 981 q 397 1015 329 1015 q 535 997 472 1015 q 646 944 599 979 q 719 857 693 908 q 746 739 746 806 q 719 656 746 676 q 638 636 693 636 q 562 650 593 636 q 529 701 531 664 m 335 -285 q 314 -290 321 -290 q 268 -264 286 -290 q 250 -210 250 -237 q 278 -161 250 -175 l 472 -71 q 492 -67 482 -67 q 517 -74 506 -67 q 538 -94 529 -82 q 552 -119 547 -106 q 557 -147 557 -133 q 551 -175 557 -162 q 529 -194 544 -187 l 335 -285 z "},"Ġ":{"ha":796,"x_min":64,"x_max":746,"o":"m 529 701 q 526 742 529 719 q 511 783 524 764 q 474 814 499 801 q 406 826 450 826 q 313 792 346 826 q 281 688 281 758 l 281 319 q 313 215 281 249 q 404 181 346 181 q 496 215 463 181 q 529 319 529 249 l 529 367 l 447 367 q 399 392 415 367 q 382 450 382 418 q 399 507 382 481 q 447 533 415 533 l 681 533 q 729 513 713 533 q 746 465 746 493 l 746 319 q 719 167 746 229 q 647 66 693 106 q 539 9 601 26 q 404 -8 476 -8 q 270 9 332 -8 q 163 66 208 26 q 90 167 117 106 q 64 319 64 229 l 64 688 q 90 839 64 776 q 163 941 117 901 q 269 998 208 981 q 397 1015 329 1015 q 535 997 472 1015 q 646 944 599 979 q 719 857 693 908 q 746 739 746 806 q 719 656 746 676 q 638 636 693 636 q 562 650 593 636 q 529 701 531 664 m 399 1288 q 453 1263 431 1288 q 476 1207 476 1239 q 453 1150 476 1175 q 399 1125 431 1125 q 343 1150 367 1125 q 319 1207 319 1175 q 343 1263 319 1239 q 399 1288 367 1288 z "},"H":{"ha":860,"x_min":75,"x_max":785,"o":"m 568 443 l 292 443 l 292 67 q 258 17 292 33 q 183 0 224 0 q 109 17 143 0 q 75 67 75 33 l 75 950 q 109 1000 75 985 q 183 1015 143 1015 q 258 1000 224 1015 q 292 950 292 985 l 292 610 l 568 610 l 568 950 q 602 1000 568 985 q 676 1015 636 1015 q 751 1000 717 1015 q 785 950 785 985 l 785 67 q 751 17 785 33 q 676 0 717 0 q 602 17 636 0 q 568 67 568 33 l 568 443 z "},"Ħ":{"ha":865,"x_min":21,"x_max":843,"o":"m 571 443 l 294 443 l 294 67 q 260 17 294 33 q 186 0 226 0 q 112 17 146 0 q 78 67 78 33 l 78 739 l 72 739 q 33 760 46 739 q 21 807 21 781 q 33 853 21 832 q 72 875 46 875 l 78 875 l 78 950 q 112 1000 78 985 q 186 1015 146 1015 q 260 1000 226 1015 q 294 950 294 985 l 294 875 l 571 875 l 571 950 q 605 1000 571 985 q 679 1015 639 1015 q 753 1000 719 1015 q 788 950 788 985 l 788 875 l 793 875 q 831 853 819 875 q 843 807 843 832 q 831 759 843 779 q 793 739 819 739 l 788 739 l 788 67 q 753 17 788 33 q 679 0 719 0 q 605 17 639 0 q 571 67 571 33 l 571 443 m 571 610 l 571 739 l 294 739 l 294 610 l 571 610 z "},"Ĥ":{"ha":860,"x_min":75,"x_max":785,"o":"m 568 443 l 292 443 l 292 67 q 258 17 292 33 q 183 0 224 0 q 109 17 143 0 q 75 67 75 33 l 75 950 q 109 1000 75 985 q 183 1015 143 1015 q 258 1000 224 1015 q 292 950 292 985 l 292 610 l 568 610 l 568 950 q 602 1000 568 985 q 676 1015 636 1015 q 751 1000 717 1015 q 785 950 785 985 l 785 67 q 751 17 785 33 q 676 0 717 0 q 602 17 636 0 q 568 67 568 33 l 568 443 m 286 1126 q 271 1122 278 1122 q 240 1142 251 1122 q 228 1186 228 1163 q 235 1220 228 1204 q 263 1247 243 1236 l 407 1325 q 431 1332 421 1332 q 454 1325 440 1332 l 599 1247 q 626 1220 618 1236 q 633 1186 633 1204 q 622 1142 633 1163 q 590 1122 610 1122 q 575 1126 583 1122 l 431 1204 l 286 1126 z "},"I":{"ha":367,"x_min":75,"x_max":292,"o":"m 75 950 q 109 1000 75 985 q 183 1015 143 1015 q 258 1000 224 1015 q 292 950 292 985 l 292 67 q 258 17 292 33 q 183 0 224 0 q 109 17 143 0 q 75 67 75 33 l 75 950 z "},"Ĳ":{"ha":1118,"x_min":75,"x_max":1047,"o":"m 75 950 q 109 1000 75 985 q 183 1015 143 1015 q 258 1000 224 1015 q 292 950 292 985 l 292 67 q 258 17 292 33 q 183 0 224 0 q 109 17 143 0 q 75 67 75 33 l 75 950 m 710 826 q 661 855 678 826 q 644 922 644 883 q 660 985 644 956 q 710 1015 675 1015 l 953 1015 q 1018 999 989 1015 q 1047 949 1047 982 l 1047 319 q 1021 167 1047 229 q 949 66 994 106 q 842 9 903 26 q 714 -8 782 -8 q 576 11 639 -8 q 465 67 513 31 q 392 158 418 104 q 365 282 365 213 q 392 365 365 344 q 475 385 418 385 q 548 372 517 385 q 582 319 579 358 q 587 274 583 299 q 603 229 590 250 q 639 194 615 208 q 704 181 663 181 q 798 215 765 181 q 831 319 831 249 l 831 826 l 710 826 z "},"Í":{"ha":367,"x_min":43,"x_max":350,"o":"m 75 950 q 109 1000 75 985 q 183 1015 143 1015 q 258 1000 224 1015 q 292 950 292 985 l 292 67 q 258 17 292 33 q 183 0 224 0 q 109 17 143 0 q 75 67 75 33 l 75 950 m 128 1114 q 107 1108 114 1108 q 61 1135 79 1108 q 43 1189 43 1161 q 71 1238 43 1224 l 265 1328 q 285 1332 275 1332 q 310 1324 299 1332 q 331 1305 322 1317 q 345 1279 340 1293 q 350 1251 350 1265 q 344 1224 350 1236 q 322 1204 338 1211 l 128 1114 z "},"Ĭ":{"ha":367,"x_min":-10,"x_max":378,"o":"m 75 950 q 109 1000 75 985 q 183 1015 143 1015 q 258 1000 224 1015 q 292 950 292 985 l 292 67 q 258 17 292 33 q 183 0 224 0 q 109 17 143 0 q 75 67 75 33 l 75 950 m 378 1338 q 362 1264 378 1299 q 319 1203 346 1229 q 257 1160 292 1176 q 185 1144 222 1144 q 112 1160 147 1144 q 49 1203 76 1176 q 6 1264 22 1229 q -10 1338 -10 1299 l 101 1338 q 128 1265 101 1293 q 185 1236 154 1236 q 240 1265 214 1236 q 267 1338 267 1293 l 378 1338 z "},"Î":{"ha":367,"x_min":-17,"x_max":389,"o":"m 75 950 q 109 1000 75 985 q 183 1015 143 1015 q 258 1000 224 1015 q 292 950 292 985 l 292 67 q 258 17 292 33 q 183 0 224 0 q 109 17 143 0 q 75 67 75 33 l 75 950 m 42 1126 q 26 1122 33 1122 q -5 1142 7 1122 q -17 1186 -17 1163 q -9 1220 -17 1204 q 18 1247 -1 1236 l 163 1325 q 186 1332 176 1332 q 210 1325 196 1332 l 354 1247 q 381 1220 374 1236 q 389 1186 389 1204 q 377 1142 389 1163 q 346 1122 365 1122 q 331 1126 339 1122 l 186 1204 l 42 1126 z "},"Ï":{"ha":367,"x_min":-4,"x_max":375,"o":"m 75 950 q 109 1000 75 985 q 183 1015 143 1015 q 258 1000 224 1015 q 292 950 292 985 l 292 67 q 258 17 292 33 q 183 0 224 0 q 109 17 143 0 q 75 67 75 33 l 75 950 m 75 1288 q 130 1263 107 1288 q 153 1207 153 1239 q 130 1150 153 1175 q 75 1125 107 1125 q 19 1150 43 1125 q -4 1207 -4 1175 q 19 1263 -4 1239 q 75 1288 43 1288 m 297 1288 q 352 1263 329 1288 q 375 1207 375 1239 q 352 1150 375 1175 q 297 1125 329 1125 q 242 1150 265 1125 q 218 1207 218 1175 q 242 1263 218 1239 q 297 1288 265 1288 z "},"İ":{"ha":367,"x_min":75,"x_max":292,"o":"m 75 950 q 109 1000 75 985 q 183 1015 143 1015 q 258 1000 224 1015 q 292 950 292 985 l 292 67 q 258 17 292 33 q 183 0 224 0 q 109 17 143 0 q 75 67 75 33 l 75 950 m 185 1288 q 240 1263 217 1288 q 263 1207 263 1239 q 240 1150 263 1175 q 185 1125 217 1125 q 129 1150 153 1125 q 106 1207 106 1175 q 129 1263 106 1239 q 185 1288 153 1288 z "},"Ì":{"ha":367,"x_min":18,"x_max":325,"o":"m 75 950 q 109 1000 75 985 q 183 1015 143 1015 q 258 1000 224 1015 q 292 950 292 985 l 292 67 q 258 17 292 33 q 183 0 224 0 q 109 17 143 0 q 75 67 75 33 l 75 950 m 46 1204 q 24 1224 31 1211 q 18 1251 18 1236 q 23 1279 18 1265 q 37 1305 28 1293 q 58 1324 46 1317 q 83 1332 69 1332 q 103 1328 92 1332 l 297 1238 q 325 1189 325 1224 q 307 1135 325 1161 q 261 1108 289 1108 q 240 1114 254 1108 l 46 1204 z "},"Ī":{"ha":367,"x_min":-22,"x_max":388,"o":"m 75 950 q 109 1000 75 985 q 183 1015 143 1015 q 258 1000 224 1015 q 292 950 292 985 l 292 67 q 258 17 292 33 q 183 0 224 0 q 109 17 143 0 q 75 67 75 33 l 75 950 m -22 1233 q -4 1283 -22 1263 q 43 1303 14 1303 l 321 1303 q 367 1283 346 1303 q 388 1233 388 1263 q 367 1184 388 1203 q 321 1165 346 1165 l 43 1165 q -4 1184 14 1165 q -22 1233 -22 1203 z "},"Į":{"ha":367,"x_min":36,"x_max":292,"o":"m 218 -215 q 245 -231 238 -215 q 253 -262 253 -247 q 245 -290 253 -278 q 210 -303 238 -303 q 77 -263 118 -303 q 36 -168 36 -224 q 60 -76 36 -124 q 128 8 83 -28 q 90 30 104 15 q 75 67 75 44 l 75 950 q 109 1000 75 985 q 183 1015 143 1015 q 258 1000 224 1015 q 292 950 292 985 l 292 67 q 278 31 292 46 q 242 10 264 17 q 200 -22 219 -3 q 167 -63 181 -42 q 145 -107 153 -85 q 138 -149 138 -129 q 156 -197 138 -178 q 218 -215 174 -215 z "},"Ĩ":{"ha":367,"x_min":-64,"x_max":429,"o":"m 75 950 q 109 1000 75 985 q 183 1015 143 1015 q 258 1000 224 1015 q 292 950 292 985 l 292 67 q 258 17 292 33 q 183 0 224 0 q 109 17 143 0 q 75 67 75 33 l 75 950 m 108 1174 q 69 1169 86 1174 q 39 1159 53 1164 q 13 1149 25 1154 q -11 1144 1 1144 q -37 1153 -28 1144 q -53 1173 -47 1161 q -62 1196 -60 1185 q -64 1213 -64 1207 q -49 1270 -64 1250 q -15 1300 -35 1290 q 25 1312 6 1310 q 54 1314 44 1314 q 111 1308 86 1314 q 159 1295 136 1303 q 205 1282 182 1288 q 257 1276 228 1276 q 296 1281 279 1276 q 326 1291 313 1286 q 352 1301 340 1296 q 376 1306 364 1306 q 403 1297 393 1306 q 419 1276 413 1288 q 427 1254 425 1265 q 429 1238 429 1243 q 415 1180 429 1200 q 380 1150 400 1160 q 340 1138 360 1140 q 311 1136 321 1136 q 247 1142 274 1136 q 198 1155 221 1147 q 154 1168 175 1163 q 108 1174 133 1174 z "},"J":{"ha":761,"x_min":8,"x_max":690,"o":"m 353 826 q 304 855 321 826 q 288 922 288 883 q 303 985 288 956 q 353 1015 318 1015 l 596 1015 q 661 999 632 1015 q 690 949 690 982 l 690 319 q 664 167 690 229 q 592 66 638 106 q 485 9 546 26 q 357 -8 425 -8 q 219 11 282 -8 q 108 67 156 31 q 35 158 61 104 q 8 282 8 213 q 35 365 8 344 q 118 385 61 385 q 191 372 160 385 q 225 319 222 358 q 230 274 226 299 q 246 229 233 250 q 282 194 258 208 q 347 181 306 181 q 441 215 408 181 q 474 319 474 249 l 474 826 l 353 826 z "},"Ĵ":{"ha":761,"x_min":8,"x_max":690,"o":"m 353 826 q 304 855 321 826 q 288 922 288 883 q 303 985 288 956 q 353 1015 318 1015 l 596 1015 q 661 999 632 1015 q 690 949 690 982 l 690 319 q 664 167 690 229 q 592 66 638 106 q 485 9 546 26 q 357 -8 425 -8 q 219 11 282 -8 q 108 67 156 31 q 35 158 61 104 q 8 282 8 213 q 35 365 8 344 q 118 385 61 385 q 191 372 160 385 q 225 319 222 358 q 230 274 226 299 q 246 229 233 250 q 282 194 258 208 q 347 181 306 181 q 441 215 408 181 q 474 319 474 249 l 474 826 l 353 826 m 236 1126 q 221 1122 228 1122 q 190 1142 201 1122 q 178 1186 178 1163 q 185 1220 178 1204 q 213 1247 193 1236 l 357 1325 q 381 1332 371 1332 q 404 1325 390 1332 l 549 1247 q 576 1220 568 1236 q 583 1186 583 1204 q 572 1142 583 1163 q 540 1122 560 1122 q 525 1126 533 1122 l 381 1204 l 236 1126 z "},"K":{"ha":786,"x_min":75,"x_max":793,"o":"m 75 950 q 109 1000 75 985 q 183 1015 143 1015 q 258 1000 224 1015 q 292 950 292 985 l 292 617 l 551 985 q 608 1015 572 1015 q 651 1006 629 1015 q 692 980 674 996 q 724 944 711 964 q 736 904 736 925 q 733 885 736 896 q 722 863 731 874 l 494 576 l 782 136 q 793 100 793 118 q 781 60 793 79 q 751 25 769 40 q 709 1 732 10 q 663 -8 686 -8 q 621 1 640 -8 q 588 32 601 10 l 350 393 l 292 318 l 292 67 q 258 17 292 33 q 183 0 224 0 q 109 17 143 0 q 75 67 75 33 l 75 950 z "},"Ķ":{"ha":786,"x_min":75,"x_max":793,"o":"m 75 950 q 109 1000 75 985 q 183 1015 143 1015 q 258 1000 224 1015 q 292 950 292 985 l 292 617 l 551 985 q 608 1015 572 1015 q 651 1006 629 1015 q 692 980 674 996 q 724 944 711 964 q 736 904 736 925 q 733 885 736 896 q 722 863 731 874 l 494 576 l 782 136 q 793 100 793 118 q 781 60 793 79 q 751 25 769 40 q 709 1 732 10 q 663 -8 686 -8 q 621 1 640 -8 q 588 32 601 10 l 350 393 l 292 318 l 292 67 q 258 17 292 33 q 183 0 224 0 q 109 17 143 0 q 75 67 75 33 l 75 950 m 331 -285 q 310 -290 317 -290 q 264 -264 282 -290 q 246 -210 246 -237 q 274 -161 246 -175 l 468 -71 q 488 -67 478 -67 q 513 -74 501 -67 q 534 -94 525 -82 q 548 -119 543 -106 q 553 -147 553 -133 q 547 -175 553 -162 q 525 -194 540 -187 l 331 -285 z "},"L":{"ha":683,"x_min":75,"x_max":671,"o":"m 169 0 q 104 17 133 0 q 75 67 75 33 l 75 950 q 109 1000 75 985 q 183 1015 143 1015 q 258 1000 224 1015 q 292 950 292 985 l 292 189 l 608 189 q 656 160 640 189 q 671 94 671 131 q 656 29 671 58 q 608 0 640 0 l 169 0 z "},"Ĺ":{"ha":683,"x_min":75,"x_max":671,"o":"m 169 0 q 104 17 133 0 q 75 67 75 33 l 75 950 q 109 1000 75 985 q 183 1015 143 1015 q 258 1000 224 1015 q 292 950 292 985 l 292 189 l 608 189 q 656 160 640 189 q 671 94 671 131 q 656 29 671 58 q 608 0 640 0 l 169 0 m 288 1114 q 267 1108 274 1108 q 221 1135 239 1108 q 203 1189 203 1161 q 231 1238 203 1224 l 425 1328 q 444 1332 435 1332 q 470 1324 458 1332 q 491 1305 482 1317 q 505 1279 500 1293 q 510 1251 510 1265 q 503 1224 510 1236 q 482 1204 497 1211 l 288 1114 z "},"Ľ":{"ha":686,"x_min":75,"x_max":671,"o":"m 169 0 q 104 17 133 0 q 75 67 75 33 l 75 950 q 109 1000 75 985 q 183 1015 143 1015 q 258 1000 224 1015 q 292 950 292 985 l 292 189 l 608 189 q 656 160 640 189 q 671 94 671 131 q 656 29 671 58 q 608 0 640 0 l 169 0 m 540 1029 q 616 998 585 1029 q 647 924 647 967 q 645 908 647 917 q 635 878 643 900 q 609 814 626 856 q 561 701 592 772 q 542 681 554 686 q 519 676 531 676 q 474 690 497 676 q 450 731 450 704 q 456 753 450 742 l 490 828 q 450 867 465 843 q 435 922 435 892 q 465 998 435 967 q 540 1029 496 1029 z "},"Ļ":{"ha":683,"x_min":75,"x_max":671,"o":"m 169 0 q 104 17 133 0 q 75 67 75 33 l 75 950 q 109 1000 75 985 q 183 1015 143 1015 q 258 1000 224 1015 q 292 950 292 985 l 292 189 l 608 189 q 656 160 640 189 q 671 94 671 131 q 656 29 671 58 q 608 0 640 0 l 169 0 m 293 -285 q 272 -290 279 -290 q 226 -264 244 -290 q 208 -210 208 -237 q 236 -161 208 -175 l 431 -71 q 450 -67 440 -67 q 476 -74 464 -67 q 497 -94 488 -82 q 510 -119 506 -106 q 515 -147 515 -133 q 509 -175 515 -162 q 488 -194 503 -187 l 293 -285 z "},"Ŀ":{"ha":685,"x_min":75,"x_max":671,"o":"m 169 0 q 104 17 133 0 q 75 67 75 33 l 75 950 q 109 1000 75 985 q 183 1015 143 1015 q 258 1000 224 1015 q 292 950 292 985 l 292 189 l 608 189 q 656 160 640 189 q 671 94 671 131 q 656 29 671 58 q 608 0 640 0 l 169 0 m 531 683 q 610 654 578 683 q 643 585 643 625 q 610 515 643 544 q 531 485 578 485 q 449 515 482 485 q 417 585 417 544 q 449 654 417 625 q 531 683 482 683 z "},"Ł":{"ha":692,"x_min":-14,"x_max":679,"o":"m 178 0 q 113 17 142 0 q 83 67 83 33 l 83 351 l 76 349 q 58 344 68 344 q 31 353 43 344 q 8 376 18 363 q -8 406 -3 389 q -14 440 -14 424 q -8 468 -14 456 q 11 488 -3 481 l 83 521 l 83 950 q 117 1000 83 985 q 192 1015 151 1015 q 266 1000 232 1015 q 300 950 300 985 l 300 622 l 363 651 q 379 656 371 656 q 408 647 394 656 q 431 623 421 638 q 448 592 442 608 q 454 560 454 575 q 428 513 454 525 l 300 453 l 300 189 l 617 189 q 664 160 649 189 q 679 94 679 131 q 664 29 679 58 q 617 0 649 0 l 178 0 z "},"M":{"ha":989,"x_min":75,"x_max":914,"o":"m 564 360 q 531 328 550 336 q 492 319 511 319 q 454 328 472 319 q 424 360 436 336 l 292 601 l 292 67 q 258 17 292 33 q 183 0 224 0 q 109 17 143 0 q 75 67 75 33 l 75 907 q 84 957 75 936 q 108 991 93 978 q 143 1010 124 1004 q 183 1015 163 1015 q 235 1013 213 1015 q 276 999 257 1010 q 313 966 294 988 q 351 907 331 944 l 494 657 l 638 907 q 676 966 658 944 q 713 999 694 988 q 754 1013 732 1010 q 806 1015 776 1015 q 881 991 847 1015 q 914 907 914 967 l 914 67 q 880 17 914 33 q 806 0 846 0 q 731 17 765 0 q 697 67 697 33 l 697 588 l 564 360 z "},"N":{"ha":860,"x_min":75,"x_max":785,"o":"m 676 0 q 607 11 639 0 q 556 58 575 22 l 292 539 l 292 67 q 258 17 292 33 q 183 0 224 0 q 109 17 143 0 q 75 67 75 33 l 75 949 q 109 999 75 983 q 183 1015 143 1015 q 233 1013 213 1015 q 272 999 254 1010 q 307 967 290 989 q 343 907 324 944 l 568 478 l 568 950 q 602 1000 568 985 q 676 1015 636 1015 q 751 1000 717 1015 q 785 950 785 985 l 785 67 q 751 17 785 33 q 676 0 717 0 z "},"Ń":{"ha":860,"x_min":75,"x_max":785,"o":"m 676 0 q 607 11 639 0 q 556 58 575 22 l 292 539 l 292 67 q 258 17 292 33 q 183 0 224 0 q 109 17 143 0 q 75 67 75 33 l 75 949 q 109 999 75 983 q 183 1015 143 1015 q 233 1013 213 1015 q 272 999 254 1010 q 307 967 290 989 q 343 907 324 944 l 568 478 l 568 950 q 602 1000 568 985 q 676 1015 636 1015 q 751 1000 717 1015 q 785 950 785 985 l 785 67 q 751 17 785 33 q 676 0 717 0 m 342 1114 q 321 1108 328 1108 q 275 1135 293 1108 q 257 1189 257 1161 q 285 1238 257 1224 l 479 1328 q 499 1332 489 1332 q 524 1324 513 1332 q 545 1305 536 1317 q 559 1279 554 1293 q 564 1251 564 1265 q 558 1224 564 1236 q 536 1204 551 1211 l 342 1114 z "},"Ň":{"ha":860,"x_min":75,"x_max":785,"o":"m 676 0 q 607 11 639 0 q 556 58 575 22 l 292 539 l 292 67 q 258 17 292 33 q 183 0 224 0 q 109 17 143 0 q 75 67 75 33 l 75 949 q 109 999 75 983 q 183 1015 143 1015 q 233 1013 213 1015 q 272 999 254 1010 q 307 967 290 989 q 343 907 324 944 l 568 478 l 568 950 q 602 1000 568 985 q 676 1015 636 1015 q 751 1000 717 1015 q 785 950 785 985 l 785 67 q 751 17 785 33 q 676 0 717 0 m 431 1267 l 575 1344 q 590 1349 583 1349 q 622 1328 610 1349 q 633 1285 633 1308 q 626 1251 633 1267 q 599 1224 618 1235 l 454 1146 q 431 1139 440 1139 q 407 1146 421 1139 l 263 1224 q 235 1251 243 1235 q 228 1285 228 1267 q 240 1328 228 1308 q 271 1349 251 1349 q 286 1344 278 1349 l 431 1267 z "},"Ņ":{"ha":860,"x_min":75,"x_max":785,"o":"m 676 0 q 607 11 639 0 q 556 58 575 22 l 292 539 l 292 67 q 258 17 292 33 q 183 0 224 0 q 109 17 143 0 q 75 67 75 33 l 75 949 q 109 999 75 983 q 183 1015 143 1015 q 233 1013 213 1015 q 272 999 254 1010 q 307 967 290 989 q 343 907 324 944 l 568 478 l 568 950 q 602 1000 568 985 q 676 1015 636 1015 q 751 1000 717 1015 q 785 950 785 985 l 785 67 q 751 17 785 33 q 676 0 717 0 m 361 -285 q 340 -290 347 -290 q 294 -264 313 -290 q 276 -210 276 -237 q 304 -161 276 -175 l 499 -71 q 518 -67 508 -67 q 544 -74 532 -67 q 565 -94 556 -82 q 578 -119 574 -106 q 583 -147 583 -133 q 577 -175 583 -162 q 556 -194 571 -187 l 361 -285 z "},"Ñ":{"ha":860,"x_min":75,"x_max":785,"o":"m 676 0 q 607 11 639 0 q 556 58 575 22 l 292 539 l 292 67 q 258 17 292 33 q 183 0 224 0 q 109 17 143 0 q 75 67 75 33 l 75 949 q 109 999 75 983 q 183 1015 143 1015 q 233 1013 213 1015 q 272 999 254 1010 q 307 967 290 989 q 343 907 324 944 l 568 478 l 568 950 q 602 1000 568 985 q 676 1015 636 1015 q 751 1000 717 1015 q 785 950 785 985 l 785 67 q 751 17 785 33 q 676 0 717 0 m 343 1174 q 304 1169 321 1174 q 274 1159 288 1164 q 248 1149 260 1154 q 224 1144 236 1144 q 197 1153 207 1144 q 181 1173 188 1161 q 173 1196 175 1185 q 171 1213 171 1207 q 185 1270 171 1250 q 220 1300 200 1290 q 260 1312 240 1310 q 289 1314 279 1314 q 346 1308 321 1314 q 394 1295 371 1303 q 440 1282 417 1288 q 492 1276 463 1276 q 531 1281 514 1276 q 561 1291 547 1286 q 587 1301 575 1296 q 611 1306 599 1306 q 638 1297 628 1306 q 653 1276 647 1288 q 662 1254 660 1265 q 664 1238 664 1243 q 649 1180 664 1200 q 615 1150 635 1160 q 575 1138 594 1140 q 546 1136 556 1136 q 482 1142 508 1136 q 433 1155 456 1147 q 389 1168 410 1163 q 343 1174 368 1174 z "},"O":{"ha":810,"x_min":64,"x_max":746,"o":"m 404 -8 q 270 9 332 -8 q 163 66 208 26 q 90 167 117 106 q 64 319 64 229 l 64 688 q 90 839 64 776 q 163 941 117 901 q 270 998 208 981 q 404 1015 332 1015 q 539 998 476 1015 q 647 941 601 981 q 719 839 693 901 q 746 688 746 776 l 746 319 q 719 167 746 229 q 647 66 693 106 q 539 9 601 26 q 404 -8 476 -8 m 529 688 q 496 793 529 760 q 404 826 463 826 q 313 793 346 826 q 281 688 281 760 l 281 319 q 313 214 281 247 q 404 181 346 181 q 496 214 463 181 q 529 319 529 247 l 529 688 z "},"Œ":{"ha":1147,"x_min":65,"x_max":1128,"o":"m 364 -8 q 244 9 299 -8 q 149 66 189 26 q 88 167 110 106 q 65 319 65 229 l 65 688 q 88 839 65 776 q 149 941 110 901 q 244 998 189 981 q 364 1015 299 1015 q 476 990 419 1015 q 560 913 533 964 l 560 949 q 589 999 560 982 q 654 1015 618 1015 l 1063 1015 q 1113 985 1097 1015 q 1128 922 1128 956 q 1111 855 1128 883 q 1063 826 1094 826 l 749 826 l 749 592 l 899 592 q 947 566 931 592 q 964 507 964 540 q 949 452 964 479 q 899 425 933 425 l 749 425 l 749 189 l 1063 189 q 1111 160 1094 189 q 1128 93 1128 132 q 1113 30 1128 60 q 1063 0 1097 0 l 654 0 q 589 17 618 0 q 560 67 560 33 l 560 94 q 525 49 547 68 q 476 17 503 29 q 421 -2 450 4 q 364 -8 392 -8 m 531 688 q 497 793 531 760 q 406 826 464 826 q 315 793 347 826 q 282 688 282 760 l 282 319 q 315 214 282 247 q 406 181 347 181 q 497 214 464 181 q 531 319 531 247 l 531 688 z "},"Ó":{"ha":810,"x_min":64,"x_max":746,"o":"m 404 -8 q 270 9 332 -8 q 163 66 208 26 q 90 167 117 106 q 64 319 64 229 l 64 688 q 90 839 64 776 q 163 941 117 901 q 270 998 208 981 q 404 1015 332 1015 q 539 998 476 1015 q 647 941 601 981 q 719 839 693 901 q 746 688 746 776 l 746 319 q 719 167 746 229 q 647 66 693 106 q 539 9 601 26 q 404 -8 476 -8 m 529 688 q 496 793 529 760 q 404 826 463 826 q 313 793 346 826 q 281 688 281 760 l 281 319 q 313 214 281 247 q 404 181 346 181 q 496 214 463 181 q 529 319 529 247 l 529 688 m 397 1114 q 376 1108 383 1108 q 331 1135 349 1108 q 313 1189 313 1161 q 340 1238 313 1224 l 535 1328 q 554 1332 544 1332 q 580 1324 568 1332 q 601 1305 592 1317 q 615 1279 610 1293 q 619 1251 619 1265 q 613 1224 619 1236 q 592 1204 607 1211 l 397 1114 z "},"Ŏ":{"ha":810,"x_min":64,"x_max":746,"o":"m 404 -8 q 270 9 332 -8 q 163 66 208 26 q 90 167 117 106 q 64 319 64 229 l 64 688 q 90 839 64 776 q 163 941 117 901 q 270 998 208 981 q 404 1015 332 1015 q 539 998 476 1015 q 647 941 601 981 q 719 839 693 901 q 746 688 746 776 l 746 319 q 719 167 746 229 q 647 66 693 106 q 539 9 601 26 q 404 -8 476 -8 m 529 688 q 496 793 529 760 q 404 826 463 826 q 313 793 346 826 q 281 688 281 760 l 281 319 q 313 214 281 247 q 404 181 346 181 q 496 214 463 181 q 529 319 529 247 l 529 688 m 597 1338 q 581 1264 597 1299 q 538 1203 565 1229 q 476 1160 511 1176 q 404 1144 442 1144 q 331 1160 367 1144 q 269 1203 296 1176 q 226 1264 242 1229 q 210 1338 210 1299 l 321 1338 q 347 1265 321 1293 q 404 1236 374 1236 q 460 1265 433 1236 q 486 1338 486 1293 l 597 1338 z "},"Ô":{"ha":810,"x_min":64,"x_max":746,"o":"m 404 -8 q 270 9 332 -8 q 163 66 208 26 q 90 167 117 106 q 64 319 64 229 l 64 688 q 90 839 64 776 q 163 941 117 901 q 270 998 208 981 q 404 1015 332 1015 q 539 998 476 1015 q 647 941 601 981 q 719 839 693 901 q 746 688 746 776 l 746 319 q 719 167 746 229 q 647 66 693 106 q 539 9 601 26 q 404 -8 476 -8 m 529 688 q 496 793 529 760 q 404 826 463 826 q 313 793 346 826 q 281 688 281 760 l 281 319 q 313 214 281 247 q 404 181 346 181 q 496 214 463 181 q 529 319 529 247 l 529 688 m 260 1126 q 244 1122 251 1122 q 213 1142 225 1122 q 201 1186 201 1163 q 209 1220 201 1204 q 236 1247 217 1236 l 381 1325 q 404 1332 394 1332 q 428 1325 414 1332 l 572 1247 q 599 1220 592 1236 q 607 1186 607 1204 q 595 1142 607 1163 q 564 1122 583 1122 q 549 1126 557 1122 l 404 1204 l 260 1126 z "},"Ö":{"ha":810,"x_min":64,"x_max":746,"o":"m 404 -8 q 270 9 332 -8 q 163 66 208 26 q 90 167 117 106 q 64 319 64 229 l 64 688 q 90 839 64 776 q 163 941 117 901 q 270 998 208 981 q 404 1015 332 1015 q 539 998 476 1015 q 647 941 601 981 q 719 839 693 901 q 746 688 746 776 l 746 319 q 719 167 746 229 q 647 66 693 106 q 539 9 601 26 q 404 -8 476 -8 m 529 688 q 496 793 529 760 q 404 826 463 826 q 313 793 346 826 q 281 688 281 760 l 281 319 q 313 214 281 247 q 404 181 346 181 q 496 214 463 181 q 529 319 529 247 l 529 688 m 296 1288 q 351 1263 328 1288 q 374 1207 374 1239 q 351 1150 374 1175 q 296 1125 328 1125 q 240 1150 264 1125 q 217 1207 217 1175 q 240 1263 217 1239 q 296 1288 264 1288 m 518 1288 q 573 1263 550 1288 q 596 1207 596 1239 q 573 1150 596 1175 q 518 1125 550 1125 q 463 1150 486 1125 q 439 1207 439 1175 q 463 1263 439 1239 q 518 1288 486 1288 z "},"Ò":{"ha":810,"x_min":64,"x_max":746,"o":"m 404 -8 q 270 9 332 -8 q 163 66 208 26 q 90 167 117 106 q 64 319 64 229 l 64 688 q 90 839 64 776 q 163 941 117 901 q 270 998 208 981 q 404 1015 332 1015 q 539 998 476 1015 q 647 941 601 981 q 719 839 693 901 q 746 688 746 776 l 746 319 q 719 167 746 229 q 647 66 693 106 q 539 9 601 26 q 404 -8 476 -8 m 529 688 q 496 793 529 760 q 404 826 463 826 q 313 793 346 826 q 281 688 281 760 l 281 319 q 313 214 281 247 q 404 181 346 181 q 496 214 463 181 q 529 319 529 247 l 529 688 m 257 1204 q 235 1224 242 1211 q 229 1251 229 1236 q 234 1279 229 1265 q 248 1305 239 1293 q 269 1324 257 1317 q 294 1332 281 1332 q 314 1328 303 1332 l 508 1238 q 536 1189 536 1224 q 518 1135 536 1161 q 472 1108 500 1108 q 451 1114 465 1108 l 257 1204 z "},"Ő":{"ha":810,"x_min":64,"x_max":746,"o":"m 404 -8 q 270 9 332 -8 q 163 66 208 26 q 90 167 117 106 q 64 319 64 229 l 64 688 q 90 839 64 776 q 163 941 117 901 q 270 998 208 981 q 404 1015 332 1015 q 539 998 476 1015 q 647 941 601 981 q 719 839 693 901 q 746 688 746 776 l 746 319 q 719 167 746 229 q 647 66 693 106 q 539 9 601 26 q 404 -8 476 -8 m 529 688 q 496 793 529 760 q 404 826 463 826 q 313 793 346 826 q 281 688 281 760 l 281 319 q 313 214 281 247 q 404 181 346 181 q 496 214 463 181 q 529 319 529 247 l 529 688 m 318 1119 q 289 1104 307 1104 q 245 1124 265 1104 q 225 1165 225 1144 q 235 1189 225 1178 l 344 1321 q 359 1332 351 1329 q 375 1335 367 1335 q 417 1315 397 1335 q 436 1275 436 1294 q 428 1251 436 1261 l 318 1119 m 540 1119 q 511 1104 529 1104 q 467 1124 488 1104 q 447 1165 447 1144 q 457 1189 447 1178 l 567 1321 q 581 1332 574 1329 q 597 1335 589 1335 q 639 1315 619 1335 q 658 1275 658 1294 q 650 1251 658 1261 l 540 1119 z "},"Ō":{"ha":810,"x_min":64,"x_max":746,"o":"m 404 -8 q 270 9 332 -8 q 163 66 208 26 q 90 167 117 106 q 64 319 64 229 l 64 688 q 90 839 64 776 q 163 941 117 901 q 270 998 208 981 q 404 1015 332 1015 q 539 998 476 1015 q 647 941 601 981 q 719 839 693 901 q 746 688 746 776 l 746 319 q 719 167 746 229 q 647 66 693 106 q 539 9 601 26 q 404 -8 476 -8 m 529 688 q 496 793 529 760 q 404 826 463 826 q 313 793 346 826 q 281 688 281 760 l 281 319 q 313 214 281 247 q 404 181 346 181 q 496 214 463 181 q 529 319 529 247 l 529 688 m 200 1233 q 218 1283 200 1263 q 265 1303 236 1303 l 543 1303 q 589 1283 568 1303 q 610 1233 610 1263 q 589 1184 610 1203 q 543 1165 568 1165 l 265 1165 q 218 1184 236 1165 q 200 1233 200 1203 z "},"Ω":{"ha":811,"x_min":49,"x_max":763,"o":"m 444 382 q 529 514 529 400 l 529 688 q 497 793 529 760 q 406 826 464 826 q 315 793 347 826 q 282 688 282 760 l 282 514 q 303 418 282 454 q 367 382 324 382 l 367 0 l 114 0 q 67 27 85 0 q 49 94 49 54 q 68 162 49 136 q 114 188 88 188 l 249 188 l 249 204 q 115 308 165 233 q 65 514 65 382 l 65 688 q 92 839 65 776 q 164 941 118 901 q 272 998 210 981 q 406 1015 333 1015 q 540 998 478 1015 q 647 941 601 981 q 719 839 693 901 q 746 688 746 776 l 746 514 q 694 308 746 383 q 563 204 643 232 l 563 188 l 697 188 q 743 162 724 188 q 763 94 763 136 q 744 27 763 54 q 697 0 726 0 l 444 0 l 444 382 z "},"Ø":{"ha":810,"x_min":64,"x_max":746,"o":"m 644 1072 q 700 1052 674 1072 q 726 999 726 1032 q 721 972 726 983 l 685 900 q 730 809 714 861 q 746 688 746 757 l 746 319 q 719 167 746 229 q 647 66 693 106 q 539 9 601 26 q 404 -8 476 -8 q 253 14 319 -8 l 232 -29 q 207 -54 225 -44 q 169 -64 189 -64 q 113 -40 133 -64 q 92 10 92 -17 q 99 36 92 22 l 129 99 q 81 192 97 138 q 64 319 64 246 l 64 688 q 90 839 64 776 q 163 941 117 901 q 270 998 208 981 q 404 1015 332 1015 q 563 989 493 1015 l 586 1038 q 610 1064 594 1056 q 644 1072 625 1072 m 281 410 l 475 810 q 404 826 446 826 q 313 793 346 826 q 281 688 281 760 l 281 410 m 529 579 l 340 193 q 404 181 367 181 q 496 214 463 181 q 529 319 529 247 l 529 579 z "},"Ǿ":{"ha":810,"x_min":64,"x_max":746,"o":"m 644 1072 q 700 1052 674 1072 q 726 999 726 1032 q 721 972 726 983 l 685 900 q 730 809 714 861 q 746 688 746 757 l 746 319 q 719 167 746 229 q 647 66 693 106 q 539 9 601 26 q 404 -8 476 -8 q 253 14 319 -8 l 232 -29 q 207 -54 225 -44 q 169 -64 189 -64 q 113 -40 133 -64 q 92 10 92 -17 q 99 36 92 22 l 129 99 q 81 192 97 138 q 64 319 64 246 l 64 688 q 90 839 64 776 q 163 941 117 901 q 270 998 208 981 q 404 1015 332 1015 q 563 989 493 1015 l 586 1038 q 610 1064 594 1056 q 644 1072 625 1072 m 369 1114 q 349 1108 356 1108 q 303 1135 321 1108 q 285 1189 285 1161 q 313 1238 285 1224 l 507 1328 q 526 1332 517 1332 q 552 1324 540 1332 q 573 1305 564 1317 q 587 1279 582 1293 q 592 1251 592 1265 q 585 1224 592 1236 q 564 1204 579 1211 l 369 1114 m 281 410 l 475 810 q 404 826 446 826 q 313 793 346 826 q 281 688 281 760 l 281 410 m 529 579 l 340 193 q 404 181 367 181 q 496 214 463 181 q 529 319 529 247 l 529 579 z "},"Õ":{"ha":810,"x_min":64,"x_max":746,"o":"m 404 -8 q 270 9 332 -8 q 163 66 208 26 q 90 167 117 106 q 64 319 64 229 l 64 688 q 90 839 64 776 q 163 941 117 901 q 270 998 208 981 q 404 1015 332 1015 q 539 998 476 1015 q 647 941 601 981 q 719 839 693 901 q 746 688 746 776 l 746 319 q 719 167 746 229 q 647 66 693 106 q 539 9 601 26 q 404 -8 476 -8 m 529 688 q 496 793 529 760 q 404 826 463 826 q 313 793 346 826 q 281 688 281 760 l 281 319 q 313 214 281 247 q 404 181 346 181 q 496 214 463 181 q 529 319 529 247 l 529 688 m 331 1174 q 292 1169 308 1174 q 261 1159 275 1164 q 235 1149 247 1154 q 211 1144 224 1144 q 185 1153 194 1144 q 169 1173 175 1161 q 160 1196 163 1185 q 158 1213 158 1207 q 173 1270 158 1250 q 208 1300 188 1290 q 247 1312 228 1310 q 276 1314 267 1314 q 333 1308 308 1314 q 381 1295 358 1303 q 427 1282 404 1288 q 479 1276 450 1276 q 518 1281 501 1276 q 549 1291 535 1286 q 574 1301 563 1296 q 599 1306 586 1306 q 625 1297 615 1306 q 641 1276 635 1288 q 649 1254 647 1265 q 651 1238 651 1243 q 637 1180 651 1200 q 602 1150 622 1160 q 563 1138 582 1140 q 533 1136 543 1136 q 469 1142 496 1136 q 420 1155 443 1147 q 376 1168 397 1163 q 331 1174 356 1174 z "},"P":{"ha":790,"x_min":75,"x_max":771,"o":"m 75 950 q 97 996 75 976 q 156 1015 119 1015 l 443 1015 q 572 998 511 1015 q 676 943 632 981 q 745 844 719 906 q 771 696 771 783 l 771 689 q 744 540 771 601 q 672 440 718 479 q 564 384 626 401 q 429 367 501 367 l 292 367 l 292 67 q 258 17 292 33 q 183 0 224 0 q 109 17 143 0 q 75 67 75 33 l 75 950 m 292 826 l 292 533 l 429 533 q 521 567 488 533 q 554 672 554 601 l 554 688 q 521 792 554 758 q 429 826 488 826 l 292 826 z "},"Q":{"ha":810,"x_min":64,"x_max":746,"o":"m 404 -151 q 358 -135 379 -151 q 338 -85 338 -118 l 338 -4 q 228 25 278 3 q 141 86 178 47 q 84 183 104 125 q 64 319 64 240 l 64 688 q 90 840 64 778 q 163 942 117 903 q 270 998 208 981 q 404 1015 332 1015 q 539 998 476 1015 q 647 942 601 981 q 719 840 693 903 q 746 688 746 778 l 746 319 q 725 183 746 240 q 667 86 704 125 q 581 25 631 47 q 471 -4 531 3 l 471 -85 q 450 -135 471 -118 q 404 -151 429 -151 m 529 688 q 496 792 529 758 q 404 826 463 826 q 313 792 346 826 q 281 688 281 758 l 281 319 q 338 194 281 226 l 338 256 q 358 306 338 290 q 404 321 379 321 q 450 306 429 321 q 471 256 471 290 l 471 194 q 514 240 499 210 q 529 319 529 271 l 529 688 z "},"R":{"ha":811,"x_min":75,"x_max":779,"o":"m 75 950 q 93 996 75 976 q 142 1015 111 1015 l 429 1015 q 563 1001 500 1015 q 672 951 625 986 q 744 860 718 917 q 771 718 771 803 q 723 533 771 601 q 603 436 675 464 l 772 129 q 779 104 779 118 q 767 63 779 83 q 735 27 754 43 q 691 1 715 11 q 643 -8 667 -8 q 603 1 622 -8 q 574 32 585 10 l 383 401 l 292 401 l 292 67 q 258 17 292 33 q 183 0 224 0 q 109 17 143 0 q 75 67 75 33 l 75 950 m 292 826 l 292 568 l 429 568 q 521 596 488 568 q 554 697 554 624 q 521 799 554 771 q 429 826 488 826 l 292 826 z "},"Ŕ":{"ha":811,"x_min":75,"x_max":779,"o":"m 75 950 q 93 996 75 976 q 142 1015 111 1015 l 429 1015 q 563 1001 500 1015 q 672 951 625 986 q 744 860 718 917 q 771 718 771 803 q 723 533 771 601 q 603 436 675 464 l 772 129 q 779 104 779 118 q 767 63 779 83 q 735 27 754 43 q 691 1 715 11 q 643 -8 667 -8 q 603 1 622 -8 q 574 32 585 10 l 383 401 l 292 401 l 292 67 q 258 17 292 33 q 183 0 224 0 q 109 17 143 0 q 75 67 75 33 l 75 950 m 292 826 l 292 568 l 429 568 q 521 596 488 568 q 554 697 554 624 q 521 799 554 771 q 429 826 488 826 l 292 826 m 388 1114 q 367 1108 374 1108 q 321 1135 339 1108 q 303 1189 303 1161 q 331 1238 303 1224 l 525 1328 q 544 1332 535 1332 q 570 1324 558 1332 q 591 1305 582 1317 q 605 1279 600 1293 q 610 1251 610 1265 q 603 1224 610 1236 q 582 1204 597 1211 l 388 1114 z "},"Ř":{"ha":811,"x_min":75,"x_max":779,"o":"m 75 950 q 93 996 75 976 q 142 1015 111 1015 l 429 1015 q 563 1001 500 1015 q 672 951 625 986 q 744 860 718 917 q 771 718 771 803 q 723 533 771 601 q 603 436 675 464 l 772 129 q 779 104 779 118 q 767 63 779 83 q 735 27 754 43 q 691 1 715 11 q 643 -8 667 -8 q 603 1 622 -8 q 574 32 585 10 l 383 401 l 292 401 l 292 67 q 258 17 292 33 q 183 0 224 0 q 109 17 143 0 q 75 67 75 33 l 75 950 m 292 826 l 292 568 l 429 568 q 521 596 488 568 q 554 697 554 624 q 521 799 554 771 q 429 826 488 826 l 292 826 m 381 1267 l 525 1344 q 540 1349 533 1349 q 572 1328 560 1349 q 583 1285 583 1308 q 576 1251 583 1267 q 549 1224 568 1235 l 404 1146 q 381 1139 390 1139 q 357 1146 371 1139 l 213 1224 q 185 1251 193 1235 q 178 1285 178 1267 q 190 1328 178 1308 q 221 1349 201 1349 q 236 1344 228 1349 l 381 1267 z "},"Ŗ":{"ha":811,"x_min":75,"x_max":779,"o":"m 75 950 q 93 996 75 976 q 142 1015 111 1015 l 429 1015 q 563 1001 500 1015 q 672 951 625 986 q 744 860 718 917 q 771 718 771 803 q 723 533 771 601 q 603 436 675 464 l 772 129 q 779 104 779 118 q 767 63 779 83 q 735 27 754 43 q 691 1 715 11 q 643 -8 667 -8 q 603 1 622 -8 q 574 32 585 10 l 383 401 l 292 401 l 292 67 q 258 17 292 33 q 183 0 224 0 q 109 17 143 0 q 75 67 75 33 l 75 950 m 292 826 l 292 568 l 429 568 q 521 596 488 568 q 554 697 554 624 q 521 799 554 771 q 429 826 488 826 l 292 826 m 339 -285 q 318 -290 325 -290 q 272 -264 290 -290 q 254 -210 254 -237 q 282 -161 254 -175 l 476 -71 q 496 -67 486 -67 q 522 -74 510 -67 q 542 -94 533 -82 q 556 -119 551 -106 q 561 -147 561 -133 q 555 -175 561 -162 q 533 -194 549 -187 l 339 -285 z "},"S":{"ha":740,"x_min":26,"x_max":708,"o":"m 357 181 q 405 185 381 181 q 449 201 429 190 q 480 230 468 213 q 492 272 492 247 q 459 342 492 314 q 378 395 426 371 q 272 445 329 419 q 165 508 214 471 q 84 600 117 546 q 51 736 51 654 q 83 869 51 814 q 164 958 114 924 q 278 1008 214 992 q 407 1024 342 1024 q 481 1019 435 1024 q 573 1003 528 1015 q 651 966 618 990 q 683 901 683 942 q 678 868 683 888 q 663 831 674 849 q 636 800 653 813 q 597 788 619 788 q 562 796 578 788 q 526 814 546 804 q 478 832 506 824 q 407 840 450 840 q 300 815 332 840 q 268 757 268 789 q 301 699 268 722 q 382 653 333 675 q 488 605 431 631 q 594 539 546 579 q 676 440 643 499 q 708 294 708 382 q 683 162 708 219 q 610 65 657 104 q 500 6 564 26 q 361 -14 436 -14 q 232 1 293 -14 q 125 42 171 17 q 53 99 79 67 q 26 167 26 132 q 34 205 26 185 q 54 242 42 225 q 84 272 67 260 q 121 283 101 283 q 167 267 146 283 q 215 232 189 251 q 274 197 240 213 q 357 181 308 181 z "},"Ś":{"ha":740,"x_min":26,"x_max":708,"o":"m 357 181 q 405 185 381 181 q 449 201 429 190 q 480 230 468 213 q 492 272 492 247 q 459 342 492 314 q 378 395 426 371 q 272 445 329 419 q 165 508 214 471 q 84 600 117 546 q 51 736 51 654 q 83 869 51 814 q 164 958 114 924 q 278 1008 214 992 q 407 1024 342 1024 q 481 1019 435 1024 q 573 1003 528 1015 q 651 966 618 990 q 683 901 683 942 q 678 868 683 888 q 663 831 674 849 q 636 800 653 813 q 597 788 619 788 q 562 796 578 788 q 526 814 546 804 q 478 832 506 824 q 407 840 450 840 q 300 815 332 840 q 268 757 268 789 q 301 699 268 722 q 382 653 333 675 q 488 605 431 631 q 594 539 546 579 q 676 440 643 499 q 708 294 708 382 q 683 162 708 219 q 610 65 657 104 q 500 6 564 26 q 361 -14 436 -14 q 232 1 293 -14 q 125 42 171 17 q 53 99 79 67 q 26 167 26 132 q 34 205 26 185 q 54 242 42 225 q 84 272 67 260 q 121 283 101 283 q 167 267 146 283 q 215 232 189 251 q 274 197 240 213 q 357 181 308 181 m 332 1114 q 311 1108 318 1108 q 265 1135 283 1108 q 247 1189 247 1161 q 275 1238 247 1224 l 469 1328 q 489 1332 479 1332 q 515 1324 503 1332 q 535 1305 526 1317 q 549 1279 544 1293 q 554 1251 554 1265 q 548 1224 554 1236 q 526 1204 542 1211 l 332 1114 z "},"Š":{"ha":740,"x_min":26,"x_max":708,"o":"m 357 181 q 405 185 381 181 q 449 201 429 190 q 480 230 468 213 q 492 272 492 247 q 459 342 492 314 q 378 395 426 371 q 272 445 329 419 q 165 508 214 471 q 84 600 117 546 q 51 736 51 654 q 83 869 51 814 q 164 958 114 924 q 278 1008 214 992 q 407 1024 342 1024 q 481 1019 435 1024 q 573 1003 528 1015 q 651 966 618 990 q 683 901 683 942 q 678 868 683 888 q 663 831 674 849 q 636 800 653 813 q 597 788 619 788 q 562 796 578 788 q 526 814 546 804 q 478 832 506 824 q 407 840 450 840 q 300 815 332 840 q 268 757 268 789 q 301 699 268 722 q 382 653 333 675 q 488 605 431 631 q 594 539 546 579 q 676 440 643 499 q 708 294 708 382 q 683 162 708 219 q 610 65 657 104 q 500 6 564 26 q 361 -14 436 -14 q 232 1 293 -14 q 125 42 171 17 q 53 99 79 67 q 26 167 26 132 q 34 205 26 185 q 54 242 42 225 q 84 272 67 260 q 121 283 101 283 q 167 267 146 283 q 215 232 189 251 q 274 197 240 213 q 357 181 308 181 m 368 1267 l 513 1344 q 528 1349 521 1349 q 559 1328 547 1349 q 571 1285 571 1308 q 563 1251 571 1267 q 536 1224 556 1235 l 392 1146 q 368 1139 378 1139 q 344 1146 358 1139 l 200 1224 q 173 1251 181 1235 q 165 1285 165 1267 q 177 1328 165 1308 q 208 1349 189 1349 q 224 1344 215 1349 l 368 1267 z "},"Ş":{"ha":740,"x_min":26,"x_max":708,"o":"m 357 181 q 405 185 381 181 q 449 201 429 190 q 480 230 468 213 q 492 272 492 247 q 459 342 492 314 q 378 395 426 371 q 272 445 329 419 q 165 508 214 471 q 84 600 117 546 q 51 736 51 654 q 83 869 51 814 q 164 958 114 924 q 278 1008 214 992 q 407 1024 342 1024 q 481 1019 435 1024 q 573 1003 528 1015 q 651 966 618 990 q 683 901 683 942 q 678 868 683 888 q 663 831 674 849 q 636 800 653 813 q 597 788 619 788 q 562 796 578 788 q 526 814 546 804 q 478 832 506 824 q 407 840 450 840 q 300 815 332 840 q 268 757 268 789 q 301 699 268 722 q 382 653 333 675 q 488 605 431 631 q 594 539 546 579 q 676 440 643 499 q 708 294 708 382 q 688 176 708 228 q 631 85 668 124 q 544 24 594 47 q 431 -8 493 0 l 413 -65 q 517 -99 483 -68 q 551 -175 551 -131 q 544 -215 551 -193 q 520 -258 538 -237 q 473 -291 503 -278 q 397 -304 443 -304 q 356 -301 378 -304 q 317 -294 335 -299 q 287 -281 299 -289 q 275 -261 275 -272 q 277 -247 275 -257 q 283 -228 279 -237 q 294 -210 288 -218 q 311 -203 301 -203 q 341 -212 324 -203 q 392 -222 358 -222 q 438 -212 419 -222 q 456 -179 456 -201 q 442 -148 456 -161 q 396 -132 428 -135 l 310 -124 l 342 -14 q 219 3 276 -12 q 119 44 161 19 q 51 101 76 69 q 26 167 26 133 q 34 205 26 185 q 54 242 42 225 q 84 272 67 260 q 121 283 101 283 q 167 267 146 283 q 215 232 189 251 q 274 197 240 213 q 357 181 308 181 z "},"Ŝ":{"ha":740,"x_min":26,"x_max":708,"o":"m 357 181 q 405 185 381 181 q 449 201 429 190 q 480 230 468 213 q 492 272 492 247 q 459 342 492 314 q 378 395 426 371 q 272 445 329 419 q 165 508 214 471 q 84 600 117 546 q 51 736 51 654 q 83 869 51 814 q 164 958 114 924 q 278 1008 214 992 q 407 1024 342 1024 q 481 1019 435 1024 q 573 1003 528 1015 q 651 966 618 990 q 683 901 683 942 q 678 868 683 888 q 663 831 674 849 q 636 800 653 813 q 597 788 619 788 q 562 796 578 788 q 526 814 546 804 q 478 832 506 824 q 407 840 450 840 q 300 815 332 840 q 268 757 268 789 q 301 699 268 722 q 382 653 333 675 q 488 605 431 631 q 594 539 546 579 q 676 440 643 499 q 708 294 708 382 q 683 162 708 219 q 610 65 657 104 q 500 6 564 26 q 361 -14 436 -14 q 232 1 293 -14 q 125 42 171 17 q 53 99 79 67 q 26 167 26 132 q 34 205 26 185 q 54 242 42 225 q 84 272 67 260 q 121 283 101 283 q 167 267 146 283 q 215 232 189 251 q 274 197 240 213 q 357 181 308 181 m 222 1126 q 207 1122 214 1122 q 176 1142 188 1122 q 164 1186 164 1163 q 172 1220 164 1204 q 199 1247 179 1236 l 343 1325 q 367 1332 357 1332 q 390 1325 376 1332 l 535 1247 q 562 1220 554 1236 q 569 1186 569 1204 q 558 1142 569 1163 q 526 1122 546 1122 q 511 1126 519 1122 l 367 1204 l 222 1126 z "},"Ș":{"ha":740,"x_min":26,"x_max":708,"o":"m 357 181 q 405 185 381 181 q 449 201 429 190 q 480 230 468 213 q 492 272 492 247 q 459 342 492 314 q 378 395 426 371 q 272 445 329 419 q 165 508 214 471 q 84 600 117 546 q 51 736 51 654 q 83 869 51 814 q 164 958 114 924 q 278 1008 214 992 q 407 1024 342 1024 q 481 1019 435 1024 q 573 1003 528 1015 q 651 966 618 990 q 683 901 683 942 q 678 868 683 888 q 663 831 674 849 q 636 800 653 813 q 597 788 619 788 q 562 796 578 788 q 526 814 546 804 q 478 832 506 824 q 407 840 450 840 q 300 815 332 840 q 268 757 268 789 q 301 699 268 722 q 382 653 333 675 q 488 605 431 631 q 594 539 546 579 q 676 440 643 499 q 708 294 708 382 q 683 162 708 219 q 610 65 657 104 q 500 6 564 26 q 361 -14 436 -14 q 232 1 293 -14 q 125 42 171 17 q 53 99 79 67 q 26 167 26 132 q 34 205 26 185 q 54 242 42 225 q 84 272 67 260 q 121 283 101 283 q 167 267 146 283 q 215 232 189 251 q 274 197 240 213 q 357 181 308 181 m 314 -285 q 293 -290 300 -290 q 247 -264 265 -290 q 229 -210 229 -237 q 257 -161 229 -175 l 451 -71 q 471 -67 461 -67 q 497 -74 485 -67 q 517 -94 508 -82 q 531 -119 526 -106 q 536 -147 536 -133 q 530 -175 536 -162 q 508 -194 524 -187 l 314 -285 z "},"T":{"ha":753,"x_min":11,"x_max":742,"o":"m 676 1015 q 726 985 711 1015 q 742 919 742 954 q 725 850 742 879 q 676 821 708 821 l 485 821 l 485 67 q 451 17 485 33 q 376 0 417 0 q 302 17 336 0 q 268 67 268 33 l 268 821 l 76 821 q 28 850 44 821 q 11 919 11 879 q 26 985 11 954 q 76 1015 42 1015 l 676 1015 z "},"Ŧ":{"ha":753,"x_min":11,"x_max":742,"o":"m 676 1015 q 726 985 711 1015 q 742 919 742 954 q 725 850 742 879 q 676 821 708 821 l 485 821 l 485 583 l 578 583 q 617 559 604 583 q 631 507 631 535 q 617 453 631 476 q 578 431 604 431 l 485 431 l 485 67 q 451 17 485 33 q 376 0 417 0 q 302 17 336 0 q 268 67 268 33 l 268 431 l 174 431 q 134 454 147 431 q 121 507 121 478 q 134 559 121 535 q 174 583 147 583 l 268 583 l 268 821 l 76 821 q 28 850 44 821 q 11 919 11 879 q 26 985 11 954 q 76 1015 42 1015 l 676 1015 z "},"Ť":{"ha":753,"x_min":11,"x_max":742,"o":"m 676 1015 q 726 985 711 1015 q 742 919 742 954 q 725 850 742 879 q 676 821 708 821 l 485 821 l 485 67 q 451 17 485 33 q 376 0 417 0 q 302 17 336 0 q 268 67 268 33 l 268 821 l 76 821 q 28 850 44 821 q 11 919 11 879 q 26 985 11 954 q 76 1015 42 1015 l 676 1015 m 375 1267 l 519 1344 q 535 1349 528 1349 q 566 1328 554 1349 q 578 1285 578 1308 q 570 1251 578 1267 q 543 1224 563 1235 l 399 1146 q 375 1139 385 1139 q 351 1146 365 1139 l 207 1224 q 180 1251 188 1235 q 172 1285 172 1267 q 184 1328 172 1308 q 215 1349 196 1349 q 231 1344 222 1349 l 375 1267 z "},"Ţ":{"ha":753,"x_min":11,"x_max":742,"o":"m 676 1015 q 726 985 711 1015 q 742 919 742 954 q 725 850 742 879 q 676 821 708 821 l 485 821 l 485 67 q 451 17 485 33 q 376 0 417 0 q 302 17 336 0 q 268 67 268 33 l 268 821 l 76 821 q 28 850 44 821 q 11 919 11 879 q 26 985 11 954 q 76 1015 42 1015 l 676 1015 m 303 -285 q 282 -290 289 -290 q 236 -264 254 -290 q 218 -210 218 -237 q 246 -161 218 -175 l 440 -71 q 460 -67 450 -67 q 485 -74 474 -67 q 506 -94 497 -82 q 520 -119 515 -106 q 525 -147 525 -133 q 519 -175 525 -162 q 497 -194 513 -187 l 303 -285 z "},"Þ":{"ha":735,"x_min":75,"x_max":713,"o":"m 178 1039 q 258 1021 226 1039 q 290 974 290 1003 l 290 760 q 358 833 313 800 q 464 865 403 865 q 562 842 517 865 q 640 780 607 819 q 693 687 674 740 q 713 574 713 633 l 713 476 q 693 365 713 418 q 640 272 674 313 q 563 206 607 231 q 471 182 519 182 q 412 191 440 182 q 360 216 383 200 q 318 252 336 232 q 290 293 300 272 l 290 67 q 258 21 290 42 q 181 0 226 0 q 105 21 135 0 q 75 67 75 42 l 75 974 q 105 1021 75 1003 q 178 1039 135 1039 m 497 574 q 467 646 497 614 q 392 678 436 678 q 322 650 354 678 q 290 574 290 622 l 290 458 q 298 435 290 450 q 319 405 306 419 q 352 380 333 390 q 394 369 371 369 q 433 378 415 369 q 466 403 451 388 q 489 437 481 418 q 497 476 497 456 l 497 574 z "},"U":{"ha":842,"x_min":71,"x_max":771,"o":"m 554 950 q 588 1000 554 985 q 663 1015 621 1015 q 701 1012 682 1015 q 736 1000 721 1008 q 761 979 751 992 q 771 950 771 967 l 771 319 q 744 167 771 229 q 669 66 717 106 q 558 9 622 26 q 421 -8 494 -8 q 283 9 347 -8 q 172 66 219 26 q 98 167 125 106 q 71 319 71 229 l 71 950 q 104 1000 71 985 q 179 1015 138 1015 q 218 1012 199 1015 q 253 1000 238 1008 q 278 979 268 992 q 288 950 288 967 l 288 319 q 323 215 288 249 q 421 181 358 181 q 519 215 483 181 q 554 319 554 249 l 554 950 z "},"Ú":{"ha":842,"x_min":71,"x_max":771,"o":"m 554 950 q 588 1000 554 985 q 663 1015 621 1015 q 701 1012 682 1015 q 736 1000 721 1008 q 761 979 751 992 q 771 950 771 967 l 771 319 q 744 167 771 229 q 669 66 717 106 q 558 9 622 26 q 421 -8 494 -8 q 283 9 347 -8 q 172 66 219 26 q 98 167 125 106 q 71 319 71 229 l 71 950 q 104 1000 71 985 q 179 1015 138 1015 q 218 1012 199 1015 q 253 1000 238 1008 q 278 979 268 992 q 288 950 288 967 l 288 319 q 323 215 288 249 q 421 181 358 181 q 519 215 483 181 q 554 319 554 249 l 554 950 m 390 1114 q 369 1108 376 1108 q 324 1135 342 1108 q 306 1189 306 1161 q 333 1238 306 1224 l 528 1328 q 547 1332 538 1332 q 573 1324 561 1332 q 594 1305 585 1317 q 608 1279 603 1293 q 613 1251 613 1265 q 606 1224 613 1236 q 585 1204 600 1211 l 390 1114 z "},"Ŭ":{"ha":842,"x_min":71,"x_max":771,"o":"m 554 950 q 588 1000 554 985 q 663 1015 621 1015 q 701 1012 682 1015 q 736 1000 721 1008 q 761 979 751 992 q 771 950 771 967 l 771 319 q 744 167 771 229 q 669 66 717 106 q 558 9 622 26 q 421 -8 494 -8 q 283 9 347 -8 q 172 66 219 26 q 98 167 125 106 q 71 319 71 229 l 71 950 q 104 1000 71 985 q 179 1015 138 1015 q 218 1012 199 1015 q 253 1000 238 1008 q 278 979 268 992 q 288 950 288 967 l 288 319 q 323 215 288 249 q 421 181 358 181 q 519 215 483 181 q 554 319 554 249 l 554 950 m 608 1338 q 592 1264 608 1299 q 549 1203 576 1229 q 488 1160 522 1176 q 415 1144 453 1144 q 342 1160 378 1144 q 280 1203 307 1176 q 237 1264 253 1229 q 221 1338 221 1299 l 332 1338 q 358 1265 332 1293 q 415 1236 385 1236 q 471 1265 444 1236 q 497 1338 497 1293 l 608 1338 z "},"Û":{"ha":842,"x_min":71,"x_max":771,"o":"m 554 950 q 588 1000 554 985 q 663 1015 621 1015 q 701 1012 682 1015 q 736 1000 721 1008 q 761 979 751 992 q 771 950 771 967 l 771 319 q 744 167 771 229 q 669 66 717 106 q 558 9 622 26 q 421 -8 494 -8 q 283 9 347 -8 q 172 66 219 26 q 98 167 125 106 q 71 319 71 229 l 71 950 q 104 1000 71 985 q 179 1015 138 1015 q 218 1012 199 1015 q 253 1000 238 1008 q 278 979 268 992 q 288 950 288 967 l 288 319 q 323 215 288 249 q 421 181 358 181 q 519 215 483 181 q 554 319 554 249 l 554 950 m 267 1126 q 251 1122 258 1122 q 220 1142 232 1122 q 208 1186 208 1163 q 216 1220 208 1204 q 243 1247 224 1236 l 388 1325 q 411 1332 401 1332 q 435 1325 421 1332 l 579 1247 q 606 1220 599 1236 q 614 1186 614 1204 q 602 1142 614 1163 q 571 1122 590 1122 q 556 1126 564 1122 l 411 1204 l 267 1126 z "},"Ü":{"ha":842,"x_min":71,"x_max":771,"o":"m 554 950 q 588 1000 554 985 q 663 1015 621 1015 q 701 1012 682 1015 q 736 1000 721 1008 q 761 979 751 992 q 771 950 771 967 l 771 319 q 744 167 771 229 q 669 66 717 106 q 558 9 622 26 q 421 -8 494 -8 q 283 9 347 -8 q 172 66 219 26 q 98 167 125 106 q 71 319 71 229 l 71 950 q 104 1000 71 985 q 179 1015 138 1015 q 218 1012 199 1015 q 253 1000 238 1008 q 278 979 268 992 q 288 950 288 967 l 288 319 q 323 215 288 249 q 421 181 358 181 q 519 215 483 181 q 554 319 554 249 l 554 950 m 310 1288 q 365 1263 342 1288 q 388 1207 388 1239 q 365 1150 388 1175 q 310 1125 342 1125 q 254 1150 278 1125 q 231 1207 231 1175 q 254 1263 231 1239 q 310 1288 278 1288 m 532 1288 q 587 1263 564 1288 q 610 1207 610 1239 q 587 1150 610 1175 q 532 1125 564 1125 q 476 1150 500 1125 q 453 1207 453 1175 q 476 1263 453 1239 q 532 1288 500 1288 z "},"Ù":{"ha":842,"x_min":71,"x_max":771,"o":"m 554 950 q 588 1000 554 985 q 663 1015 621 1015 q 701 1012 682 1015 q 736 1000 721 1008 q 761 979 751 992 q 771 950 771 967 l 771 319 q 744 167 771 229 q 669 66 717 106 q 558 9 622 26 q 421 -8 494 -8 q 283 9 347 -8 q 172 66 219 26 q 98 167 125 106 q 71 319 71 229 l 71 950 q 104 1000 71 985 q 179 1015 138 1015 q 218 1012 199 1015 q 253 1000 238 1008 q 278 979 268 992 q 288 950 288 967 l 288 319 q 323 215 288 249 q 421 181 358 181 q 519 215 483 181 q 554 319 554 249 l 554 950 m 264 1204 q 242 1224 249 1211 q 236 1251 236 1236 q 241 1279 236 1265 q 255 1305 246 1293 q 276 1324 264 1317 q 301 1332 288 1332 q 321 1328 310 1332 l 515 1238 q 543 1189 543 1224 q 525 1135 543 1161 q 479 1108 507 1108 q 458 1114 472 1108 l 264 1204 z "},"Ű":{"ha":842,"x_min":71,"x_max":771,"o":"m 554 950 q 588 1000 554 985 q 663 1015 621 1015 q 701 1012 682 1015 q 736 1000 721 1008 q 761 979 751 992 q 771 950 771 967 l 771 319 q 744 167 771 229 q 669 66 717 106 q 558 9 622 26 q 421 -8 494 -8 q 283 9 347 -8 q 172 66 219 26 q 98 167 125 106 q 71 319 71 229 l 71 950 q 104 1000 71 985 q 179 1015 138 1015 q 218 1012 199 1015 q 253 1000 238 1008 q 278 979 268 992 q 288 950 288 967 l 288 319 q 323 215 288 249 q 421 181 358 181 q 519 215 483 181 q 554 319 554 249 l 554 950 m 326 1119 q 297 1104 315 1104 q 253 1124 274 1104 q 233 1165 233 1144 q 243 1189 233 1178 l 353 1321 q 367 1332 360 1329 q 383 1335 375 1335 q 425 1315 406 1335 q 444 1275 444 1294 q 436 1251 444 1261 l 326 1119 m 549 1119 q 519 1104 538 1104 q 476 1124 496 1104 q 456 1165 456 1144 q 465 1189 456 1178 l 575 1321 q 590 1332 582 1329 q 606 1335 597 1335 q 647 1315 628 1335 q 667 1275 667 1294 q 658 1251 667 1261 l 549 1119 z "},"Ū":{"ha":842,"x_min":71,"x_max":771,"o":"m 554 950 q 588 1000 554 985 q 663 1015 621 1015 q 701 1012 682 1015 q 736 1000 721 1008 q 761 979 751 992 q 771 950 771 967 l 771 319 q 744 167 771 229 q 669 66 717 106 q 558 9 622 26 q 421 -8 494 -8 q 283 9 347 -8 q 172 66 219 26 q 98 167 125 106 q 71 319 71 229 l 71 950 q 104 1000 71 985 q 179 1015 138 1015 q 218 1012 199 1015 q 253 1000 238 1008 q 278 979 268 992 q 288 950 288 967 l 288 319 q 323 215 288 249 q 421 181 358 181 q 519 215 483 181 q 554 319 554 249 l 554 950 m 213 1233 q 231 1283 213 1263 q 278 1303 249 1303 l 556 1303 q 601 1283 581 1303 q 622 1233 622 1263 q 601 1184 622 1203 q 556 1165 581 1165 l 278 1165 q 231 1184 249 1165 q 213 1233 213 1203 z "},"Ų":{"ha":842,"x_min":71,"x_max":771,"o":"m 539 -215 q 566 -231 558 -215 q 574 -262 574 -247 q 566 -290 574 -278 q 531 -303 558 -303 q 398 -263 439 -303 q 357 -168 357 -224 q 376 -85 357 -128 q 431 -8 394 -43 l 421 -8 q 283 9 347 -8 q 172 66 219 26 q 98 167 125 106 q 71 319 71 229 l 71 950 q 104 1000 71 985 q 179 1015 138 1015 q 218 1012 199 1015 q 253 1000 238 1008 q 278 979 268 992 q 288 950 288 967 l 288 319 q 323 215 288 249 q 421 181 358 181 q 519 215 483 181 q 554 319 554 249 l 554 950 q 588 1000 554 985 q 663 1015 621 1015 q 701 1012 682 1015 q 736 1000 721 1008 q 761 979 751 992 q 771 950 771 967 l 771 319 q 715 114 771 188 q 568 13 658 40 q 524 -19 544 0 q 490 -61 504 -39 q 467 -106 475 -83 q 458 -149 458 -128 q 476 -197 458 -178 q 539 -215 494 -215 z "},"Ů":{"ha":842,"x_min":71,"x_max":771,"o":"m 554 950 q 588 1000 554 985 q 663 1015 621 1015 q 701 1012 682 1015 q 736 1000 721 1008 q 761 979 751 992 q 771 950 771 967 l 771 319 q 744 167 771 229 q 669 66 717 106 q 558 9 622 26 q 421 -8 494 -8 q 283 9 347 -8 q 172 66 219 26 q 98 167 125 106 q 71 319 71 229 l 71 950 q 104 1000 71 985 q 179 1015 138 1015 q 218 1012 199 1015 q 253 1000 238 1008 q 278 979 268 992 q 288 950 288 967 l 288 319 q 323 215 288 249 q 421 181 358 181 q 519 215 483 181 q 554 319 554 249 l 554 950 m 418 1400 q 472 1388 446 1400 q 517 1357 497 1376 q 547 1313 536 1338 q 558 1260 558 1288 q 547 1206 558 1232 q 515 1160 535 1179 q 471 1128 496 1140 q 418 1117 446 1117 q 365 1128 390 1117 q 322 1160 340 1140 q 292 1206 303 1179 q 281 1260 281 1232 q 291 1312 281 1286 q 320 1357 301 1338 q 364 1388 339 1376 q 418 1400 389 1400 m 474 1258 q 458 1296 474 1279 q 419 1313 443 1313 q 379 1295 396 1313 q 363 1258 363 1278 q 379 1219 363 1238 q 419 1200 396 1200 q 458 1218 443 1200 q 474 1258 474 1236 z "},"Ũ":{"ha":842,"x_min":71,"x_max":771,"o":"m 554 950 q 588 1000 554 985 q 663 1015 621 1015 q 701 1012 682 1015 q 736 1000 721 1008 q 761 979 751 992 q 771 950 771 967 l 771 319 q 744 167 771 229 q 669 66 717 106 q 558 9 622 26 q 421 -8 494 -8 q 283 9 347 -8 q 172 66 219 26 q 98 167 125 106 q 71 319 71 229 l 71 950 q 104 1000 71 985 q 179 1015 138 1015 q 218 1012 199 1015 q 253 1000 238 1008 q 278 979 268 992 q 288 950 288 967 l 288 319 q 323 215 288 249 q 421 181 358 181 q 519 215 483 181 q 554 319 554 249 l 554 950 m 338 1174 q 299 1169 315 1174 q 268 1159 282 1164 q 242 1149 254 1154 q 218 1144 231 1144 q 192 1153 201 1144 q 176 1173 182 1161 q 167 1196 169 1185 q 165 1213 165 1207 q 180 1270 165 1250 q 215 1300 194 1290 q 254 1312 235 1310 q 283 1314 274 1314 q 340 1308 315 1314 q 388 1295 365 1303 q 434 1282 411 1288 q 486 1276 457 1276 q 525 1281 508 1276 q 556 1291 542 1286 q 581 1301 569 1296 q 606 1306 593 1306 q 632 1297 622 1306 q 648 1276 642 1288 q 656 1254 654 1265 q 658 1238 658 1243 q 644 1180 658 1200 q 609 1150 629 1160 q 569 1138 589 1140 q 540 1136 550 1136 q 476 1142 503 1136 q 427 1155 450 1147 q 383 1168 404 1163 q 338 1174 363 1174 z "},"V":{"ha":818,"x_min":6,"x_max":813,"o":"m 8 911 q 6 926 6 922 q 19 962 6 946 q 53 990 32 978 q 98 1008 74 1001 q 144 1015 122 1015 q 190 1006 171 1015 q 215 975 208 997 l 410 263 l 603 975 q 628 1006 610 997 q 674 1015 647 1015 q 720 1008 696 1015 q 765 990 744 1001 q 799 962 786 978 q 813 926 813 946 q 810 911 813 922 l 551 64 q 499 10 540 28 q 410 -8 458 -8 q 320 10 361 -8 q 268 64 279 28 l 8 911 z "},"W":{"ha":1278,"x_min":4,"x_max":1274,"o":"m 994 64 q 941 10 982 28 q 851 -8 900 -8 q 805 -4 828 -8 q 763 9 782 0 q 729 32 743 18 q 711 64 715 46 l 639 393 l 567 64 q 549 32 563 46 q 515 9 535 18 q 473 -4 496 0 q 426 -8 450 -8 q 379 -4 403 -8 q 336 9 356 0 q 303 32 317 18 q 283 64 289 46 l 7 911 q 4 929 4 919 q 17 963 4 947 q 51 990 31 978 q 96 1008 71 1001 q 144 1015 121 1015 q 188 1006 169 1015 q 214 975 207 997 l 425 263 l 535 732 q 572 774 542 760 q 639 789 603 789 q 706 774 675 789 q 743 732 736 760 l 853 263 l 1064 975 q 1090 1006 1071 997 q 1133 1015 1108 1015 q 1182 1008 1157 1015 q 1227 990 1207 1001 q 1260 963 1247 978 q 1274 929 1274 947 q 1271 911 1274 919 l 994 64 z "},"Ẃ":{"ha":1278,"x_min":4,"x_max":1274,"o":"m 994 64 q 941 10 982 28 q 851 -8 900 -8 q 805 -4 828 -8 q 763 9 782 0 q 729 32 743 18 q 711 64 715 46 l 639 393 l 567 64 q 549 32 563 46 q 515 9 535 18 q 473 -4 496 0 q 426 -8 450 -8 q 379 -4 403 -8 q 336 9 356 0 q 303 32 317 18 q 283 64 289 46 l 7 911 q 4 929 4 919 q 17 963 4 947 q 51 990 31 978 q 96 1008 71 1001 q 144 1015 121 1015 q 188 1006 169 1015 q 214 975 207 997 l 425 263 l 535 732 q 572 774 542 760 q 639 789 603 789 q 706 774 675 789 q 743 732 736 760 l 853 263 l 1064 975 q 1090 1006 1071 997 q 1133 1015 1108 1015 q 1182 1008 1157 1015 q 1227 990 1207 1001 q 1260 963 1247 978 q 1274 929 1274 947 q 1271 911 1274 919 l 994 64 m 599 1114 q 578 1108 585 1108 q 532 1135 550 1108 q 514 1189 514 1161 q 542 1238 514 1224 l 736 1328 q 756 1332 746 1332 q 781 1324 769 1332 q 802 1305 793 1317 q 816 1279 811 1293 q 821 1251 821 1265 q 815 1224 821 1236 q 793 1204 808 1211 l 599 1114 z "},"Ŵ":{"ha":1278,"x_min":4,"x_max":1274,"o":"m 994 64 q 941 10 982 28 q 851 -8 900 -8 q 805 -4 828 -8 q 763 9 782 0 q 729 32 743 18 q 711 64 715 46 l 639 393 l 567 64 q 549 32 563 46 q 515 9 535 18 q 473 -4 496 0 q 426 -8 450 -8 q 379 -4 403 -8 q 336 9 356 0 q 303 32 317 18 q 283 64 289 46 l 7 911 q 4 929 4 919 q 17 963 4 947 q 51 990 31 978 q 96 1008 71 1001 q 144 1015 121 1015 q 188 1006 169 1015 q 214 975 207 997 l 425 263 l 535 732 q 572 774 542 760 q 639 789 603 789 q 706 774 675 789 q 743 732 736 760 l 853 263 l 1064 975 q 1090 1006 1071 997 q 1133 1015 1108 1015 q 1182 1008 1157 1015 q 1227 990 1207 1001 q 1260 963 1247 978 q 1274 929 1274 947 q 1271 911 1274 919 l 994 64 m 494 1126 q 479 1122 486 1122 q 448 1142 460 1122 q 436 1186 436 1163 q 444 1220 436 1204 q 471 1247 451 1236 l 615 1325 q 639 1332 629 1332 q 663 1325 649 1332 l 807 1247 q 834 1220 826 1236 q 842 1186 842 1204 q 830 1142 842 1163 q 799 1122 818 1122 q 783 1126 792 1122 l 639 1204 l 494 1126 z "},"Ẅ":{"ha":1278,"x_min":4,"x_max":1274,"o":"m 994 64 q 941 10 982 28 q 851 -8 900 -8 q 805 -4 828 -8 q 763 9 782 0 q 729 32 743 18 q 711 64 715 46 l 639 393 l 567 64 q 549 32 563 46 q 515 9 535 18 q 473 -4 496 0 q 426 -8 450 -8 q 379 -4 403 -8 q 336 9 356 0 q 303 32 317 18 q 283 64 289 46 l 7 911 q 4 929 4 919 q 17 963 4 947 q 51 990 31 978 q 96 1008 71 1001 q 144 1015 121 1015 q 188 1006 169 1015 q 214 975 207 997 l 425 263 l 535 732 q 572 774 542 760 q 639 789 603 789 q 706 774 675 789 q 743 732 736 760 l 853 263 l 1064 975 q 1090 1006 1071 997 q 1133 1015 1108 1015 q 1182 1008 1157 1015 q 1227 990 1207 1001 q 1260 963 1247 978 q 1274 929 1274 947 q 1271 911 1274 919 l 994 64 m 529 1288 q 584 1263 561 1288 q 607 1207 607 1239 q 584 1150 607 1175 q 529 1125 561 1125 q 474 1150 497 1125 q 450 1207 450 1175 q 474 1263 450 1239 q 529 1288 497 1288 m 751 1288 q 806 1263 783 1288 q 829 1207 829 1239 q 806 1150 829 1175 q 751 1125 783 1125 q 696 1150 719 1125 q 672 1207 672 1175 q 696 1263 672 1239 q 751 1288 719 1288 z "},"Ẁ":{"ha":1278,"x_min":4,"x_max":1274,"o":"m 994 64 q 941 10 982 28 q 851 -8 900 -8 q 805 -4 828 -8 q 763 9 782 0 q 729 32 743 18 q 711 64 715 46 l 639 393 l 567 64 q 549 32 563 46 q 515 9 535 18 q 473 -4 496 0 q 426 -8 450 -8 q 379 -4 403 -8 q 336 9 356 0 q 303 32 317 18 q 283 64 289 46 l 7 911 q 4 929 4 919 q 17 963 4 947 q 51 990 31 978 q 96 1008 71 1001 q 144 1015 121 1015 q 188 1006 169 1015 q 214 975 207 997 l 425 263 l 535 732 q 572 774 542 760 q 639 789 603 789 q 706 774 675 789 q 743 732 736 760 l 853 263 l 1064 975 q 1090 1006 1071 997 q 1133 1015 1108 1015 q 1182 1008 1157 1015 q 1227 990 1207 1001 q 1260 963 1247 978 q 1274 929 1274 947 q 1271 911 1274 919 l 994 64 m 486 1204 q 465 1224 471 1211 q 458 1251 458 1236 q 463 1279 458 1265 q 477 1305 468 1293 q 498 1324 486 1317 q 524 1332 510 1332 q 543 1328 532 1332 l 738 1238 q 765 1189 765 1224 q 747 1135 765 1161 q 701 1108 729 1108 q 681 1114 694 1108 l 486 1204 z "},"X":{"ha":819,"x_min":11,"x_max":808,"o":"m 410 358 l 207 14 q 186 -3 200 3 q 156 -8 172 -8 q 108 0 133 -8 q 60 23 82 8 q 25 57 39 38 q 11 99 11 76 q 24 138 11 117 l 264 508 l 33 878 q 19 921 19 900 q 33 962 19 943 q 67 994 46 981 q 112 1016 88 1008 q 160 1024 136 1024 q 225 988 206 1024 l 410 665 l 594 988 q 660 1024 614 1024 q 707 1016 682 1024 q 753 994 732 1008 q 787 962 774 981 q 800 921 800 943 q 786 878 800 900 l 556 508 l 796 138 q 808 99 808 117 q 794 57 808 76 q 759 23 781 38 q 712 0 738 8 q 664 -8 686 -8 q 633 -3 647 -8 q 613 14 619 3 l 410 358 z "},"Y":{"ha":819,"x_min":6,"x_max":813,"o":"m 301 415 q 296 435 301 426 l 8 911 q 6 926 6 917 q 20 962 6 946 q 57 990 35 978 q 105 1008 79 1001 q 153 1015 131 1015 q 192 1005 179 1015 q 215 975 204 994 l 410 618 l 603 975 q 626 1005 614 994 q 665 1015 639 1015 q 713 1008 688 1015 q 761 990 739 1001 q 798 962 783 978 q 813 926 813 946 q 810 911 813 917 l 524 435 q 518 415 518 426 l 518 67 q 484 17 518 33 q 410 0 450 0 q 335 17 369 0 q 301 67 301 33 l 301 415 z "},"Ý":{"ha":819,"x_min":6,"x_max":813,"o":"m 301 415 q 296 435 301 426 l 8 911 q 6 926 6 917 q 20 962 6 946 q 57 990 35 978 q 105 1008 79 1001 q 153 1015 131 1015 q 192 1005 179 1015 q 215 975 204 994 l 410 618 l 603 975 q 626 1005 614 994 q 665 1015 639 1015 q 713 1008 688 1015 q 761 990 739 1001 q 798 962 783 978 q 813 926 813 946 q 810 911 813 917 l 524 435 q 518 415 518 426 l 518 67 q 484 17 518 33 q 410 0 450 0 q 335 17 369 0 q 301 67 301 33 l 301 415 m 369 1114 q 349 1108 356 1108 q 303 1135 321 1108 q 285 1189 285 1161 q 313 1238 285 1224 l 507 1328 q 526 1332 517 1332 q 552 1324 540 1332 q 573 1305 564 1317 q 587 1279 582 1293 q 592 1251 592 1265 q 585 1224 592 1236 q 564 1204 579 1211 l 369 1114 z "},"Ŷ":{"ha":819,"x_min":6,"x_max":813,"o":"m 301 415 q 296 435 301 426 l 8 911 q 6 926 6 917 q 20 962 6 946 q 57 990 35 978 q 105 1008 79 1001 q 153 1015 131 1015 q 192 1005 179 1015 q 215 975 204 994 l 410 618 l 603 975 q 626 1005 614 994 q 665 1015 639 1015 q 713 1008 688 1015 q 761 990 739 1001 q 798 962 783 978 q 813 926 813 946 q 810 911 813 917 l 524 435 q 518 415 518 426 l 518 67 q 484 17 518 33 q 410 0 450 0 q 335 17 369 0 q 301 67 301 33 l 301 415 m 265 1126 q 250 1122 257 1122 q 219 1142 231 1122 q 207 1186 207 1163 q 215 1220 207 1204 q 242 1247 222 1236 l 386 1325 q 410 1332 400 1332 q 433 1325 419 1332 l 578 1247 q 605 1220 597 1236 q 613 1186 613 1204 q 601 1142 613 1163 q 569 1122 589 1122 q 554 1126 563 1122 l 410 1204 l 265 1126 z "},"Ÿ":{"ha":819,"x_min":6,"x_max":813,"o":"m 301 415 q 296 435 301 426 l 8 911 q 6 926 6 917 q 20 962 6 946 q 57 990 35 978 q 105 1008 79 1001 q 153 1015 131 1015 q 192 1005 179 1015 q 215 975 204 994 l 410 618 l 603 975 q 626 1005 614 994 q 665 1015 639 1015 q 713 1008 688 1015 q 761 990 739 1001 q 798 962 783 978 q 813 926 813 946 q 810 911 813 917 l 524 435 q 518 415 518 426 l 518 67 q 484 17 518 33 q 410 0 450 0 q 335 17 369 0 q 301 67 301 33 l 301 415 m 300 1288 q 355 1263 332 1288 q 378 1207 378 1239 q 355 1150 378 1175 q 300 1125 332 1125 q 244 1150 268 1125 q 221 1207 221 1175 q 244 1263 221 1239 q 300 1288 268 1288 m 522 1288 q 577 1263 554 1288 q 600 1207 600 1239 q 577 1150 600 1175 q 522 1125 554 1125 q 467 1150 490 1125 q 443 1207 443 1175 q 467 1263 443 1239 q 522 1288 490 1288 z "},"Ỳ":{"ha":819,"x_min":6,"x_max":813,"o":"m 301 415 q 296 435 301 426 l 8 911 q 6 926 6 917 q 20 962 6 946 q 57 990 35 978 q 105 1008 79 1001 q 153 1015 131 1015 q 192 1005 179 1015 q 215 975 204 994 l 410 618 l 603 975 q 626 1005 614 994 q 665 1015 639 1015 q 713 1008 688 1015 q 761 990 739 1001 q 798 962 783 978 q 813 926 813 946 q 810 911 813 917 l 524 435 q 518 415 518 426 l 518 67 q 484 17 518 33 q 410 0 450 0 q 335 17 369 0 q 301 67 301 33 l 301 415 m 256 1204 q 234 1224 240 1211 q 228 1251 228 1236 q 233 1279 228 1265 q 247 1305 238 1293 q 267 1324 256 1317 q 293 1332 279 1332 q 313 1328 301 1332 l 507 1238 q 535 1189 535 1224 q 517 1135 535 1161 q 471 1108 499 1108 q 450 1114 464 1108 l 256 1204 z "},"Z":{"ha":744,"x_min":13,"x_max":732,"o":"m 289 189 l 667 189 q 715 158 699 189 q 732 94 732 128 q 715 31 732 61 q 667 0 699 0 l 75 0 q 27 16 42 0 q 13 57 13 32 q 36 133 13 93 l 428 826 l 106 826 q 57 855 74 826 q 40 921 40 883 q 56 985 40 956 q 106 1015 71 1015 l 642 1015 q 689 999 674 1015 q 704 958 704 983 q 681 882 704 925 l 289 189 z "},"Ź":{"ha":744,"x_min":13,"x_max":732,"o":"m 289 189 l 667 189 q 715 158 699 189 q 732 94 732 128 q 715 31 732 61 q 667 0 699 0 l 75 0 q 27 16 42 0 q 13 57 13 32 q 36 133 13 93 l 428 826 l 106 826 q 57 855 74 826 q 40 921 40 883 q 56 985 40 956 q 106 1015 71 1015 l 642 1015 q 689 999 674 1015 q 704 958 704 983 q 681 882 704 925 l 289 189 m 350 1114 q 329 1108 336 1108 q 283 1135 301 1108 q 265 1189 265 1161 q 293 1238 265 1224 l 488 1328 q 507 1332 497 1332 q 533 1324 521 1332 q 553 1305 544 1317 q 567 1279 563 1293 q 572 1251 572 1265 q 566 1224 572 1236 q 544 1204 560 1211 l 350 1114 z "},"Ž":{"ha":744,"x_min":13,"x_max":732,"o":"m 289 189 l 667 189 q 715 158 699 189 q 732 94 732 128 q 715 31 732 61 q 667 0 699 0 l 75 0 q 27 16 42 0 q 13 57 13 32 q 36 133 13 93 l 428 826 l 106 826 q 57 855 74 826 q 40 921 40 883 q 56 985 40 956 q 106 1015 71 1015 l 642 1015 q 689 999 674 1015 q 704 958 704 983 q 681 882 704 925 l 289 189 m 381 1267 l 525 1344 q 540 1349 533 1349 q 572 1328 560 1349 q 583 1285 583 1308 q 576 1251 583 1267 q 549 1224 568 1235 l 404 1146 q 381 1139 390 1139 q 357 1146 371 1139 l 213 1224 q 185 1251 193 1235 q 178 1285 178 1267 q 190 1328 178 1308 q 221 1349 201 1349 q 236 1344 228 1349 l 381 1267 z "},"Ż":{"ha":744,"x_min":13,"x_max":732,"o":"m 289 189 l 667 189 q 715 158 699 189 q 732 94 732 128 q 715 31 732 61 q 667 0 699 0 l 75 0 q 27 16 42 0 q 13 57 13 32 q 36 133 13 93 l 428 826 l 106 826 q 57 855 74 826 q 40 921 40 883 q 56 985 40 956 q 106 1015 71 1015 l 642 1015 q 689 999 674 1015 q 704 958 704 983 q 681 882 704 925 l 289 189 m 393 1288 q 448 1263 425 1288 q 471 1207 471 1239 q 448 1150 471 1175 q 393 1125 425 1125 q 338 1150 361 1125 q 314 1207 314 1175 q 338 1263 314 1239 q 393 1288 361 1288 z "},"a":{"ha":672,"x_min":25,"x_max":615,"o":"m 299 669 q 444 647 383 669 q 542 586 504 624 q 598 499 581 549 q 615 397 615 450 l 615 67 q 585 19 615 39 q 510 0 556 0 q 442 19 469 0 q 414 67 414 39 l 414 97 q 326 19 376 53 q 203 -14 275 -14 q 135 -3 167 -14 q 78 31 103 8 q 40 89 54 54 q 25 171 25 124 q 49 272 25 232 q 115 337 72 313 q 218 371 158 361 q 350 381 278 381 l 400 381 l 400 394 q 395 431 400 413 q 378 463 390 449 q 345 488 365 478 q 296 497 325 497 q 228 490 253 497 q 186 474 203 483 q 158 458 169 465 q 133 451 147 451 q 102 461 115 451 q 80 486 89 471 q 66 520 71 501 q 61 558 61 539 q 84 603 61 583 q 142 638 107 624 q 218 661 176 653 q 299 669 260 669 m 400 276 l 394 276 q 338 274 365 276 q 288 264 310 272 q 254 241 267 256 q 242 201 242 226 q 257 157 242 171 q 296 143 272 143 q 331 153 313 143 q 364 180 349 163 q 390 221 379 197 q 400 271 400 244 l 400 276 z "},"á":{"ha":672,"x_min":25,"x_max":615,"o":"m 299 669 q 444 647 383 669 q 542 586 504 624 q 598 499 581 549 q 615 397 615 450 l 615 67 q 585 19 615 39 q 510 0 556 0 q 442 19 469 0 q 414 67 414 39 l 414 97 q 326 19 376 53 q 203 -14 275 -14 q 135 -3 167 -14 q 78 31 103 8 q 40 89 54 54 q 25 171 25 124 q 49 272 25 232 q 115 337 72 313 q 218 371 158 361 q 350 381 278 381 l 400 381 l 400 394 q 395 431 400 413 q 378 463 390 449 q 345 488 365 478 q 296 497 325 497 q 228 490 253 497 q 186 474 203 483 q 158 458 169 465 q 133 451 147 451 q 102 461 115 451 q 80 486 89 471 q 66 520 71 501 q 61 558 61 539 q 84 603 61 583 q 142 638 107 624 q 218 661 176 653 q 299 669 260 669 m 400 276 l 394 276 q 338 274 365 276 q 288 264 310 272 q 254 241 267 256 q 242 201 242 226 q 257 157 242 171 q 296 143 272 143 q 331 153 313 143 q 364 180 349 163 q 390 221 379 197 q 400 271 400 244 l 400 276 m 286 782 q 265 776 272 776 q 219 803 238 776 q 201 857 201 829 q 229 906 201 892 l 424 996 q 443 1000 433 1000 q 469 992 457 1000 q 490 973 481 985 q 503 947 499 961 q 508 919 508 933 q 502 892 508 904 q 481 872 496 879 l 286 782 z "},"ă":{"ha":672,"x_min":25,"x_max":615,"o":"m 518 1006 q 502 932 518 967 q 459 871 486 897 q 397 828 432 844 q 325 813 363 813 q 252 828 288 813 q 190 871 217 844 q 147 932 163 897 q 131 1006 131 967 l 242 1006 q 268 933 242 961 q 325 904 294 904 q 381 933 354 904 q 407 1006 407 961 l 518 1006 m 299 669 q 444 647 383 669 q 542 586 504 624 q 598 499 581 549 q 615 397 615 450 l 615 67 q 585 19 615 39 q 510 0 556 0 q 442 19 469 0 q 414 67 414 39 l 414 97 q 326 19 376 53 q 203 -14 275 -14 q 135 -3 167 -14 q 78 31 103 8 q 40 89 54 54 q 25 171 25 124 q 49 272 25 232 q 115 337 72 313 q 218 371 158 361 q 350 381 278 381 l 400 381 l 400 394 q 395 431 400 413 q 378 463 390 449 q 345 488 365 478 q 296 497 325 497 q 228 490 253 497 q 186 474 203 483 q 158 458 169 465 q 133 451 147 451 q 102 461 115 451 q 80 486 89 471 q 66 520 71 501 q 61 558 61 539 q 84 603 61 583 q 142 638 107 624 q 218 661 176 653 q 299 669 260 669 m 400 276 l 394 276 q 338 274 365 276 q 288 264 310 272 q 254 241 267 256 q 242 201 242 226 q 257 157 242 171 q 296 143 272 143 q 331 153 313 143 q 364 180 349 163 q 390 221 379 197 q 400 271 400 244 l 400 276 z "},"â":{"ha":672,"x_min":25,"x_max":615,"o":"m 169 794 q 154 790 161 790 q 123 810 135 790 q 111 854 111 831 q 119 888 111 872 q 146 915 126 904 l 290 993 q 314 1000 304 1000 q 338 993 324 1000 l 482 915 q 509 888 501 904 q 517 854 517 872 q 505 810 517 831 q 474 790 493 790 q 458 794 467 790 l 314 872 l 169 794 m 299 669 q 444 647 383 669 q 542 586 504 624 q 598 499 581 549 q 615 397 615 450 l 615 67 q 585 19 615 39 q 510 0 556 0 q 442 19 469 0 q 414 67 414 39 l 414 97 q 326 19 376 53 q 203 -14 275 -14 q 135 -3 167 -14 q 78 31 103 8 q 40 89 54 54 q 25 171 25 124 q 49 272 25 232 q 115 337 72 313 q 218 371 158 361 q 350 381 278 381 l 400 381 l 400 394 q 395 431 400 413 q 378 463 390 449 q 345 488 365 478 q 296 497 325 497 q 228 490 253 497 q 186 474 203 483 q 158 458 169 465 q 133 451 147 451 q 102 461 115 451 q 80 486 89 471 q 66 520 71 501 q 61 558 61 539 q 84 603 61 583 q 142 638 107 624 q 218 661 176 653 q 299 669 260 669 m 400 276 l 394 276 q 338 274 365 276 q 288 264 310 272 q 254 241 267 256 q 242 201 242 226 q 257 157 242 171 q 296 143 272 143 q 331 153 313 143 q 364 180 349 163 q 390 221 379 197 q 400 271 400 244 l 400 276 z "},"´":{"ha":307,"x_min":0,"x_max":307,"o":"m 85 782 q 64 776 71 776 q 18 803 36 776 q 0 857 0 829 q 28 906 0 892 l 222 996 q 242 1000 232 1000 q 267 992 256 1000 q 288 973 279 985 q 302 947 297 961 q 307 919 307 933 q 301 892 307 904 q 279 872 294 879 l 85 782 z "},"ä":{"ha":672,"x_min":25,"x_max":615,"o":"m 214 956 q 269 931 246 956 q 292 875 292 907 q 269 818 292 843 q 214 793 246 793 q 158 818 182 793 q 135 875 135 843 q 158 931 135 907 q 214 956 182 956 m 436 956 q 491 931 468 956 q 514 875 514 907 q 491 818 514 843 q 436 793 468 793 q 381 818 404 793 q 357 875 357 843 q 381 931 357 907 q 436 956 404 956 m 299 669 q 444 647 383 669 q 542 586 504 624 q 598 499 581 549 q 615 397 615 450 l 615 67 q 585 19 615 39 q 510 0 556 0 q 442 19 469 0 q 414 67 414 39 l 414 97 q 326 19 376 53 q 203 -14 275 -14 q 135 -3 167 -14 q 78 31 103 8 q 40 89 54 54 q 25 171 25 124 q 49 272 25 232 q 115 337 72 313 q 218 371 158 361 q 350 381 278 381 l 400 381 l 400 394 q 395 431 400 413 q 378 463 390 449 q 345 488 365 478 q 296 497 325 497 q 228 490 253 497 q 186 474 203 483 q 158 458 169 465 q 133 451 147 451 q 102 461 115 451 q 80 486 89 471 q 66 520 71 501 q 61 558 61 539 q 84 603 61 583 q 142 638 107 624 q 218 661 176 653 q 299 669 260 669 m 400 276 l 394 276 q 338 274 365 276 q 288 264 310 272 q 254 241 267 256 q 242 201 242 226 q 257 157 242 171 q 296 143 272 143 q 331 153 313 143 q 364 180 349 163 q 390 221 379 197 q 400 271 400 244 l 400 276 z "},"æ":{"ha":1050,"x_min":24,"x_max":1017,"o":"m 718 669 q 832 650 778 669 q 927 596 886 631 q 992 513 968 561 q 1017 406 1017 464 q 1005 333 1017 360 q 974 294 993 307 q 930 279 954 282 q 882 276 906 276 l 614 276 l 614 268 q 653 185 614 217 q 756 154 692 154 q 813 163 788 154 q 858 180 838 171 q 895 197 878 189 q 929 206 913 206 q 963 195 947 206 q 988 170 978 185 q 1003 140 997 156 q 1008 111 1008 124 q 990 69 1008 92 q 938 28 972 47 q 856 -2 904 10 q 750 -14 808 -14 q 600 20 667 -14 q 488 117 533 54 q 374 22 438 58 q 243 -14 310 -14 q 159 -3 199 -14 q 90 31 119 8 q 42 89 60 54 q 24 171 24 124 q 47 272 24 232 q 114 337 71 313 q 217 371 157 361 q 349 381 276 381 l 399 381 l 399 394 q 394 431 399 413 q 376 463 389 449 q 344 488 364 478 q 294 497 324 497 q 226 490 251 497 q 185 474 201 483 q 157 458 168 465 q 132 451 146 451 q 101 461 114 451 q 78 486 88 471 q 65 520 69 501 q 60 558 60 539 q 83 603 60 583 q 140 638 106 624 q 217 661 175 653 q 297 669 258 669 q 426 642 372 669 q 517 569 481 615 q 608 642 557 615 q 718 669 660 669 m 786 397 q 808 404 801 397 q 815 431 815 411 q 784 493 815 472 q 714 514 753 514 q 645 493 676 514 q 614 431 614 472 l 614 397 l 786 397 m 399 276 l 393 276 q 336 274 364 276 q 287 264 308 272 q 253 241 265 256 q 240 201 240 226 q 256 157 240 171 q 294 143 271 143 q 329 153 311 143 q 363 180 347 163 q 388 221 378 197 q 399 271 399 244 l 399 276 z "},"ǽ":{"ha":1050,"x_min":24,"x_max":1017,"o":"m 718 669 q 832 650 778 669 q 927 596 886 631 q 992 513 968 561 q 1017 406 1017 464 q 1005 333 1017 360 q 974 294 993 307 q 930 279 954 282 q 882 276 906 276 l 614 276 l 614 268 q 653 185 614 217 q 756 154 692 154 q 813 163 788 154 q 858 180 838 171 q 895 197 878 189 q 929 206 913 206 q 963 195 947 206 q 988 170 978 185 q 1003 140 997 156 q 1008 111 1008 124 q 990 69 1008 92 q 938 28 972 47 q 856 -2 904 10 q 750 -14 808 -14 q 600 20 667 -14 q 488 117 533 54 q 374 22 438 58 q 243 -14 310 -14 q 159 -3 199 -14 q 90 31 119 8 q 42 89 60 54 q 24 171 24 124 q 47 272 24 232 q 114 337 71 313 q 217 371 157 361 q 349 381 276 381 l 399 381 l 399 394 q 394 431 399 413 q 376 463 389 449 q 344 488 364 478 q 294 497 324 497 q 226 490 251 497 q 185 474 201 483 q 157 458 168 465 q 132 451 146 451 q 101 461 114 451 q 78 486 88 471 q 65 520 69 501 q 60 558 60 539 q 83 603 60 583 q 140 638 106 624 q 217 661 175 653 q 297 669 258 669 q 426 642 372 669 q 517 569 481 615 q 608 642 557 615 q 718 669 660 669 m 786 397 q 808 404 801 397 q 815 431 815 411 q 784 493 815 472 q 714 514 753 514 q 645 493 676 514 q 614 431 614 472 l 614 397 l 786 397 m 399 276 l 393 276 q 336 274 364 276 q 287 264 308 272 q 253 241 265 256 q 240 201 240 226 q 256 157 240 171 q 294 143 271 143 q 329 153 311 143 q 363 180 347 163 q 388 221 378 197 q 399 271 399 244 l 399 276 m 472 782 q 451 776 458 776 q 406 803 424 776 q 388 857 388 829 q 415 906 388 892 l 610 996 q 629 1000 619 1000 q 655 992 643 1000 q 676 973 667 985 q 690 947 685 961 q 694 919 694 933 q 688 892 694 904 q 667 872 682 879 l 472 782 z "},"à":{"ha":672,"x_min":25,"x_max":615,"o":"m 201 872 q 180 892 186 879 q 174 919 174 904 q 178 947 174 933 q 192 973 183 961 q 213 992 201 985 q 239 1000 225 1000 q 258 996 247 1000 l 453 906 q 481 857 481 892 q 463 803 481 829 q 417 776 444 776 q 396 782 410 776 l 201 872 m 299 669 q 444 647 383 669 q 542 586 504 624 q 598 499 581 549 q 615 397 615 450 l 615 67 q 585 19 615 39 q 510 0 556 0 q 442 19 469 0 q 414 67 414 39 l 414 97 q 326 19 376 53 q 203 -14 275 -14 q 135 -3 167 -14 q 78 31 103 8 q 40 89 54 54 q 25 171 25 124 q 49 272 25 232 q 115 337 72 313 q 218 371 158 361 q 350 381 278 381 l 400 381 l 400 394 q 395 431 400 413 q 378 463 390 449 q 345 488 365 478 q 296 497 325 497 q 228 490 253 497 q 186 474 203 483 q 158 458 169 465 q 133 451 147 451 q 102 461 115 451 q 80 486 89 471 q 66 520 71 501 q 61 558 61 539 q 84 603 61 583 q 142 638 107 624 q 218 661 176 653 q 299 669 260 669 m 400 276 l 394 276 q 338 274 365 276 q 288 264 310 272 q 254 241 267 256 q 242 201 242 226 q 257 157 242 171 q 296 143 272 143 q 331 153 313 143 q 364 180 349 163 q 390 221 379 197 q 400 271 400 244 l 400 276 z "},"ā":{"ha":672,"x_min":25,"x_max":615,"o":"m 126 901 q 144 951 126 931 q 192 971 163 971 l 469 971 q 515 951 494 971 q 536 901 536 931 q 515 852 536 871 q 469 833 494 833 l 192 833 q 144 852 163 833 q 126 901 126 871 m 299 669 q 444 647 383 669 q 542 586 504 624 q 598 499 581 549 q 615 397 615 450 l 615 67 q 585 19 615 39 q 510 0 556 0 q 442 19 469 0 q 414 67 414 39 l 414 97 q 326 19 376 53 q 203 -14 275 -14 q 135 -3 167 -14 q 78 31 103 8 q 40 89 54 54 q 25 171 25 124 q 49 272 25 232 q 115 337 72 313 q 218 371 158 361 q 350 381 278 381 l 400 381 l 400 394 q 395 431 400 413 q 378 463 390 449 q 345 488 365 478 q 296 497 325 497 q 228 490 253 497 q 186 474 203 483 q 158 458 169 465 q 133 451 147 451 q 102 461 115 451 q 80 486 89 471 q 66 520 71 501 q 61 558 61 539 q 84 603 61 583 q 142 638 107 624 q 218 661 176 653 q 299 669 260 669 m 400 276 l 394 276 q 338 274 365 276 q 288 264 310 272 q 254 241 267 256 q 242 201 242 226 q 257 157 242 171 q 296 143 272 143 q 331 153 313 143 q 364 180 349 163 q 390 221 379 197 q 400 271 400 244 l 400 276 z "},"&":{"ha":910,"x_min":25,"x_max":899,"o":"m 650 350 q 670 438 669 397 q 674 508 671 479 q 696 554 678 538 q 769 571 714 571 q 844 544 826 571 q 861 472 861 518 q 841 349 861 415 q 781 217 821 282 l 886 108 q 896 91 893 100 q 899 74 899 82 q 890 42 899 57 q 867 14 882 26 q 835 -6 853 1 q 799 -14 817 -14 q 773 -9 785 -14 q 746 11 761 -4 l 671 88 q 544 14 615 42 q 386 -14 474 -14 q 238 11 304 -14 q 124 79 171 36 q 51 178 76 122 q 25 296 25 235 q 38 384 25 342 q 74 463 51 426 q 128 530 97 500 q 192 581 158 560 q 127 670 153 624 q 101 782 101 717 q 125 891 101 843 q 190 972 149 939 q 288 1022 232 1004 q 408 1039 344 1039 q 528 1022 474 1039 q 620 980 582 1006 q 679 924 658 954 q 700 865 700 893 q 691 828 700 846 q 667 797 682 811 q 634 774 653 782 q 597 765 615 765 q 553 781 571 765 q 516 816 535 797 q 473 851 497 835 q 410 867 449 867 q 333 843 365 867 q 301 772 301 819 q 317 713 301 743 q 355 656 332 683 q 403 603 378 629 q 450 557 429 578 l 650 350 m 410 174 q 488 185 454 174 q 544 218 521 197 l 313 456 q 263 394 282 429 q 243 314 243 358 q 285 213 243 251 q 410 174 328 174 z "},"ą":{"ha":672,"x_min":25,"x_max":615,"o":"m 542 -215 q 569 -231 561 -215 q 576 -262 576 -247 q 569 -290 576 -278 q 533 -303 561 -303 q 401 -263 442 -303 q 360 -168 360 -224 q 385 -74 360 -122 q 456 11 410 -25 q 414 67 414 29 l 414 97 q 326 19 376 53 q 203 -14 275 -14 q 135 -3 167 -14 q 78 31 103 8 q 40 89 54 54 q 25 171 25 124 q 49 272 25 232 q 115 337 72 313 q 218 371 158 361 q 350 381 278 381 l 400 381 l 400 394 q 395 431 400 413 q 378 463 390 449 q 345 488 365 478 q 296 497 325 497 q 228 490 253 497 q 186 474 203 483 q 158 458 169 465 q 133 451 147 451 q 102 461 115 451 q 80 486 89 471 q 66 520 71 501 q 61 558 61 539 q 84 603 61 583 q 142 638 107 624 q 218 661 176 653 q 299 669 260 669 q 444 647 383 669 q 542 586 504 624 q 598 499 581 549 q 615 397 615 450 l 615 67 q 564 8 615 26 q 490 -63 519 -18 q 461 -149 461 -108 q 479 -197 461 -178 q 542 -215 497 -215 m 400 276 l 394 276 q 338 274 365 276 q 288 264 310 272 q 254 241 267 256 q 242 201 242 226 q 257 157 242 171 q 296 143 272 143 q 331 153 313 143 q 364 180 349 163 q 390 221 379 197 q 400 271 400 244 l 400 276 z "},"≈":{"ha":617,"x_min":63,"x_max":556,"o":"m 235 474 q 196 469 213 474 q 165 459 179 464 q 140 449 151 454 q 115 444 128 444 q 89 453 99 444 q 73 475 79 463 q 65 500 67 488 q 63 518 63 513 q 77 578 63 557 q 112 610 92 600 q 151 623 132 621 q 181 625 171 625 q 238 619 213 625 q 285 606 263 614 q 331 593 308 599 q 383 588 354 588 q 422 592 406 588 q 453 602 439 597 q 478 612 467 607 q 503 617 490 617 q 529 608 519 617 q 545 586 539 599 q 553 561 551 574 q 556 543 556 549 q 541 483 556 504 q 506 451 526 461 q 467 438 486 440 q 438 436 447 436 q 374 442 400 436 q 324 455 347 447 q 281 468 301 463 q 235 474 260 474 m 235 183 q 196 178 213 183 q 165 169 179 174 q 140 159 151 164 q 115 154 128 154 q 89 163 99 154 q 73 185 79 172 q 65 210 67 197 q 63 228 63 222 q 77 288 63 267 q 112 320 92 310 q 151 333 132 331 q 181 335 171 335 q 238 329 213 335 q 285 316 263 324 q 331 303 308 308 q 383 297 354 297 q 422 302 406 297 q 453 312 439 307 q 478 322 467 317 q 503 326 490 326 q 529 317 519 326 q 545 296 539 308 q 553 271 551 283 q 556 253 556 258 q 541 192 556 214 q 506 160 526 171 q 467 148 486 150 q 438 146 447 146 q 374 151 400 146 q 324 165 347 157 q 281 178 301 172 q 235 183 260 183 z "},"å":{"ha":672,"x_min":25,"x_max":615,"o":"m 328 1068 q 381 1056 356 1068 q 426 1025 407 1044 q 457 981 446 1006 q 468 928 468 956 q 456 874 468 900 q 425 828 444 847 q 381 797 406 808 q 328 785 356 785 q 275 797 300 785 q 231 828 250 808 q 201 874 213 847 q 190 928 190 900 q 201 980 190 954 q 230 1025 211 1006 q 274 1056 249 1044 q 328 1068 299 1068 m 383 926 q 368 964 383 947 q 329 981 353 981 q 289 963 306 981 q 272 926 272 946 q 289 887 272 906 q 329 868 306 868 q 368 886 353 868 q 383 926 383 904 m 299 669 q 444 647 383 669 q 542 586 504 624 q 598 499 581 549 q 615 397 615 450 l 615 67 q 585 19 615 39 q 510 0 556 0 q 442 19 469 0 q 414 67 414 39 l 414 97 q 326 19 376 53 q 203 -14 275 -14 q 135 -3 167 -14 q 78 31 103 8 q 40 89 54 54 q 25 171 25 124 q 49 272 25 232 q 115 337 72 313 q 218 371 158 361 q 350 381 278 381 l 400 381 l 400 394 q 395 431 400 413 q 378 463 390 449 q 345 488 365 478 q 296 497 325 497 q 228 490 253 497 q 186 474 203 483 q 158 458 169 465 q 133 451 147 451 q 102 461 115 451 q 80 486 89 471 q 66 520 71 501 q 61 558 61 539 q 84 603 61 583 q 142 638 107 624 q 218 661 176 653 q 299 669 260 669 m 400 276 l 394 276 q 338 274 365 276 q 288 264 310 272 q 254 241 267 256 q 242 201 242 226 q 257 157 242 171 q 296 143 272 143 q 331 153 313 143 q 364 180 349 163 q 390 221 379 197 q 400 271 400 244 l 400 276 z "},"↓":{"ha":1071,"x_min":207,"x_max":864,"o":"m 207 228 q 216 264 207 246 q 239 296 225 282 q 271 319 253 310 q 308 328 289 328 q 349 313 333 328 l 447 214 l 447 707 q 473 754 447 736 q 536 772 499 772 q 600 754 576 772 q 624 707 624 736 l 624 214 l 722 313 q 763 328 738 328 q 799 319 781 328 q 832 296 818 310 q 855 264 846 282 q 864 228 864 246 q 847 188 864 204 l 582 -78 q 536 -104 556 -104 q 489 -78 513 -103 l 224 188 q 207 228 207 204 z "},"←":{"ha":1071,"x_min":97,"x_max":974,"o":"m 429 663 q 465 653 447 663 q 497 631 483 644 q 520 598 511 617 q 529 561 529 579 q 514 521 529 536 l 415 422 l 908 422 q 956 397 938 422 q 974 333 974 371 q 956 269 974 293 q 908 246 938 246 l 415 246 l 514 147 q 529 107 529 132 q 520 69 529 88 q 497 38 511 51 q 465 15 483 24 q 429 6 447 6 q 389 22 406 6 l 124 288 q 97 333 97 314 q 124 381 97 354 l 389 646 q 429 663 406 663 z "},"→":{"ha":1071,"x_min":97,"x_max":974,"o":"m 642 663 q 682 646 665 663 l 947 381 q 967 356 960 367 q 974 333 974 344 q 947 288 974 314 l 682 22 q 642 6 665 6 q 606 15 624 6 q 574 38 588 24 q 551 69 560 51 q 542 107 542 88 q 557 147 542 132 l 656 246 l 163 246 q 115 269 133 246 q 97 333 97 293 q 115 397 97 371 q 163 422 133 422 l 656 422 l 557 521 q 542 561 542 536 q 551 598 542 579 q 574 631 560 617 q 606 653 588 644 q 642 663 624 663 z "},"↑":{"ha":1071,"x_min":207,"x_max":864,"o":"m 207 440 q 224 481 207 464 l 489 746 q 536 772 513 769 q 582 746 556 772 l 847 481 q 864 440 864 464 q 855 404 864 422 q 832 372 846 386 q 799 349 818 358 q 763 340 781 340 q 722 356 738 340 l 624 454 l 624 -39 q 600 -86 624 -68 q 536 -104 576 -104 q 473 -86 499 -104 q 447 -39 447 -68 l 447 454 l 349 356 q 308 340 333 340 q 271 349 289 340 q 239 372 253 358 q 216 404 225 386 q 207 440 207 422 z "},"^":{"ha":406,"x_min":0,"x_max":406,"o":"m 58 794 q 43 790 50 790 q 12 810 24 790 q 0 854 0 831 q 8 888 0 872 q 35 915 15 904 l 179 993 q 203 1000 193 1000 q 226 993 213 1000 l 371 915 q 398 888 390 904 q 406 854 406 872 q 394 810 406 831 q 363 790 382 790 q 347 794 356 790 l 203 872 l 58 794 z "},"~":{"ha":571,"x_min":39,"x_max":532,"o":"m 211 304 q 172 299 189 304 q 142 290 156 294 q 116 280 128 285 q 92 275 104 275 q 65 283 75 275 q 49 303 56 292 q 41 326 43 315 q 39 343 39 338 q 53 401 39 381 q 88 431 68 421 q 128 442 108 440 q 157 444 147 444 q 214 439 189 444 q 262 426 239 433 q 308 413 285 418 q 360 407 331 407 q 399 412 382 407 q 429 422 415 417 q 455 431 443 426 q 479 436 467 436 q 506 427 496 436 q 522 407 515 418 q 530 385 528 396 q 532 368 532 374 q 517 310 532 331 q 483 281 503 290 q 443 269 463 271 q 414 267 424 267 q 350 272 376 267 q 301 285 324 278 q 257 299 278 293 q 211 304 236 304 z "},"*":{"ha":682,"x_min":31,"x_max":650,"o":"m 558 538 q 569 497 569 524 q 542 443 569 464 q 485 422 515 422 q 458 426 474 422 q 432 449 443 431 l 342 588 l 250 447 q 228 427 240 432 q 201 422 217 422 q 174 427 189 422 q 145 441 158 432 q 123 464 132 450 q 114 494 114 478 q 131 539 114 519 l 222 669 l 78 711 q 42 735 54 717 q 31 782 31 754 q 52 834 31 810 q 107 858 74 858 q 115 858 110 858 q 128 854 121 857 l 274 807 l 267 949 q 290 999 268 983 q 342 1015 313 1015 q 392 999 371 1015 q 415 949 414 983 l 410 804 l 557 854 q 578 858 567 858 q 630 831 610 858 q 650 772 650 803 q 639 734 650 751 q 603 711 628 717 l 461 678 l 558 538 z "},"@":{"ha":1046,"x_min":49,"x_max":1014,"o":"m 325 497 q 343 537 325 518 q 391 569 361 556 q 458 592 421 583 q 532 600 494 600 q 619 588 576 600 q 694 553 661 576 q 747 494 726 529 q 767 411 767 458 l 767 174 q 782 122 774 135 q 806 108 790 108 q 847 129 832 108 q 869 181 861 150 q 878 243 876 211 q 881 299 881 275 q 799 584 881 486 q 540 682 718 682 q 367 650 436 682 q 258 564 299 618 q 200 438 217 510 q 183 288 183 367 q 198 147 183 214 q 249 28 213 79 q 346 -52 285 -22 q 499 -82 407 -82 q 567 -77 539 -82 q 617 -66 596 -72 q 651 -54 638 -60 q 678 -49 665 -49 q 700 -56 690 -49 q 716 -72 710 -62 q 726 -91 722 -81 q 729 -110 729 -101 q 701 -152 729 -135 q 631 -180 672 -169 q 547 -194 590 -190 q 472 -199 503 -199 q 314 -169 390 -199 q 178 -78 238 -139 q 84 73 119 -18 q 49 286 49 164 q 78 488 49 394 q 169 651 108 582 q 323 759 231 719 q 539 799 415 799 q 740 766 651 799 q 889 672 828 733 q 982 525 950 611 q 1014 333 1014 439 q 1001 206 1014 265 q 960 101 988 146 q 890 31 932 57 q 793 6 849 6 q 691 35 731 6 q 643 111 651 65 q 567 38 610 67 q 468 10 525 10 q 406 19 438 10 q 350 49 375 29 q 310 101 325 69 q 294 174 294 132 q 316 257 294 224 q 376 311 338 290 q 465 341 414 332 q 576 350 517 350 l 614 350 l 614 368 q 511 457 614 457 q 458 451 481 457 q 421 438 436 444 q 394 424 406 431 q 374 418 383 418 q 354 426 363 418 q 339 447 346 435 q 328 474 332 460 q 325 497 325 488 m 622 264 l 597 264 q 464 176 464 264 q 511 119 464 119 q 550 129 531 119 q 585 155 569 139 q 612 191 601 171 q 622 233 622 211 l 622 264 z "},"ã":{"ha":672,"x_min":25,"x_max":615,"o":"m 253 842 q 214 837 231 842 q 183 827 197 832 q 158 817 169 822 q 133 813 146 813 q 107 821 117 813 q 91 841 97 829 q 83 864 85 853 q 81 881 81 875 q 95 938 81 918 q 130 968 110 958 q 169 980 150 978 q 199 982 189 982 q 256 976 231 982 q 303 963 281 971 q 349 950 326 956 q 401 944 372 944 q 440 949 424 944 q 471 959 457 954 q 497 969 485 964 q 521 974 508 974 q 547 965 538 974 q 563 944 557 956 q 572 922 569 933 q 574 906 574 911 q 559 848 574 868 q 524 818 544 828 q 485 806 504 808 q 456 804 465 804 q 392 810 418 804 q 342 823 365 815 q 299 836 319 831 q 253 842 278 842 m 299 669 q 444 647 383 669 q 542 586 504 624 q 598 499 581 549 q 615 397 615 450 l 615 67 q 585 19 615 39 q 510 0 556 0 q 442 19 469 0 q 414 67 414 39 l 414 97 q 326 19 376 53 q 203 -14 275 -14 q 135 -3 167 -14 q 78 31 103 8 q 40 89 54 54 q 25 171 25 124 q 49 272 25 232 q 115 337 72 313 q 218 371 158 361 q 350 381 278 381 l 400 381 l 400 394 q 395 431 400 413 q 378 463 390 449 q 345 488 365 478 q 296 497 325 497 q 228 490 253 497 q 186 474 203 483 q 158 458 169 465 q 133 451 147 451 q 102 461 115 451 q 80 486 89 471 q 66 520 71 501 q 61 558 61 539 q 84 603 61 583 q 142 638 107 624 q 218 661 176 653 q 299 669 260 669 m 400 276 l 394 276 q 338 274 365 276 q 288 264 310 272 q 254 241 267 256 q 242 201 242 226 q 257 157 242 171 q 296 143 272 143 q 331 153 313 143 q 364 180 349 163 q 390 221 379 197 q 400 271 400 244 l 400 276 z "},"b":{"ha":740,"x_min":64,"x_max":701,"o":"m 169 1039 q 247 1021 215 1039 q 279 974 279 1003 l 279 564 q 347 637 301 604 q 456 669 392 669 q 551 647 507 669 q 629 584 596 624 q 682 491 663 544 q 701 378 701 438 l 701 281 q 682 169 701 222 q 629 76 663 117 q 552 10 596 35 q 460 -14 508 -14 q 396 -5 426 -14 q 340 20 365 4 q 294 56 314 36 q 265 97 275 76 l 265 67 q 238 21 265 42 q 169 0 210 0 q 94 21 124 0 q 64 67 64 42 l 64 974 q 94 1021 64 1003 q 169 1039 124 1039 m 486 378 q 457 450 486 418 q 385 482 428 482 q 347 475 365 482 q 313 454 328 468 q 289 422 299 440 q 279 378 279 403 l 279 263 q 288 239 279 254 q 310 209 296 224 q 344 184 325 194 q 386 174 364 174 q 425 183 407 174 q 457 207 443 192 q 478 241 471 222 q 486 281 486 260 l 486 378 z "},"\\":{"ha":531,"x_min":25,"x_max":504,"o":"m 29 957 q 25 978 25 967 q 49 1027 25 1006 q 106 1049 72 1049 q 142 1039 125 1049 q 168 1007 160 1029 l 501 93 q 504 74 504 86 q 481 22 504 46 q 426 -1 458 -1 q 387 11 404 -1 q 363 43 369 24 l 29 957 z "},"|":{"ha":354,"x_min":69,"x_max":285,"o":"m 176 1067 q 253 1049 221 1067 q 285 1001 285 1031 l 285 38 q 253 -8 285 13 q 176 -29 221 -29 q 99 -8 129 -29 q 69 38 69 13 l 69 1001 q 99 1049 69 1031 q 176 1067 129 1067 z "},"{":{"ha":528,"x_min":24,"x_max":511,"o":"m 24 538 q 37 588 24 574 q 65 610 50 603 q 94 624 81 617 q 107 651 107 631 q 103 684 107 663 q 97 731 100 706 q 90 782 93 757 q 86 824 86 807 q 113 915 86 871 q 183 992 140 958 q 281 1047 226 1026 q 390 1067 335 1067 q 450 1058 426 1067 q 487 1036 474 1050 q 506 1006 500 1022 q 511 972 511 989 q 495 913 511 942 q 446 885 479 885 q 406 881 431 885 q 359 868 382 878 q 319 840 336 858 q 303 794 303 822 q 306 758 303 782 q 313 709 310 735 q 320 660 317 683 q 324 624 324 636 q 318 593 324 608 q 305 565 313 578 q 288 544 297 553 q 274 533 279 535 q 306 503 289 529 q 324 444 324 476 q 320 400 324 432 q 313 333 317 368 q 306 268 310 299 q 303 228 303 238 q 318 191 303 206 q 356 168 333 176 q 403 157 378 160 q 446 154 428 154 q 478 145 465 154 q 498 122 490 136 q 508 92 506 108 q 511 64 511 76 q 388 -28 511 -28 q 279 -11 333 -28 q 182 36 225 6 q 113 108 139 67 q 86 200 86 150 q 90 250 86 218 q 97 315 93 282 q 103 378 100 349 q 107 418 107 407 q 94 448 107 440 q 65 463 81 456 q 37 485 50 471 q 24 538 24 500 z "},"}":{"ha":528,"x_min":17,"x_max":504,"o":"m 504 538 q 491 485 504 500 q 463 463 478 471 q 434 448 447 456 q 421 418 421 440 q 424 378 421 407 q 431 315 428 349 q 438 250 435 282 q 442 200 442 218 q 415 108 442 150 q 346 36 389 67 q 249 -11 303 6 q 140 -28 194 -28 q 17 64 17 -28 q 19 92 17 76 q 30 122 22 108 q 50 145 38 136 q 82 154 63 154 q 125 157 100 154 q 172 168 150 160 q 210 191 194 176 q 225 228 225 206 q 222 268 225 238 q 215 333 218 299 q 208 400 211 368 q 204 444 204 432 q 222 503 204 476 q 254 533 239 529 q 239 544 247 535 q 223 565 231 553 q 210 593 215 578 q 204 624 204 608 q 208 660 204 636 q 215 709 211 683 q 222 758 218 735 q 225 794 225 782 q 208 840 225 822 q 169 868 192 858 q 122 881 146 878 q 82 885 97 885 q 33 913 49 885 q 17 972 17 942 q 22 1006 17 989 q 41 1036 28 1022 q 78 1058 54 1050 q 138 1067 101 1067 q 247 1047 193 1067 q 344 992 301 1026 q 415 915 388 958 q 442 824 442 871 q 438 782 442 807 q 431 731 435 757 q 424 684 428 706 q 421 651 421 663 q 434 624 421 631 q 463 610 447 617 q 491 588 478 603 q 504 538 504 574 z "},"[":{"ha":493,"x_min":69,"x_max":474,"o":"m 286 160 l 408 160 q 457 131 440 160 q 474 64 474 103 q 458 1 474 31 q 408 -29 443 -29 l 164 -29 q 99 -12 128 -29 q 69 38 69 4 l 69 1000 q 99 1050 69 1033 q 164 1067 128 1067 l 408 1067 q 458 1037 443 1067 q 474 974 474 1007 q 457 906 474 935 q 408 878 440 878 l 286 878 l 286 160 z "},"]":{"ha":493,"x_min":19,"x_max":424,"o":"m 207 878 l 85 878 q 36 906 53 878 q 19 974 19 935 q 35 1037 19 1007 q 85 1067 50 1067 l 329 1067 q 394 1050 365 1067 q 424 1000 424 1033 l 424 38 q 394 -12 424 4 q 329 -29 365 -29 l 85 -29 q 35 1 50 -29 q 19 64 19 31 q 36 131 19 103 q 85 160 53 160 l 207 160 l 207 878 z "},"˘":{"ha":388,"x_min":0,"x_max":388,"o":"m 388 1006 q 372 932 388 967 q 328 871 356 897 q 267 828 301 844 q 194 813 232 813 q 122 828 157 813 q 59 871 86 844 q 16 932 32 897 q 0 1006 0 967 l 111 1006 q 138 933 111 961 q 194 904 164 904 q 250 933 224 904 q 276 1006 276 961 l 388 1006 z "},"¦":{"ha":354,"x_min":69,"x_max":285,"o":"m 176 1067 q 253 1049 221 1067 q 285 1001 285 1031 l 285 667 q 253 621 285 642 q 176 600 221 600 q 99 621 129 600 q 69 667 69 642 l 69 1001 q 99 1049 69 1031 q 176 1067 129 1067 m 176 438 q 253 419 221 438 q 285 372 285 401 l 285 38 q 253 -8 285 13 q 176 -29 221 -29 q 99 -8 129 -29 q 69 38 69 13 l 69 372 q 99 419 69 401 q 176 438 129 438 z "},"•":{"ha":465,"x_min":36,"x_max":429,"o":"m 233 604 q 308 589 272 604 q 370 548 343 574 q 413 488 397 522 q 429 417 429 454 q 413 344 429 379 q 370 284 397 310 q 308 243 343 258 q 233 228 272 228 q 158 243 193 228 q 95 284 122 258 q 52 344 68 310 q 36 417 36 379 q 52 488 36 454 q 95 548 68 522 q 158 589 122 574 q 233 604 193 604 z "},"c":{"ha":614,"x_min":39,"x_max":594,"o":"m 354 -14 q 212 8 271 -14 q 114 70 153 31 q 57 164 75 110 q 39 281 39 218 l 39 375 q 57 491 39 438 q 113 584 75 544 q 210 647 151 624 q 351 669 269 669 q 446 660 403 669 q 520 635 489 650 q 569 598 551 619 q 586 554 586 576 q 580 521 586 539 q 563 487 574 503 q 537 460 553 471 q 503 449 521 449 q 478 453 490 449 q 452 465 467 458 q 417 476 438 471 q 369 482 397 482 q 281 454 307 482 q 254 375 254 426 l 254 281 q 281 201 254 229 q 371 174 307 174 q 417 179 399 174 q 451 192 436 185 q 477 206 465 200 q 503 211 489 211 q 542 201 525 211 q 570 175 558 190 q 588 142 582 160 q 594 108 594 124 q 576 63 594 85 q 525 24 557 40 q 449 -3 493 7 q 354 -14 404 -14 z "},"ć":{"ha":614,"x_min":39,"x_max":594,"o":"m 354 -14 q 212 8 271 -14 q 114 70 153 31 q 57 164 75 110 q 39 281 39 218 l 39 375 q 57 491 39 438 q 113 584 75 544 q 210 647 151 624 q 351 669 269 669 q 446 660 403 669 q 520 635 489 650 q 569 598 551 619 q 586 554 586 576 q 580 521 586 539 q 563 487 574 503 q 537 460 553 471 q 503 449 521 449 q 478 453 490 449 q 452 465 467 458 q 417 476 438 471 q 369 482 397 482 q 281 454 307 482 q 254 375 254 426 l 254 281 q 281 201 254 229 q 371 174 307 174 q 417 179 399 174 q 451 192 436 185 q 477 206 465 200 q 503 211 489 211 q 542 201 525 211 q 570 175 558 190 q 588 142 582 160 q 594 108 594 124 q 576 63 594 85 q 525 24 557 40 q 449 -3 493 7 q 354 -14 404 -14 m 281 782 q 260 776 267 776 q 214 803 232 776 q 196 857 196 829 q 224 906 196 892 l 418 996 q 438 1000 428 1000 q 463 992 451 1000 q 484 973 475 985 q 498 947 493 961 q 503 919 503 933 q 497 892 503 904 q 475 872 490 879 l 281 782 z "},"ˇ":{"ha":406,"x_min":0,"x_max":406,"o":"m 203 935 l 347 1013 q 363 1017 356 1017 q 394 997 382 1017 q 406 953 406 976 q 398 919 406 935 q 371 892 390 903 l 226 814 q 203 807 213 807 q 179 814 193 807 l 35 892 q 8 919 15 903 q 0 953 0 935 q 12 997 0 976 q 43 1017 24 1017 q 58 1013 50 1017 l 203 935 z "},"č":{"ha":614,"x_min":39,"x_max":594,"o":"m 354 -14 q 212 8 271 -14 q 114 70 153 31 q 57 164 75 110 q 39 281 39 218 l 39 375 q 57 491 39 438 q 113 584 75 544 q 210 647 151 624 q 351 669 269 669 q 446 660 403 669 q 520 635 489 650 q 569 598 551 619 q 586 554 586 576 q 580 521 586 539 q 563 487 574 503 q 537 460 553 471 q 503 449 521 449 q 478 453 490 449 q 452 465 467 458 q 417 476 438 471 q 369 482 397 482 q 281 454 307 482 q 254 375 254 426 l 254 281 q 281 201 254 229 q 371 174 307 174 q 417 179 399 174 q 451 192 436 185 q 477 206 465 200 q 503 211 489 211 q 542 201 525 211 q 570 175 558 190 q 588 142 582 160 q 594 108 594 124 q 576 63 594 85 q 525 24 557 40 q 449 -3 493 7 q 354 -14 404 -14 m 326 935 l 471 1013 q 486 1017 479 1017 q 517 997 506 1017 q 529 953 529 976 q 522 919 529 935 q 494 892 514 903 l 350 814 q 326 807 336 807 q 303 814 317 807 l 158 892 q 131 919 139 903 q 124 953 124 935 q 135 997 124 976 q 167 1017 147 1017 q 182 1013 174 1017 l 326 935 z "},"ç":{"ha":614,"x_min":39,"x_max":594,"o":"m 594 108 q 579 67 594 88 q 537 31 564 47 q 472 3 510 14 q 392 -12 435 -8 l 374 -65 q 478 -99 444 -68 q 513 -175 513 -131 q 506 -215 513 -193 q 481 -258 499 -237 q 434 -291 464 -278 q 358 -304 404 -304 q 317 -301 339 -304 q 278 -294 296 -299 q 248 -281 260 -289 q 236 -261 236 -272 q 238 -247 236 -257 q 244 -228 240 -237 q 256 -210 249 -218 q 272 -203 263 -203 q 302 -212 285 -203 q 353 -222 319 -222 q 399 -212 381 -222 q 417 -179 417 -201 q 403 -148 417 -161 q 357 -132 389 -135 l 271 -124 l 304 -11 q 185 19 235 -6 q 102 83 135 44 q 54 172 69 121 q 39 281 39 222 l 39 375 q 57 491 39 438 q 113 584 75 544 q 210 647 151 624 q 351 669 269 669 q 446 660 403 669 q 520 635 489 650 q 569 598 551 619 q 586 554 586 576 q 580 521 586 539 q 563 487 574 503 q 537 460 553 471 q 503 449 521 449 q 478 453 490 449 q 452 465 467 458 q 417 476 438 471 q 369 482 397 482 q 281 454 307 482 q 254 375 254 426 l 254 281 q 281 201 254 229 q 371 174 307 174 q 417 179 399 174 q 451 192 436 185 q 477 206 465 200 q 503 211 489 211 q 542 201 525 211 q 570 175 558 190 q 588 142 582 160 q 594 108 594 124 z "},"ĉ":{"ha":614,"x_min":39,"x_max":594,"o":"m 354 -14 q 212 8 271 -14 q 114 70 153 31 q 57 164 75 110 q 39 281 39 218 l 39 375 q 57 491 39 438 q 113 584 75 544 q 210 647 151 624 q 351 669 269 669 q 446 660 403 669 q 520 635 489 650 q 569 598 551 619 q 586 554 586 576 q 580 521 586 539 q 563 487 574 503 q 537 460 553 471 q 503 449 521 449 q 478 453 490 449 q 452 465 467 458 q 417 476 438 471 q 369 482 397 482 q 281 454 307 482 q 254 375 254 426 l 254 281 q 281 201 254 229 q 371 174 307 174 q 417 179 399 174 q 451 192 436 185 q 477 206 465 200 q 503 211 489 211 q 542 201 525 211 q 570 175 558 190 q 588 142 582 160 q 594 108 594 124 q 576 63 594 85 q 525 24 557 40 q 449 -3 493 7 q 354 -14 404 -14 m 192 794 q 176 790 183 790 q 145 810 157 790 q 133 854 133 831 q 141 888 133 872 q 168 915 149 904 l 313 993 q 336 1000 326 1000 q 360 993 346 1000 l 504 915 q 531 888 524 904 q 539 854 539 872 q 527 810 539 831 q 496 790 515 790 q 481 794 489 790 l 336 872 l 192 794 z "},"ċ":{"ha":614,"x_min":39,"x_max":594,"o":"m 354 -14 q 212 8 271 -14 q 114 70 153 31 q 57 164 75 110 q 39 281 39 218 l 39 375 q 57 491 39 438 q 113 584 75 544 q 210 647 151 624 q 351 669 269 669 q 446 660 403 669 q 520 635 489 650 q 569 598 551 619 q 586 554 586 576 q 580 521 586 539 q 563 487 574 503 q 537 460 553 471 q 503 449 521 449 q 478 453 490 449 q 452 465 467 458 q 417 476 438 471 q 369 482 397 482 q 281 454 307 482 q 254 375 254 426 l 254 281 q 281 201 254 229 q 371 174 307 174 q 417 179 399 174 q 451 192 436 185 q 477 206 465 200 q 503 211 489 211 q 542 201 525 211 q 570 175 558 190 q 588 142 582 160 q 594 108 594 124 q 576 63 594 85 q 525 24 557 40 q 449 -3 493 7 q 354 -14 404 -14 m 331 956 q 385 931 363 956 q 408 875 408 907 q 385 818 408 843 q 331 793 363 793 q 275 818 299 793 q 251 875 251 843 q 275 931 251 907 q 331 956 299 956 z "},"¸":{"ha":276,"x_min":0,"x_max":276,"o":"m 138 -65 q 242 -99 208 -68 q 276 -175 276 -131 q 269 -215 276 -193 q 245 -258 263 -237 q 198 -291 228 -278 q 122 -304 168 -304 q 81 -301 103 -304 q 42 -294 60 -299 q 12 -281 24 -289 q 0 -261 0 -272 q 2 -247 0 -257 q 8 -228 4 -237 q 19 -210 13 -218 q 36 -203 26 -203 q 66 -212 49 -203 q 117 -222 83 -222 q 163 -212 144 -222 q 181 -179 181 -201 q 167 -148 181 -161 q 121 -132 153 -135 l 35 -124 l 75 13 l 164 13 l 138 -65 z "},"¢":{"ha":622,"x_min":32,"x_max":588,"o":"m 361 965 q 403 950 385 965 q 422 910 422 935 l 422 815 q 536 774 493 804 q 579 707 579 743 q 573 674 579 692 q 556 642 567 657 q 530 618 546 628 q 496 608 514 608 q 463 619 479 608 q 422 639 446 629 l 422 393 q 461 416 446 404 q 496 428 476 428 q 535 419 518 428 q 563 395 551 410 q 581 363 575 381 q 588 331 588 346 q 541 260 588 293 q 422 214 494 228 l 422 113 q 403 72 422 90 q 361 54 385 54 q 319 72 336 54 q 301 113 301 90 l 301 210 q 180 240 231 215 q 96 304 129 265 q 47 394 63 343 q 32 503 32 444 l 32 528 q 48 637 32 586 q 97 726 64 688 q 180 790 129 765 q 301 821 231 814 l 301 910 q 319 950 301 935 q 361 965 336 965 m 219 503 q 238 429 219 458 q 301 389 257 400 l 301 642 q 238 601 257 631 q 219 528 219 572 l 219 503 z "},"ˆ":{"ha":406,"x_min":0,"x_max":406,"o":"m 58 794 q 43 790 50 790 q 12 810 24 790 q 0 854 0 831 q 8 888 0 872 q 35 915 15 904 l 179 993 q 203 1000 193 1000 q 226 993 213 1000 l 371 915 q 398 888 390 904 q 406 854 406 872 q 394 810 406 831 q 363 790 382 790 q 347 794 356 790 l 203 872 l 58 794 z "},":":{"ha":313,"x_min":50,"x_max":263,"o":"m 157 206 q 231 174 200 206 q 263 99 263 143 q 231 24 263 56 q 157 -8 200 -8 q 81 24 111 -8 q 50 99 50 56 q 81 174 50 143 q 157 206 111 206 m 157 586 q 231 555 200 586 q 263 479 263 524 q 231 404 263 436 q 157 372 200 372 q 81 404 111 372 q 50 479 50 436 q 81 555 50 524 q 157 586 111 586 z "},",":{"ha":276,"x_min":32,"x_max":244,"o":"m 138 206 q 213 174 182 206 q 244 100 244 143 q 242 85 244 93 q 232 54 240 76 q 206 -10 224 32 q 158 -122 189 -51 q 140 -142 151 -137 q 117 -147 128 -147 q 71 -133 94 -147 q 47 -93 47 -119 q 53 -71 47 -82 l 88 4 q 47 44 63 19 q 32 99 32 68 q 63 174 32 143 q 138 206 93 206 z "},"":{"ha":357,"x_min":19,"x_max":326,"o":"m 104 -285 q 83 -290 90 -290 q 38 -264 56 -290 q 19 -210 19 -237 q 47 -161 19 -175 l 242 -71 q 261 -67 251 -67 q 287 -74 275 -67 q 308 -94 299 -82 q 322 -119 317 -106 q 326 -147 326 -133 q 320 -175 326 -162 q 299 -194 314 -187 l 104 -285 z "},"©":{"ha":944,"x_min":46,"x_max":899,"o":"m 46 497 q 86 699 46 614 q 189 841 126 785 q 328 924 251 897 q 476 951 404 951 q 625 924 550 951 q 761 840 700 896 q 860 700 822 785 q 899 503 899 615 q 858 301 899 386 q 756 159 818 215 q 617 76 693 103 q 468 49 540 49 q 319 76 394 49 q 183 160 244 104 q 84 300 122 215 q 46 497 46 385 m 801 503 q 778 644 801 579 q 713 755 756 708 q 611 828 671 801 q 476 854 551 854 q 340 828 401 854 q 235 756 279 803 q 167 642 192 708 q 143 497 143 576 q 166 356 143 421 q 231 245 189 292 q 333 172 272 199 q 468 146 393 146 q 604 172 543 146 q 709 244 665 197 q 777 358 753 292 q 801 503 801 424 m 542 610 q 540 630 542 618 q 533 653 539 642 q 513 672 526 664 q 478 681 500 681 q 413 600 413 681 l 413 419 q 478 339 413 339 q 512 347 500 339 q 530 367 524 356 q 538 393 536 379 q 542 418 540 407 q 559 446 543 439 q 597 453 575 453 q 640 442 626 453 q 654 397 654 431 q 603 279 654 321 q 474 238 551 238 q 406 247 438 238 q 351 278 375 257 q 314 335 328 300 q 300 419 300 369 l 300 600 q 314 685 300 650 q 351 741 328 719 q 406 772 375 763 q 474 782 438 782 q 603 742 551 782 q 654 629 654 703 q 640 585 654 596 q 599 574 626 574 q 559 582 575 574 q 542 610 543 590 z "},"¤":{"ha":611,"x_min":58,"x_max":553,"o":"m 306 906 q 386 891 347 906 q 457 851 425 876 l 490 882 q 510 889 499 889 q 540 875 526 889 q 553 846 553 861 q 544 828 553 836 l 508 794 q 541 730 529 765 q 553 657 553 694 q 541 583 553 618 q 508 517 529 547 l 544 483 q 553 465 553 475 q 540 436 553 450 q 510 422 526 422 q 490 429 499 422 l 457 460 q 386 417 425 432 q 306 403 347 403 q 225 417 264 403 q 154 458 186 432 l 121 429 q 101 422 113 422 q 72 436 85 422 q 58 465 58 450 q 67 483 58 475 l 103 517 q 60 656 60 579 q 103 794 60 732 l 67 828 q 58 846 58 836 q 72 875 58 861 q 101 889 85 889 q 121 882 113 889 l 154 851 q 224 891 186 876 q 306 906 263 906 m 442 654 q 431 706 442 681 q 402 750 421 731 q 359 781 383 769 q 306 793 335 793 q 253 781 278 793 q 210 751 228 769 q 181 707 192 732 q 171 656 171 682 q 181 603 171 628 q 210 558 192 578 q 253 527 228 539 q 306 515 278 515 q 358 527 333 515 q 402 558 383 539 q 431 603 421 578 q 442 654 442 628 z "},"d":{"ha":740,"x_min":39,"x_max":676,"o":"m 571 1039 q 647 1021 617 1039 q 676 974 676 1003 l 676 67 q 647 21 676 42 q 571 0 617 0 q 503 21 531 0 q 475 67 475 42 l 475 97 q 445 56 464 76 q 401 20 426 36 q 344 -5 375 4 q 281 -14 314 -14 q 188 10 232 -14 q 111 76 144 35 q 58 169 78 117 q 39 281 39 222 l 39 378 q 58 491 39 438 q 111 584 78 544 q 189 647 144 624 q 285 669 233 669 q 394 637 349 669 q 461 564 439 604 l 461 974 q 493 1021 461 1003 q 571 1039 525 1039 m 254 281 q 262 241 254 260 q 283 207 269 222 q 315 183 297 192 q 354 174 333 174 q 396 184 376 174 q 430 209 415 194 q 453 239 444 224 q 461 263 461 254 l 461 378 q 451 422 461 403 q 427 454 442 440 q 393 475 413 468 q 356 482 374 482 q 283 450 313 482 q 254 378 254 418 l 254 281 z "},"†":{"ha":629,"x_min":26,"x_max":603,"o":"m 26 631 q 44 690 26 665 q 92 714 63 714 l 206 706 l 206 950 q 238 996 206 976 q 314 1015 269 1015 q 354 1010 335 1015 q 389 995 374 1004 q 413 974 404 986 q 422 950 422 963 l 422 706 l 536 714 q 582 690 561 714 q 603 631 603 665 q 582 572 603 594 q 536 549 561 549 l 422 557 l 422 50 q 413 20 422 35 q 389 -6 404 6 q 354 -23 374 -17 q 314 -29 335 -29 q 238 -6 269 -29 q 206 50 206 18 l 206 557 l 92 549 q 44 572 63 549 q 26 631 26 594 z "},"‡":{"ha":643,"x_min":33,"x_max":610,"o":"m 33 335 q 51 394 33 369 q 99 418 69 418 l 213 410 l 213 557 l 99 549 q 51 572 69 549 q 33 631 33 594 q 51 690 33 665 q 99 714 69 714 l 213 706 l 213 950 q 244 996 213 976 q 321 1015 276 1015 q 361 1010 342 1015 q 396 995 381 1004 q 420 974 411 986 q 429 950 429 963 l 429 706 l 543 714 q 589 690 568 714 q 610 631 610 665 q 589 572 610 594 q 543 549 568 549 l 429 557 l 429 410 l 543 418 q 589 394 568 418 q 610 335 610 369 q 589 276 610 299 q 543 253 568 253 l 429 261 l 429 50 q 420 20 429 35 q 396 -6 411 6 q 361 -23 381 -17 q 321 -29 342 -29 q 244 -6 276 -29 q 213 50 213 18 l 213 261 l 99 253 q 51 276 69 253 q 33 335 33 299 z "},"ď":{"ha":740,"x_min":39,"x_max":954,"o":"m 571 1039 q 647 1021 617 1039 q 676 974 676 1003 l 676 67 q 647 21 676 42 q 571 0 617 0 q 503 21 531 0 q 475 67 475 42 l 475 97 q 445 56 464 76 q 401 20 426 36 q 344 -5 375 4 q 281 -14 314 -14 q 188 10 232 -14 q 111 76 144 35 q 58 169 78 117 q 39 281 39 222 l 39 378 q 58 491 39 438 q 111 584 78 544 q 189 647 144 624 q 285 669 233 669 q 394 637 349 669 q 461 564 439 604 l 461 974 q 493 1021 461 1003 q 571 1039 525 1039 m 254 281 q 262 241 254 260 q 283 207 269 222 q 315 183 297 192 q 354 174 333 174 q 396 184 376 174 q 430 209 415 194 q 453 239 444 224 q 461 263 461 254 l 461 378 q 451 422 461 403 q 427 454 442 440 q 393 475 413 468 q 356 482 374 482 q 283 450 313 482 q 254 378 254 418 l 254 281 m 847 1029 q 923 998 892 1029 q 954 924 954 967 q 952 908 954 917 q 942 878 950 900 q 916 814 933 856 q 868 701 899 772 q 849 681 861 686 q 826 676 838 676 q 781 690 804 676 q 757 731 757 704 q 763 753 757 742 l 797 828 q 757 867 772 843 q 742 922 742 892 q 772 998 742 967 q 847 1029 803 1029 z "},"đ":{"ha":740,"x_min":39,"x_max":760,"o":"m 571 1039 q 647 1021 617 1039 q 676 974 676 1003 l 676 910 l 707 910 q 747 885 733 910 q 760 833 760 861 q 747 780 760 803 q 707 757 733 757 l 676 757 l 676 67 q 647 21 676 42 q 571 0 617 0 q 503 21 531 0 q 475 67 475 42 l 475 97 q 445 56 464 76 q 401 20 426 36 q 344 -5 375 4 q 281 -14 314 -14 q 188 10 232 -14 q 111 76 144 35 q 58 169 78 117 q 39 281 39 222 l 39 378 q 58 491 39 438 q 111 584 78 544 q 189 647 144 624 q 285 669 233 669 q 394 637 349 669 q 461 564 439 604 l 461 757 l 376 757 q 337 781 350 757 q 324 833 324 804 q 337 885 324 861 q 376 910 350 910 l 461 910 l 461 974 q 493 1021 461 1003 q 571 1039 525 1039 m 254 281 q 262 241 254 260 q 283 207 269 222 q 315 183 297 192 q 354 174 333 174 q 396 184 376 174 q 430 209 415 194 q 453 239 444 224 q 461 263 461 254 l 461 378 q 451 422 461 403 q 427 454 442 440 q 393 475 413 468 q 356 482 374 482 q 283 450 313 482 q 254 378 254 418 l 254 281 z "},"°":{"ha":540,"x_min":24,"x_max":517,"o":"m 269 1067 q 364 1047 319 1067 q 442 992 408 1026 q 497 913 476 958 q 517 818 517 868 q 497 722 517 768 q 442 640 476 675 q 364 585 408 606 q 269 564 319 564 q 175 585 219 564 q 97 640 131 606 q 44 721 64 675 q 24 817 24 767 q 43 912 24 867 q 96 992 63 957 q 174 1047 129 1026 q 269 1067 219 1067 m 406 815 q 395 867 406 842 q 366 911 385 892 q 323 942 347 931 q 269 954 299 954 q 217 942 242 954 q 174 912 192 931 q 145 868 156 893 q 135 817 135 843 q 145 764 135 789 q 174 719 156 739 q 217 688 192 700 q 269 676 242 676 q 322 688 297 676 q 366 719 347 700 q 395 764 385 739 q 406 815 406 789 z "},"¨":{"ha":379,"x_min":0,"x_max":379,"o":"m 79 956 q 134 931 111 956 q 157 875 157 907 q 134 818 157 843 q 79 793 111 793 q 24 818 47 793 q 0 875 0 843 q 24 931 0 907 q 79 956 47 956 m 301 956 q 356 931 333 956 q 379 875 379 907 q 356 818 379 843 q 301 793 333 793 q 246 818 269 793 q 222 875 222 843 q 246 931 222 907 q 301 956 269 956 z "},"÷":{"ha":632,"x_min":28,"x_max":604,"o":"m 28 331 q 47 390 28 367 q 96 414 65 414 l 535 414 q 583 390 561 414 q 604 331 604 367 q 583 271 604 293 q 535 249 561 249 l 96 249 q 47 271 65 249 q 28 331 28 293 m 311 179 q 374 155 344 179 q 403 92 403 131 q 394 58 403 74 q 374 29 386 42 q 344 10 361 17 q 311 3 328 3 q 276 10 293 3 q 247 29 260 17 q 226 58 233 42 q 218 92 218 74 q 247 155 218 131 q 311 179 275 179 m 311 660 q 344 653 328 660 q 374 633 361 646 q 394 605 386 621 q 403 571 403 589 q 374 508 403 533 q 311 483 344 483 q 247 508 275 483 q 218 571 218 533 q 247 633 218 607 q 311 660 275 660 z "},"$":{"ha":751,"x_min":33,"x_max":715,"o":"m 336 0 q 219 17 274 1 q 122 58 164 33 q 57 115 81 83 q 33 181 33 147 q 41 219 33 199 q 61 256 49 239 q 91 285 74 274 q 128 297 108 297 q 171 284 150 297 q 215 254 192 271 q 268 221 239 238 q 336 197 297 204 l 336 422 q 238 463 288 440 q 149 517 189 485 q 84 595 110 549 q 58 708 58 642 q 81 824 58 775 q 142 908 104 874 q 231 962 181 942 q 336 990 281 982 l 336 1029 q 351 1056 336 1044 q 389 1067 365 1067 q 425 1056 408 1067 q 442 1029 442 1044 l 442 994 q 517 988 474 993 q 598 969 560 982 q 663 933 636 956 q 690 874 690 910 q 685 840 690 860 q 670 803 681 821 q 643 772 660 785 q 604 760 626 760 q 572 767 588 760 q 540 783 557 774 q 499 800 522 792 q 442 811 475 808 l 442 608 q 538 568 489 590 q 626 511 586 546 q 690 428 665 476 q 715 308 715 379 q 695 192 715 243 q 639 102 675 140 q 553 40 603 64 q 442 6 503 15 l 442 -35 q 425 -61 442 -50 q 389 -72 408 -72 q 351 -61 365 -72 q 336 -35 336 -50 l 336 0 m 513 286 q 489 344 513 321 q 428 385 465 367 l 428 199 q 488 228 464 207 q 513 286 513 249 m 261 729 q 285 678 261 699 q 350 642 310 658 l 350 807 q 282 776 303 797 q 261 729 261 754 z "},"˙":{"ha":260,"x_min":56,"x_max":213,"o":"m 135 956 q 190 931 167 956 q 213 875 213 907 q 190 818 213 843 q 135 793 167 793 q 79 818 103 793 q 56 875 56 843 q 79 931 56 907 q 135 956 103 956 z "},"ı":{"ha":339,"x_min":63,"x_max":278,"o":"m 169 661 q 246 643 214 661 q 278 596 278 625 l 278 67 q 246 21 278 42 q 169 0 214 0 q 92 21 122 0 q 63 67 63 42 l 63 596 q 92 643 63 625 q 169 661 122 661 z "},"ȷ":{"ha":340,"x_min":-56,"x_max":278,"o":"m 168 661 q 246 643 214 661 q 278 596 278 625 l 278 -39 q 263 -145 278 -97 q 220 -228 249 -193 q 151 -282 192 -262 q 57 -301 110 -301 q 1 -294 22 -301 q -33 -274 -21 -286 q -51 -246 -46 -261 q -56 -214 -56 -231 q -32 -146 -56 -171 q 25 -121 -8 -121 q 56 -98 50 -121 q 63 -39 63 -75 l 63 596 q 92 643 63 625 q 168 661 122 661 z "},"e":{"ha":689,"x_min":38,"x_max":656,"o":"m 357 669 q 471 650 417 669 q 566 596 525 631 q 631 513 607 561 q 656 406 656 464 q 644 333 656 360 q 613 294 632 307 q 569 279 593 282 q 521 276 544 276 l 253 276 l 253 268 q 292 185 253 217 q 394 154 331 154 q 451 163 426 154 q 497 180 476 171 q 534 197 517 189 q 568 206 551 206 q 601 195 586 206 q 626 170 617 185 q 642 140 636 156 q 647 111 647 124 q 629 69 647 92 q 577 28 611 47 q 495 -2 543 10 q 389 -14 447 -14 q 247 8 311 -14 q 136 67 183 29 q 63 160 89 106 q 38 281 38 214 l 38 382 q 63 492 38 440 q 131 584 88 544 q 232 647 174 624 q 357 669 290 669 m 425 397 q 447 404 440 397 q 454 431 454 411 q 423 493 454 472 q 353 514 392 514 q 284 493 315 514 q 253 431 253 472 l 253 397 l 425 397 z "},"é":{"ha":689,"x_min":38,"x_max":656,"o":"m 357 669 q 471 650 417 669 q 566 596 525 631 q 631 513 607 561 q 656 406 656 464 q 644 333 656 360 q 613 294 632 307 q 569 279 593 282 q 521 276 544 276 l 253 276 l 253 268 q 292 185 253 217 q 394 154 331 154 q 451 163 426 154 q 497 180 476 171 q 534 197 517 189 q 568 206 551 206 q 601 195 586 206 q 626 170 617 185 q 642 140 636 156 q 647 111 647 124 q 629 69 647 92 q 577 28 611 47 q 495 -2 543 10 q 389 -14 447 -14 q 247 8 311 -14 q 136 67 183 29 q 63 160 89 106 q 38 281 38 214 l 38 382 q 63 492 38 440 q 131 584 88 544 q 232 647 174 624 q 357 669 290 669 m 425 397 q 447 404 440 397 q 454 431 454 411 q 423 493 454 472 q 353 514 392 514 q 284 493 315 514 q 253 431 253 472 l 253 397 l 425 397 m 290 782 q 269 776 276 776 q 224 803 242 776 q 206 857 206 829 q 233 906 206 892 l 428 996 q 447 1000 438 1000 q 473 992 461 1000 q 494 973 485 985 q 508 947 503 961 q 513 919 513 933 q 506 892 513 904 q 485 872 500 879 l 290 782 z "},"ĕ":{"ha":689,"x_min":38,"x_max":656,"o":"m 357 669 q 471 650 417 669 q 566 596 525 631 q 631 513 607 561 q 656 406 656 464 q 644 333 656 360 q 613 294 632 307 q 569 279 593 282 q 521 276 544 276 l 253 276 l 253 268 q 292 185 253 217 q 394 154 331 154 q 451 163 426 154 q 497 180 476 171 q 534 197 517 189 q 568 206 551 206 q 601 195 586 206 q 626 170 617 185 q 642 140 636 156 q 647 111 647 124 q 629 69 647 92 q 577 28 611 47 q 495 -2 543 10 q 389 -14 447 -14 q 247 8 311 -14 q 136 67 183 29 q 63 160 89 106 q 38 281 38 214 l 38 382 q 63 492 38 440 q 131 584 88 544 q 232 647 174 624 q 357 669 290 669 m 425 397 q 447 404 440 397 q 454 431 454 411 q 423 493 454 472 q 353 514 392 514 q 284 493 315 514 q 253 431 253 472 l 253 397 l 425 397 m 547 1006 q 531 932 547 967 q 488 871 515 897 q 426 828 461 844 q 354 813 392 813 q 281 828 317 813 q 219 871 246 844 q 176 932 192 897 q 160 1006 160 967 l 271 1006 q 297 933 271 961 q 354 904 324 904 q 410 933 383 904 q 436 1006 436 961 l 547 1006 z "},"ě":{"ha":689,"x_min":38,"x_max":656,"o":"m 357 669 q 471 650 417 669 q 566 596 525 631 q 631 513 607 561 q 656 406 656 464 q 644 333 656 360 q 613 294 632 307 q 569 279 593 282 q 521 276 544 276 l 253 276 l 253 268 q 292 185 253 217 q 394 154 331 154 q 451 163 426 154 q 497 180 476 171 q 534 197 517 189 q 568 206 551 206 q 601 195 586 206 q 626 170 617 185 q 642 140 636 156 q 647 111 647 124 q 629 69 647 92 q 577 28 611 47 q 495 -2 543 10 q 389 -14 447 -14 q 247 8 311 -14 q 136 67 183 29 q 63 160 89 106 q 38 281 38 214 l 38 382 q 63 492 38 440 q 131 584 88 544 q 232 647 174 624 q 357 669 290 669 m 425 397 q 447 404 440 397 q 454 431 454 411 q 423 493 454 472 q 353 514 392 514 q 284 493 315 514 q 253 431 253 472 l 253 397 l 425 397 m 357 935 l 501 1013 q 517 1017 510 1017 q 548 997 536 1017 q 560 953 560 976 q 552 919 560 935 q 525 892 544 903 l 381 814 q 357 807 367 807 q 333 814 347 807 l 189 892 q 162 919 169 903 q 154 953 154 935 q 166 997 154 976 q 197 1017 178 1017 q 213 1013 204 1017 l 357 935 z "},"ê":{"ha":689,"x_min":38,"x_max":656,"o":"m 357 669 q 471 650 417 669 q 566 596 525 631 q 631 513 607 561 q 656 406 656 464 q 644 333 656 360 q 613 294 632 307 q 569 279 593 282 q 521 276 544 276 l 253 276 l 253 268 q 292 185 253 217 q 394 154 331 154 q 451 163 426 154 q 497 180 476 171 q 534 197 517 189 q 568 206 551 206 q 601 195 586 206 q 626 170 617 185 q 642 140 636 156 q 647 111 647 124 q 629 69 647 92 q 577 28 611 47 q 495 -2 543 10 q 389 -14 447 -14 q 247 8 311 -14 q 136 67 183 29 q 63 160 89 106 q 38 281 38 214 l 38 382 q 63 492 38 440 q 131 584 88 544 q 232 647 174 624 q 357 669 290 669 m 425 397 q 447 404 440 397 q 454 431 454 411 q 423 493 454 472 q 353 514 392 514 q 284 493 315 514 q 253 431 253 472 l 253 397 l 425 397 m 210 794 q 194 790 201 790 q 163 810 175 790 q 151 854 151 831 q 159 888 151 872 q 186 915 167 904 l 331 993 q 354 1000 344 1000 q 378 993 364 1000 l 522 915 q 549 888 542 904 q 557 854 557 872 q 545 810 557 831 q 514 790 533 790 q 499 794 507 790 l 354 872 l 210 794 z "},"ë":{"ha":689,"x_min":38,"x_max":656,"o":"m 357 669 q 471 650 417 669 q 566 596 525 631 q 631 513 607 561 q 656 406 656 464 q 644 333 656 360 q 613 294 632 307 q 569 279 593 282 q 521 276 544 276 l 253 276 l 253 268 q 292 185 253 217 q 394 154 331 154 q 451 163 426 154 q 497 180 476 171 q 534 197 517 189 q 568 206 551 206 q 601 195 586 206 q 626 170 617 185 q 642 140 636 156 q 647 111 647 124 q 629 69 647 92 q 577 28 611 47 q 495 -2 543 10 q 389 -14 447 -14 q 247 8 311 -14 q 136 67 183 29 q 63 160 89 106 q 38 281 38 214 l 38 382 q 63 492 38 440 q 131 584 88 544 q 232 647 174 624 q 357 669 290 669 m 425 397 q 447 404 440 397 q 454 431 454 411 q 423 493 454 472 q 353 514 392 514 q 284 493 315 514 q 253 431 253 472 l 253 397 l 425 397 m 242 956 q 297 931 274 956 q 319 875 319 907 q 297 818 319 843 q 242 793 274 793 q 186 818 210 793 q 163 875 163 843 q 186 931 163 907 q 242 956 210 956 m 464 956 q 519 931 496 956 q 542 875 542 907 q 519 818 542 843 q 464 793 496 793 q 408 818 432 793 q 385 875 385 843 q 408 931 385 907 q 464 956 432 956 z "},"ė":{"ha":689,"x_min":38,"x_max":656,"o":"m 357 669 q 471 650 417 669 q 566 596 525 631 q 631 513 607 561 q 656 406 656 464 q 644 333 656 360 q 613 294 632 307 q 569 279 593 282 q 521 276 544 276 l 253 276 l 253 268 q 292 185 253 217 q 394 154 331 154 q 451 163 426 154 q 497 180 476 171 q 534 197 517 189 q 568 206 551 206 q 601 195 586 206 q 626 170 617 185 q 642 140 636 156 q 647 111 647 124 q 629 69 647 92 q 577 28 611 47 q 495 -2 543 10 q 389 -14 447 -14 q 247 8 311 -14 q 136 67 183 29 q 63 160 89 106 q 38 281 38 214 l 38 382 q 63 492 38 440 q 131 584 88 544 q 232 647 174 624 q 357 669 290 669 m 425 397 q 447 404 440 397 q 454 431 454 411 q 423 493 454 472 q 353 514 392 514 q 284 493 315 514 q 253 431 253 472 l 253 397 l 425 397 m 354 956 q 409 931 386 956 q 432 875 432 907 q 409 818 432 843 q 354 793 386 793 q 299 818 322 793 q 275 875 275 843 q 299 931 275 907 q 354 956 322 956 z "},"è":{"ha":689,"x_min":38,"x_max":656,"o":"m 357 669 q 471 650 417 669 q 566 596 525 631 q 631 513 607 561 q 656 406 656 464 q 644 333 656 360 q 613 294 632 307 q 569 279 593 282 q 521 276 544 276 l 253 276 l 253 268 q 292 185 253 217 q 394 154 331 154 q 451 163 426 154 q 497 180 476 171 q 534 197 517 189 q 568 206 551 206 q 601 195 586 206 q 626 170 617 185 q 642 140 636 156 q 647 111 647 124 q 629 69 647 92 q 577 28 611 47 q 495 -2 543 10 q 389 -14 447 -14 q 247 8 311 -14 q 136 67 183 29 q 63 160 89 106 q 38 281 38 214 l 38 382 q 63 492 38 440 q 131 584 88 544 q 232 647 174 624 q 357 669 290 669 m 425 397 q 447 404 440 397 q 454 431 454 411 q 423 493 454 472 q 353 514 392 514 q 284 493 315 514 q 253 431 253 472 l 253 397 l 425 397 m 206 872 q 184 892 190 879 q 178 919 178 904 q 183 947 178 933 q 197 973 188 961 q 217 992 206 985 q 243 1000 229 1000 q 263 996 251 1000 l 457 906 q 485 857 485 892 q 467 803 485 829 q 421 776 449 776 q 400 782 414 776 l 206 872 z "},"₈":{"ha":474,"x_min":28,"x_max":444,"o":"m 238 568 q 373 535 321 568 q 425 429 425 501 q 401 351 425 381 q 340 311 378 322 q 417 260 389 296 q 444 165 444 225 l 444 156 q 428 82 444 113 q 385 33 413 51 q 319 5 357 14 q 238 -4 281 -4 q 155 5 193 -4 q 88 33 117 14 q 44 82 60 51 q 28 156 28 113 l 28 165 q 56 260 28 225 q 133 311 85 296 q 72 351 96 322 q 49 429 49 381 q 101 535 49 501 q 238 568 154 568 m 306 192 q 238 254 306 254 q 168 192 168 254 l 168 174 q 186 122 168 138 q 236 106 204 106 q 306 174 306 106 l 306 192 m 238 458 q 183 411 183 458 q 197 376 183 386 q 238 365 211 365 q 276 376 263 365 q 290 411 290 386 q 238 458 290 458 z "},"⁸":{"ha":474,"x_min":28,"x_max":444,"o":"m 238 1015 q 373 982 321 1015 q 425 876 425 949 q 401 799 425 828 q 340 758 378 769 q 417 708 389 743 q 444 613 444 672 l 444 603 q 428 529 444 560 q 385 480 413 499 q 319 452 357 461 q 238 443 281 443 q 155 452 193 443 q 88 480 117 461 q 44 529 60 499 q 28 603 28 560 l 28 613 q 56 708 28 672 q 133 758 85 743 q 72 799 96 769 q 49 876 49 828 q 101 982 49 949 q 238 1015 154 1015 m 306 639 q 238 701 306 701 q 168 639 168 701 l 168 621 q 186 569 168 585 q 236 553 204 553 q 306 621 306 553 l 306 639 m 238 906 q 183 858 183 906 q 197 823 183 833 q 238 813 211 813 q 276 823 263 813 q 290 858 290 833 q 238 906 290 906 z "},"…":{"ha":822,"x_min":32,"x_max":790,"o":"m 139 206 q 213 174 182 206 q 244 99 244 143 q 213 24 244 56 q 139 -8 182 -8 q 63 24 93 -8 q 32 99 32 56 q 63 174 32 143 q 139 206 93 206 m 413 206 q 487 174 456 206 q 518 99 518 143 q 487 24 518 56 q 413 -8 456 -8 q 336 24 367 -8 q 306 99 306 56 q 336 174 306 143 q 413 206 367 206 m 685 206 q 759 174 728 206 q 790 99 790 143 q 759 24 790 56 q 685 -8 728 -8 q 608 24 639 -8 q 578 99 578 56 q 608 174 578 143 q 685 206 639 206 z "},"ē":{"ha":689,"x_min":38,"x_max":656,"o":"m 357 669 q 471 650 417 669 q 566 596 525 631 q 631 513 607 561 q 656 406 656 464 q 644 333 656 360 q 613 294 632 307 q 569 279 593 282 q 521 276 544 276 l 253 276 l 253 268 q 292 185 253 217 q 394 154 331 154 q 451 163 426 154 q 497 180 476 171 q 534 197 517 189 q 568 206 551 206 q 601 195 586 206 q 626 170 617 185 q 642 140 636 156 q 647 111 647 124 q 629 69 647 92 q 577 28 611 47 q 495 -2 543 10 q 389 -14 447 -14 q 247 8 311 -14 q 136 67 183 29 q 63 160 89 106 q 38 281 38 214 l 38 382 q 63 492 38 440 q 131 584 88 544 q 232 647 174 624 q 357 669 290 669 m 425 397 q 447 404 440 397 q 454 431 454 411 q 423 493 454 472 q 353 514 392 514 q 284 493 315 514 q 253 431 253 472 l 253 397 l 425 397 m 151 901 q 169 951 151 931 q 217 971 188 971 l 494 971 q 540 951 519 971 q 561 901 561 931 q 540 852 561 871 q 494 833 519 833 l 217 833 q 169 852 188 833 q 151 901 151 871 z "},"—":{"ha":1051,"x_min":43,"x_max":1010,"o":"m 43 333 q 61 397 43 371 q 108 422 79 422 l 943 422 q 989 397 968 422 q 1010 333 1010 371 q 989 269 1010 293 q 943 246 968 246 l 108 246 q 61 269 79 246 q 43 333 43 293 z "},"–":{"ha":661,"x_min":43,"x_max":619,"o":"m 43 333 q 61 397 43 371 q 108 422 79 422 l 553 422 q 599 397 578 422 q 619 333 619 371 q 599 269 619 293 q 553 246 578 246 l 108 246 q 61 269 79 246 q 43 333 43 293 z "},"ŋ":{"ha":743,"x_min":63,"x_max":686,"o":"m 450 669 q 540 647 497 669 q 615 584 583 624 q 667 491 647 544 q 686 378 686 438 l 686 -39 q 672 -145 686 -97 q 628 -228 657 -193 q 559 -282 600 -262 q 465 -301 518 -301 q 409 -294 431 -301 q 375 -274 388 -286 q 358 -246 363 -261 q 353 -214 353 -231 q 376 -146 353 -171 q 433 -121 400 -121 q 465 -98 458 -121 q 471 -39 471 -75 l 471 378 q 463 416 471 397 q 442 449 456 435 q 410 473 428 464 q 371 482 392 482 q 307 454 336 482 q 278 378 278 426 l 278 67 q 246 21 278 42 q 169 0 214 0 q 92 21 122 0 q 63 67 63 42 l 63 596 q 92 643 63 625 q 169 661 122 661 q 236 643 208 661 q 264 596 264 625 l 264 564 q 332 637 283 604 q 450 669 381 669 z "},"ę":{"ha":689,"x_min":38,"x_max":656,"o":"m 513 -215 q 540 -231 532 -215 q 547 -262 547 -247 q 540 -290 547 -278 q 504 -303 532 -303 q 372 -263 413 -303 q 331 -168 331 -224 q 349 -89 331 -129 q 399 -14 367 -49 l 389 -14 q 247 8 311 -14 q 136 67 183 29 q 63 160 89 106 q 38 281 38 214 l 38 382 q 63 492 38 440 q 131 584 88 544 q 232 647 174 624 q 357 669 290 669 q 471 650 417 669 q 566 596 525 631 q 631 513 607 561 q 656 406 656 464 q 644 333 656 360 q 613 294 632 307 q 569 279 593 282 q 521 276 544 276 l 253 276 l 253 268 q 292 185 253 217 q 394 154 331 154 q 451 163 426 154 q 497 180 476 171 q 534 197 517 189 q 568 206 551 206 q 601 195 586 206 q 626 170 617 185 q 642 140 636 156 q 647 111 647 124 q 619 59 647 86 q 542 13 592 32 q 498 -19 518 0 q 463 -61 478 -39 q 440 -106 449 -83 q 432 -149 432 -128 q 450 -197 432 -178 q 513 -215 468 -215 m 425 397 q 447 404 440 397 q 454 431 454 411 q 423 493 454 472 q 353 514 392 514 q 284 493 315 514 q 253 431 253 472 l 253 397 l 425 397 z "},"=":{"ha":622,"x_min":65,"x_max":558,"o":"m 65 188 q 83 251 65 225 q 131 276 101 276 l 492 276 q 538 251 517 276 q 558 188 558 225 q 538 124 558 147 q 492 100 517 100 l 131 100 q 83 124 101 100 q 65 188 65 147 m 65 469 q 83 533 65 507 q 131 558 101 558 l 492 558 q 538 533 517 558 q 558 469 558 507 q 538 406 558 429 q 492 382 517 382 l 131 382 q 83 406 101 382 q 65 469 65 429 z "},"℮":{"ha":782,"x_min":42,"x_max":743,"o":"m 403 669 q 533 650 471 669 q 641 596 594 631 q 715 513 688 561 q 743 406 743 464 q 731 341 743 364 q 700 307 719 318 q 657 293 681 296 q 608 290 633 290 l 299 290 l 299 282 q 302 219 299 247 q 319 169 306 190 q 358 138 332 149 q 432 126 385 126 q 545 139 503 126 q 613 166 588 151 q 653 193 639 181 q 679 206 667 206 q 701 195 690 206 q 719 170 711 185 q 731 140 726 156 q 735 111 735 124 q 713 69 735 92 q 653 28 692 47 q 558 -2 614 10 q 435 -14 503 -14 q 276 9 349 -14 q 152 74 204 32 q 71 176 100 117 q 42 308 42 236 l 42 354 q 69 475 42 418 q 147 575 97 532 q 262 644 196 618 q 403 669 328 669 m 471 383 q 492 390 485 383 q 500 417 500 397 q 493 483 500 457 q 474 522 486 508 q 442 541 461 536 q 399 546 424 546 q 356 541 375 546 q 325 523 338 536 q 306 484 313 510 q 299 417 299 458 l 299 383 l 471 383 z "},"ð":{"ha":729,"x_min":38,"x_max":675,"o":"m 588 850 q 625 757 608 806 q 653 659 642 708 q 669 563 664 610 q 675 476 675 517 l 675 281 q 649 169 675 222 q 580 75 624 115 q 478 10 536 35 q 357 -14 421 -14 q 235 10 293 -14 q 133 76 176 35 q 63 169 89 117 q 38 281 38 222 l 38 378 q 57 491 38 438 q 110 584 76 544 q 188 647 143 624 q 283 669 232 669 q 392 637 347 669 q 460 564 438 604 q 446 658 460 613 q 411 743 432 703 l 354 708 q 335 703 347 703 q 309 710 322 703 q 285 731 296 718 q 268 758 275 743 q 261 788 261 772 q 283 826 261 813 l 329 854 q 323 860 326 857 q 317 865 319 863 q 288 896 301 881 q 274 938 274 911 q 278 969 274 951 q 296 1002 283 986 q 328 1029 308 1018 q 378 1040 349 1040 q 451 1021 417 1040 q 514 967 485 1001 l 582 1008 q 603 1014 592 1014 q 629 1006 617 1014 q 652 986 642 999 q 669 959 663 974 q 675 931 675 944 q 653 890 675 904 l 588 850 m 253 281 q 283 206 253 239 q 357 174 314 174 q 430 206 400 174 q 460 281 460 239 l 460 378 q 450 422 460 403 q 426 454 440 440 q 392 475 411 468 q 354 482 372 482 q 282 450 311 482 q 253 378 253 418 l 253 281 z "},"!":{"ha":318,"x_min":54,"x_max":267,"o":"m 260 931 q 257 795 260 868 q 250 647 254 722 q 243 498 246 571 q 240 363 240 425 q 213 316 240 331 q 160 301 185 301 q 102 316 126 301 q 78 363 78 331 q 75 498 78 425 q 68 647 72 571 q 61 795 64 722 q 58 931 58 868 q 88 993 58 971 q 160 1015 117 1015 q 230 993 200 1015 q 260 931 260 971 m 161 206 q 235 174 204 206 q 267 99 267 143 q 235 24 267 56 q 161 -8 204 -8 q 85 24 115 -8 q 54 99 54 56 q 85 174 54 143 q 161 206 115 206 z "},"¡":{"ha":318,"x_min":51,"x_max":264,"o":"m 58 76 q 61 212 58 139 q 68 360 64 285 q 75 509 72 436 q 78 644 78 582 q 106 691 78 676 q 158 706 133 706 q 216 691 192 706 q 240 644 240 676 q 243 509 240 582 q 250 360 246 436 q 257 212 254 285 q 260 76 260 139 q 231 14 260 36 q 158 -8 201 -8 q 88 14 118 -8 q 58 76 58 36 m 157 801 q 83 833 114 801 q 51 908 51 864 q 83 983 51 951 q 157 1015 114 1015 q 233 983 203 1015 q 264 908 264 951 q 233 833 264 864 q 157 801 203 801 z "},"f":{"ha":492,"x_min":64,"x_max":489,"o":"m 279 661 l 436 661 q 476 637 463 661 q 489 585 489 613 q 476 532 489 556 q 436 508 463 508 l 279 508 l 279 65 q 247 18 279 36 q 169 0 214 0 q 94 18 125 0 q 64 65 64 36 l 64 760 q 83 871 64 819 q 136 960 103 922 q 214 1018 169 997 q 308 1039 258 1039 l 408 1039 q 469 1010 449 1039 q 489 949 489 982 q 469 886 489 914 q 408 858 449 858 l 356 858 q 301 840 322 858 q 279 783 279 822 l 279 661 z "},"ﬁ":{"ha":819,"x_min":64,"x_max":758,"o":"m 649 661 q 726 643 694 661 q 758 596 758 625 l 758 67 q 726 21 758 42 q 649 0 694 0 q 573 21 603 0 q 543 67 543 42 l 543 596 q 573 643 543 625 q 649 661 603 661 m 429 858 q 372 852 399 858 q 324 831 344 846 q 291 792 303 817 q 279 728 279 767 l 279 661 l 407 661 q 447 637 433 661 q 460 585 460 613 q 447 532 460 556 q 407 508 433 508 l 279 508 l 279 65 q 247 18 279 36 q 169 0 214 0 q 94 18 125 0 q 64 65 64 36 l 64 718 q 90 843 64 785 q 163 945 115 901 q 277 1014 210 989 q 429 1039 344 1039 q 519 1031 475 1039 q 599 1010 564 1024 q 655 978 633 997 q 676 935 676 958 q 672 904 676 925 q 659 862 668 883 q 635 824 650 840 q 601 808 621 808 q 573 816 586 808 q 542 833 560 824 q 497 851 524 843 q 429 858 471 858 z "},"⅝":{"ha":1126,"x_min":29,"x_max":1093,"o":"m 886 568 q 1022 535 969 568 q 1074 429 1074 501 q 1050 351 1074 381 q 989 311 1026 322 q 1065 260 1038 296 q 1093 165 1093 225 l 1093 156 q 1077 82 1093 113 q 1033 33 1061 51 q 967 5 1006 14 q 886 -4 929 -4 q 803 5 842 -4 q 737 33 765 14 q 692 82 708 51 q 676 156 676 113 l 676 165 q 705 260 676 225 q 782 311 733 296 q 721 351 744 322 q 697 429 697 381 q 750 535 697 501 q 886 568 803 568 m 954 192 q 886 254 954 254 q 817 192 817 254 l 817 174 q 835 122 817 138 q 885 106 853 106 q 954 174 954 106 l 954 192 m 886 458 q 832 411 832 458 q 846 376 832 386 q 886 365 860 365 q 925 376 911 365 q 939 411 939 386 q 886 458 939 458 m 808 1072 q 864 1052 838 1072 q 890 999 890 1032 q 885 972 890 983 l 396 -29 q 371 -54 389 -44 q 333 -64 353 -64 q 276 -40 297 -64 q 256 10 256 -17 q 263 36 256 22 l 750 1038 q 774 1064 758 1056 q 808 1072 789 1072 m 238 813 q 319 803 281 813 q 385 774 357 794 q 430 720 414 753 q 446 640 446 688 l 446 625 q 429 541 446 575 q 385 485 413 507 q 319 453 357 463 q 239 443 282 443 q 148 456 188 443 q 82 489 108 468 q 42 536 56 510 q 29 590 29 563 q 48 639 29 626 q 99 651 67 651 q 158 636 146 651 q 169 600 169 621 q 188 573 169 582 q 236 564 207 564 q 287 578 268 564 q 306 625 306 593 l 306 640 q 288 690 306 674 q 238 706 269 706 l 110 706 q 68 720 79 706 q 57 761 57 735 q 57 773 57 768 q 58 786 57 778 l 81 974 q 106 1015 85 1015 l 375 1015 q 406 997 396 1015 q 415 956 415 979 q 406 913 415 932 q 375 894 396 894 l 196 894 l 188 813 l 238 813 z "},"₅":{"ha":456,"x_min":18,"x_max":435,"o":"m 226 365 q 308 356 269 365 q 374 326 346 347 q 419 273 403 306 q 435 193 435 240 l 435 178 q 418 94 435 128 q 374 38 401 60 q 308 6 346 15 q 228 -4 271 -4 q 137 8 176 -4 q 71 42 97 21 q 31 89 44 63 q 18 143 18 115 q 37 192 18 179 q 88 204 56 204 q 147 189 135 204 q 158 153 158 174 q 177 126 158 135 q 225 117 196 117 q 276 131 257 117 q 294 178 294 146 l 294 193 q 276 242 294 226 q 226 258 258 258 l 99 258 q 57 273 68 258 q 46 314 46 288 q 46 326 46 321 q 47 339 46 331 l 69 526 q 94 568 74 568 l 364 568 q 394 550 385 568 q 404 508 404 532 q 394 466 404 485 q 364 447 385 447 l 185 447 l 176 365 l 226 365 z "},"⁵":{"ha":456,"x_min":18,"x_max":435,"o":"m 226 813 q 308 803 269 813 q 374 774 346 794 q 419 720 403 753 q 435 640 435 688 l 435 625 q 418 541 435 575 q 374 485 401 507 q 308 453 346 463 q 228 443 271 443 q 137 456 176 443 q 71 489 97 468 q 31 536 44 510 q 18 590 18 563 q 37 639 18 626 q 88 651 56 651 q 147 636 135 651 q 158 600 158 621 q 177 573 158 582 q 225 564 196 564 q 276 578 257 564 q 294 625 294 593 l 294 640 q 276 690 294 674 q 226 706 258 706 l 99 706 q 57 720 68 706 q 46 761 46 735 q 46 773 46 768 q 47 786 46 778 l 69 974 q 94 1015 74 1015 l 364 1015 q 394 997 385 1015 q 404 956 404 979 q 394 913 404 932 q 364 894 385 894 l 185 894 l 176 813 l 226 813 z "},"ﬂ":{"ha":836,"x_min":64,"x_max":761,"o":"m 546 840 q 503 854 531 849 q 447 860 475 860 q 385 852 415 860 q 332 828 356 844 q 294 786 308 811 q 279 728 279 761 l 279 661 l 407 661 q 447 637 433 661 q 460 585 460 613 q 447 532 460 556 q 407 508 433 508 l 279 508 l 279 65 q 247 18 279 36 q 169 0 214 0 q 94 18 125 0 q 64 65 64 36 l 64 718 q 96 856 64 796 q 182 956 128 915 q 308 1018 236 997 q 457 1039 379 1039 q 540 1033 496 1039 q 625 1017 583 1028 q 703 991 667 1007 q 761 954 739 975 l 761 67 q 729 21 761 42 q 651 0 697 0 q 576 21 606 0 q 546 67 546 42 l 546 840 z "},"ƒ":{"ha":604,"x_min":-53,"x_max":658,"o":"m 388 635 l 549 635 q 588 610 575 635 q 601 558 601 586 q 588 506 601 529 q 549 482 575 482 l 365 482 l 314 114 q 286 -2 306 53 q 234 -99 267 -57 q 156 -165 201 -140 q 47 -190 110 -190 l 11 -190 q -36 -162 -19 -190 q -53 -96 -53 -133 q -33 -21 -53 -51 q 18 10 -12 10 l 50 10 q 84 40 71 10 q 104 114 97 69 l 193 778 q 229 890 201 838 q 299 982 257 943 q 394 1044 342 1021 q 506 1067 447 1067 l 596 1067 q 641 1040 624 1067 q 658 976 658 1014 q 638 906 658 933 q 589 879 617 879 l 504 879 q 438 853 461 879 q 408 778 415 826 l 388 635 z "},"₄":{"ha":454,"x_min":-1,"x_max":454,"o":"m 238 117 l 44 117 q 12 128 25 117 q -1 164 -1 140 q 6 189 -1 176 l 196 533 q 222 560 207 553 q 254 568 238 568 q 275 565 263 568 q 298 554 288 561 q 316 538 308 547 q 324 517 324 529 q 319 500 324 508 l 178 244 l 238 244 l 238 274 q 259 306 238 296 q 307 315 281 315 q 356 306 335 315 q 378 274 378 296 l 378 244 l 413 244 q 444 224 433 244 q 454 181 454 204 q 441 137 454 157 q 413 117 428 117 l 378 117 l 378 42 q 356 10 378 21 q 307 0 335 0 q 259 10 281 0 q 238 42 238 21 l 238 117 z "},"⁴":{"ha":456,"x_min":-1,"x_max":454,"o":"m 238 564 l 44 564 q 12 576 25 564 q -1 611 -1 588 q 6 636 -1 624 l 196 981 q 222 1008 207 1000 q 254 1015 238 1015 q 275 1012 263 1015 q 298 1001 288 1008 q 316 985 308 994 q 324 964 324 976 q 319 947 324 956 l 178 692 l 238 692 l 238 721 q 259 753 238 743 q 307 763 281 763 q 356 753 335 763 q 378 721 378 743 l 378 692 l 413 692 q 444 672 433 692 q 454 628 454 651 q 441 584 454 604 q 413 564 428 564 l 378 564 l 378 489 q 356 458 378 468 q 307 447 335 447 q 259 458 281 447 q 238 489 238 468 l 238 564 z "},"⁄":{"ha":275,"x_min":-181,"x_max":454,"o":"m 372 1072 q 428 1052 401 1072 q 454 999 454 1032 q 449 972 454 983 l -40 -29 q -65 -54 -47 -44 q -103 -64 -83 -64 q -160 -40 -139 -64 q -181 10 -181 -17 q -174 36 -181 22 l 314 1038 q 338 1064 322 1056 q 372 1072 353 1072 z "},"g":{"ha":664,"x_min":17,"x_max":647,"o":"m 325 188 q 242 196 279 188 q 236 178 236 186 q 267 151 236 158 q 343 137 297 143 q 442 122 389 131 q 540 90 494 113 q 617 29 586 68 q 647 -75 647 -10 q 620 -179 647 -136 q 549 -249 593 -222 q 448 -289 504 -276 q 333 -301 392 -301 q 214 -288 271 -301 q 113 -249 157 -275 q 43 -186 69 -224 q 17 -100 17 -149 q 43 -15 17 -50 q 110 44 69 21 q 73 78 86 58 q 60 131 60 99 q 79 194 60 169 q 131 243 99 219 q 64 320 88 275 q 40 419 40 365 l 40 440 q 60 533 40 490 q 118 606 81 575 q 208 653 156 636 q 325 669 261 669 q 410 660 369 669 q 482 636 450 651 q 525 715 507 696 q 561 733 543 733 q 622 711 600 733 q 643 669 643 689 q 621 628 643 647 q 592 605 608 617 q 561 578 576 593 q 614 440 614 521 l 614 419 q 592 327 614 369 q 533 253 571 285 q 442 205 494 222 q 325 188 389 188 m 406 440 q 385 514 406 483 q 326 544 365 544 q 269 514 289 544 q 249 440 249 483 l 249 421 q 269 344 249 375 q 328 313 289 313 q 385 342 364 313 q 406 419 406 372 l 406 440 m 439 -81 q 426 -42 439 -57 q 390 -17 413 -26 q 337 -3 367 -8 q 275 6 307 1 q 233 -31 247 -10 q 219 -78 219 -53 q 253 -143 219 -121 q 329 -165 288 -165 q 405 -143 371 -165 q 439 -81 439 -121 z "},"ğ":{"ha":664,"x_min":17,"x_max":647,"o":"m 325 188 q 242 196 279 188 q 236 178 236 186 q 267 151 236 158 q 343 137 297 143 q 442 122 389 131 q 540 90 494 113 q 617 29 586 68 q 647 -75 647 -10 q 620 -179 647 -136 q 549 -249 593 -222 q 448 -289 504 -276 q 333 -301 392 -301 q 214 -288 271 -301 q 113 -249 157 -275 q 43 -186 69 -224 q 17 -100 17 -149 q 43 -15 17 -50 q 110 44 69 21 q 73 78 86 58 q 60 131 60 99 q 79 194 60 169 q 131 243 99 219 q 64 320 88 275 q 40 419 40 365 l 40 440 q 60 533 40 490 q 118 606 81 575 q 208 653 156 636 q 325 669 261 669 q 410 660 369 669 q 482 636 450 651 q 525 715 507 696 q 561 733 543 733 q 622 711 600 733 q 643 669 643 689 q 621 628 643 647 q 592 605 608 617 q 561 578 576 593 q 614 440 614 521 l 614 419 q 592 327 614 369 q 533 253 571 285 q 442 205 494 222 q 325 188 389 188 m 406 440 q 385 514 406 483 q 326 544 365 544 q 269 514 289 544 q 249 440 249 483 l 249 421 q 269 344 249 375 q 328 313 289 313 q 385 342 364 313 q 406 419 406 372 l 406 440 m 439 -81 q 426 -42 439 -57 q 390 -17 413 -26 q 337 -3 367 -8 q 275 6 307 1 q 233 -31 247 -10 q 219 -78 219 -53 q 253 -143 219 -121 q 329 -165 288 -165 q 405 -143 371 -165 q 439 -81 439 -121 m 519 1006 q 503 932 519 967 q 460 871 488 897 q 399 828 433 844 q 326 813 364 813 q 253 828 289 813 q 191 871 218 844 q 148 932 164 897 q 132 1006 132 967 l 243 1006 q 269 933 243 961 q 326 904 296 904 q 382 933 356 904 q 408 1006 408 961 l 519 1006 z "},"ĝ":{"ha":664,"x_min":17,"x_max":647,"o":"m 325 188 q 242 196 279 188 q 236 178 236 186 q 267 151 236 158 q 343 137 297 143 q 442 122 389 131 q 540 90 494 113 q 617 29 586 68 q 647 -75 647 -10 q 620 -179 647 -136 q 549 -249 593 -222 q 448 -289 504 -276 q 333 -301 392 -301 q 214 -288 271 -301 q 113 -249 157 -275 q 43 -186 69 -224 q 17 -100 17 -149 q 43 -15 17 -50 q 110 44 69 21 q 73 78 86 58 q 60 131 60 99 q 79 194 60 169 q 131 243 99 219 q 64 320 88 275 q 40 419 40 365 l 40 440 q 60 533 40 490 q 118 606 81 575 q 208 653 156 636 q 325 669 261 669 q 410 660 369 669 q 482 636 450 651 q 525 715 507 696 q 561 733 543 733 q 622 711 600 733 q 643 669 643 689 q 621 628 643 647 q 592 605 608 617 q 561 578 576 593 q 614 440 614 521 l 614 419 q 592 327 614 369 q 533 253 571 285 q 442 205 494 222 q 325 188 389 188 m 406 440 q 385 514 406 483 q 326 544 365 544 q 269 514 289 544 q 249 440 249 483 l 249 421 q 269 344 249 375 q 328 313 289 313 q 385 342 364 313 q 406 419 406 372 l 406 440 m 439 -81 q 426 -42 439 -57 q 390 -17 413 -26 q 337 -3 367 -8 q 275 6 307 1 q 233 -31 247 -10 q 219 -78 219 -53 q 253 -143 219 -121 q 329 -165 288 -165 q 405 -143 371 -165 q 439 -81 439 -121 m 182 794 q 167 790 174 790 q 135 810 147 790 q 124 854 124 831 q 131 888 124 872 q 158 915 139 904 l 303 993 q 326 1000 317 1000 q 350 993 336 1000 l 494 915 q 522 888 514 904 q 529 854 529 872 q 517 810 529 831 q 486 790 506 790 q 471 794 479 790 l 326 872 l 182 794 z "},"ģ":{"ha":664,"x_min":17,"x_max":647,"o":"m 325 188 q 242 196 279 188 q 236 178 236 186 q 267 151 236 158 q 343 137 297 143 q 442 122 389 131 q 540 90 494 113 q 617 29 586 68 q 647 -75 647 -10 q 620 -179 647 -136 q 549 -249 593 -222 q 448 -289 504 -276 q 333 -301 392 -301 q 214 -288 271 -301 q 113 -249 157 -275 q 43 -186 69 -224 q 17 -100 17 -149 q 43 -15 17 -50 q 110 44 69 21 q 73 78 86 58 q 60 131 60 99 q 79 194 60 169 q 131 243 99 219 q 64 320 88 275 q 40 419 40 365 l 40 440 q 60 533 40 490 q 118 606 81 575 q 208 653 156 636 q 325 669 261 669 q 410 660 369 669 q 482 636 450 651 q 525 715 507 696 q 561 733 543 733 q 622 711 600 733 q 643 669 643 689 q 621 628 643 647 q 592 605 608 617 q 561 578 576 593 q 614 440 614 521 l 614 419 q 592 327 614 369 q 533 253 571 285 q 442 205 494 222 q 325 188 389 188 m 406 440 q 385 514 406 483 q 326 544 365 544 q 269 514 289 544 q 249 440 249 483 l 249 421 q 269 344 249 375 q 328 313 289 313 q 385 342 364 313 q 406 419 406 372 l 406 440 m 439 -81 q 426 -42 439 -57 q 390 -17 413 -26 q 337 -3 367 -8 q 275 6 307 1 q 233 -31 247 -10 q 219 -78 219 -53 q 253 -143 219 -121 q 329 -165 288 -165 q 405 -143 371 -165 q 439 -81 439 -121 m 338 1036 q 262 1067 293 1036 q 231 1142 231 1099 q 233 1156 231 1147 q 243 1188 235 1165 q 269 1251 251 1210 q 317 1364 286 1293 q 335 1384 324 1379 q 358 1389 347 1389 q 404 1375 381 1389 q 428 1335 428 1361 q 422 1313 428 1324 l 388 1238 q 428 1198 413 1222 q 443 1143 443 1174 q 413 1067 443 1099 q 338 1036 382 1036 m 289 782 q 268 776 275 776 q 222 803 240 776 q 204 857 204 829 q 232 906 204 892 l 426 996 q 446 1000 436 1000 q 472 992 460 1000 q 492 973 483 985 q 506 947 501 961 q 511 919 511 933 q 505 892 511 904 q 483 872 499 879 l 289 782 z "},"ġ":{"ha":664,"x_min":17,"x_max":647,"o":"m 325 188 q 242 196 279 188 q 236 178 236 186 q 267 151 236 158 q 343 137 297 143 q 442 122 389 131 q 540 90 494 113 q 617 29 586 68 q 647 -75 647 -10 q 620 -179 647 -136 q 549 -249 593 -222 q 448 -289 504 -276 q 333 -301 392 -301 q 214 -288 271 -301 q 113 -249 157 -275 q 43 -186 69 -224 q 17 -100 17 -149 q 43 -15 17 -50 q 110 44 69 21 q 73 78 86 58 q 60 131 60 99 q 79 194 60 169 q 131 243 99 219 q 64 320 88 275 q 40 419 40 365 l 40 440 q 60 533 40 490 q 118 606 81 575 q 208 653 156 636 q 325 669 261 669 q 410 660 369 669 q 482 636 450 651 q 525 715 507 696 q 561 733 543 733 q 622 711 600 733 q 643 669 643 689 q 621 628 643 647 q 592 605 608 617 q 561 578 576 593 q 614 440 614 521 l 614 419 q 592 327 614 369 q 533 253 571 285 q 442 205 494 222 q 325 188 389 188 m 406 440 q 385 514 406 483 q 326 544 365 544 q 269 514 289 544 q 249 440 249 483 l 249 421 q 269 344 249 375 q 328 313 289 313 q 385 342 364 313 q 406 419 406 372 l 406 440 m 439 -81 q 426 -42 439 -57 q 390 -17 413 -26 q 337 -3 367 -8 q 275 6 307 1 q 233 -31 247 -10 q 219 -78 219 -53 q 253 -143 219 -121 q 329 -165 288 -165 q 405 -143 371 -165 q 439 -81 439 -121 m 326 956 q 381 931 358 956 q 404 875 404 907 q 381 818 404 843 q 326 793 358 793 q 271 818 294 793 q 247 875 247 843 q 271 931 247 907 q 326 956 294 956 z "},"ß":{"ha":857,"x_min":-1,"x_max":825,"o":"m 499 -28 q 448 -26 472 -28 q 405 -15 424 -24 q 375 13 386 -6 q 364 65 364 32 q 367 97 364 79 q 376 130 369 114 q 391 156 382 146 q 414 167 400 167 q 450 160 429 167 q 500 154 471 154 q 584 187 554 154 q 614 278 614 219 l 614 293 q 601 378 614 344 q 567 432 588 411 q 519 465 546 453 q 464 486 492 476 q 440 495 451 490 q 422 510 429 500 q 410 535 414 519 q 406 574 406 550 q 421 631 406 618 q 465 651 436 643 q 494 669 483 657 q 510 696 504 681 q 517 728 515 711 q 519 760 519 744 q 499 844 519 810 q 424 879 478 879 q 353 848 371 879 q 335 778 335 817 l 335 65 q 302 18 335 36 q 225 0 269 0 q 150 18 181 0 q 119 65 119 36 l 119 508 l 51 508 q 12 532 25 508 q -1 585 -1 556 q 12 637 -1 613 q 51 661 25 661 l 119 661 l 119 778 q 135 888 119 836 q 184 980 150 940 q 273 1043 218 1019 q 407 1067 328 1067 q 519 1051 467 1067 q 610 1004 571 1036 q 672 924 649 972 q 694 808 694 875 q 688 742 694 775 q 670 681 682 710 q 641 631 658 653 q 603 599 624 610 q 680 569 640 592 q 752 509 719 546 q 805 422 785 472 q 825 313 825 372 l 825 297 q 799 159 825 219 q 727 57 772 99 q 623 -6 682 15 q 499 -28 564 -28 z "},"`":{"ha":307,"x_min":0,"x_max":307,"o":"m 28 872 q 6 892 13 879 q 0 919 0 904 q 5 947 0 933 q 19 973 10 961 q 40 992 28 985 q 65 1000 51 1000 q 85 996 74 1000 l 279 906 q 307 857 307 892 q 289 803 307 829 q 243 776 271 776 q 222 782 236 776 l 28 872 z "},">":{"ha":593,"x_min":50,"x_max":567,"o":"m 567 385 q 557 344 567 367 q 524 307 547 322 l 171 78 q 144 71 163 71 q 113 78 129 71 q 82 100 96 86 q 59 133 68 114 q 50 172 50 151 q 75 226 50 211 l 319 385 l 75 543 q 50 597 50 558 q 59 637 50 618 q 82 669 68 656 q 113 691 96 683 q 144 699 129 699 q 171 692 163 699 l 524 463 q 557 425 547 447 q 567 385 567 403 z "},"≥":{"ha":614,"x_min":57,"x_max":574,"o":"m 326 507 l 93 607 q 66 630 74 615 q 58 661 58 644 q 66 697 58 679 q 87 731 74 715 q 117 756 100 746 q 151 765 133 765 q 178 758 164 765 l 531 585 q 565 549 557 572 q 574 507 574 525 q 565 465 574 489 q 531 429 557 442 l 178 256 q 151 249 164 249 q 117 258 133 249 q 87 283 100 268 q 66 317 74 299 q 58 353 58 335 q 66 384 58 369 q 93 407 74 399 l 326 507 m 574 117 q 556 53 574 76 q 508 29 538 29 l 124 29 q 78 53 99 29 q 57 117 57 76 q 78 180 57 154 q 124 206 99 206 l 508 206 q 556 180 538 206 q 574 117 574 154 z "},"«":{"ha":746,"x_min":29,"x_max":703,"o":"m 351 231 q 356 211 356 222 q 344 176 356 194 q 315 141 333 157 q 271 114 296 125 q 219 103 246 103 q 183 110 199 103 q 161 129 168 117 l 68 303 q 40 349 51 335 q 29 383 29 364 q 40 419 29 403 q 68 467 51 435 l 161 640 q 183 660 168 653 q 219 667 199 667 q 271 656 246 667 q 315 628 296 644 q 344 594 333 613 q 356 558 356 575 q 351 539 356 547 l 269 385 l 351 231 m 699 231 q 703 211 703 222 q 692 176 703 194 q 662 141 681 157 q 618 114 643 125 q 567 103 593 103 q 531 110 546 103 q 508 129 515 117 l 415 303 q 388 349 399 335 q 376 383 376 364 q 388 419 376 403 q 415 467 399 435 l 508 640 q 531 660 515 653 q 567 667 546 667 q 618 656 593 667 q 662 628 643 644 q 692 594 681 613 q 703 558 703 575 q 699 539 703 547 l 617 385 l 699 231 z "},"»":{"ha":746,"x_min":43,"x_max":717,"o":"m 476 385 l 394 539 q 390 558 390 547 q 401 594 390 575 q 431 628 413 613 q 474 656 450 644 q 526 667 499 667 q 585 640 571 667 l 678 467 q 706 419 694 435 q 717 383 717 403 q 706 349 717 364 q 678 303 694 335 l 585 129 q 526 103 571 103 q 474 114 499 103 q 431 141 450 125 q 401 176 413 157 q 390 211 390 194 q 394 231 390 222 l 476 385 m 129 385 l 47 539 q 43 558 43 547 q 54 594 43 575 q 84 628 65 613 q 127 656 103 644 q 179 667 151 667 q 238 640 224 667 l 331 467 q 358 419 347 435 q 369 383 369 403 q 358 349 369 364 q 331 303 347 335 l 238 129 q 179 103 224 103 q 127 114 151 103 q 84 141 103 125 q 54 176 65 157 q 43 211 43 194 q 47 231 43 222 l 129 385 z "},"‹":{"ha":399,"x_min":29,"x_max":356,"o":"m 351 231 q 356 211 356 222 q 344 176 356 194 q 315 141 333 157 q 271 114 296 125 q 219 103 246 103 q 183 110 199 103 q 161 129 168 117 l 68 303 q 40 349 51 335 q 29 383 29 364 q 40 419 29 403 q 68 467 51 435 l 161 640 q 183 660 168 653 q 219 667 199 667 q 271 656 246 667 q 315 628 296 644 q 344 594 333 613 q 356 558 356 575 q 351 539 356 547 l 269 385 l 351 231 z "},"›":{"ha":399,"x_min":43,"x_max":369,"o":"m 129 385 l 47 539 q 43 558 43 547 q 54 594 43 575 q 84 628 65 613 q 127 656 103 644 q 179 667 151 667 q 238 640 224 667 l 331 467 q 358 419 347 435 q 369 383 369 403 q 358 349 369 364 q 331 303 347 335 l 238 129 q 179 103 224 103 q 127 114 151 103 q 84 141 103 125 q 54 176 65 157 q 43 211 43 194 q 47 231 43 222 l 129 385 z "},"h":{"ha":743,"x_min":64,"x_max":688,"o":"m 279 67 q 247 21 279 42 q 171 0 215 0 q 94 21 124 0 q 64 67 64 42 l 64 974 q 94 1021 64 1003 q 171 1039 124 1039 q 247 1021 215 1039 q 279 974 279 1003 l 279 564 q 342 637 299 604 q 451 669 386 669 q 542 647 499 669 q 617 584 585 624 q 668 491 649 544 q 688 378 688 438 l 688 67 q 653 17 688 33 q 579 0 619 0 q 541 4 560 0 q 507 17 522 8 q 482 38 492 25 q 472 67 472 50 l 472 378 q 464 416 472 397 q 442 449 456 435 q 411 473 429 464 q 372 482 393 482 q 308 454 338 482 q 279 378 279 426 l 279 67 z "},"ħ":{"ha":743,"x_min":-33,"x_max":688,"o":"m -33 825 q -15 874 -33 854 q 32 894 3 894 l 64 894 l 64 974 q 94 1021 64 1003 q 171 1039 124 1039 q 247 1021 215 1039 q 279 974 279 1003 l 279 894 l 310 894 q 356 874 335 894 q 376 825 376 854 q 356 776 376 794 q 310 757 335 757 l 279 757 l 279 564 q 342 637 299 604 q 451 669 386 669 q 542 647 499 669 q 617 584 585 624 q 668 491 649 544 q 688 378 688 438 l 688 67 q 653 17 688 33 q 579 0 619 0 q 541 4 560 0 q 507 17 522 8 q 482 38 492 25 q 472 67 472 50 l 472 378 q 464 416 472 397 q 442 449 456 435 q 411 473 429 464 q 372 482 393 482 q 308 454 338 482 q 279 378 279 426 l 279 67 q 247 21 279 42 q 171 0 215 0 q 94 21 124 0 q 64 67 64 42 l 64 757 l 32 757 q -15 776 3 757 q -33 825 -33 794 z "},"ĥ":{"ha":743,"x_min":-36,"x_max":688,"o":"m 279 67 q 247 21 279 42 q 171 0 215 0 q 94 21 124 0 q 64 67 64 42 l 64 974 q 94 1021 64 1003 q 171 1039 124 1039 q 247 1021 215 1039 q 279 974 279 1003 l 279 564 q 342 637 299 604 q 451 669 386 669 q 542 647 499 669 q 617 584 585 624 q 668 491 649 544 q 688 378 688 438 l 688 67 q 653 17 688 33 q 579 0 619 0 q 541 4 560 0 q 507 17 522 8 q 482 38 492 25 q 472 67 472 50 l 472 378 q 464 416 472 397 q 442 449 456 435 q 411 473 429 464 q 372 482 393 482 q 308 454 338 482 q 279 378 279 426 l 279 67 m 22 1149 q 7 1144 14 1144 q -24 1165 -12 1144 q -36 1208 -36 1185 q -28 1242 -36 1226 q -1 1269 -21 1258 l 143 1347 q 167 1354 157 1354 q 190 1347 176 1354 l 335 1269 q 362 1242 354 1258 q 369 1208 369 1226 q 358 1165 369 1185 q 326 1144 346 1144 q 311 1149 319 1144 l 167 1226 l 22 1149 z "},"˝":{"ha":433,"x_min":0,"x_max":433,"o":"m 93 788 q 64 772 82 772 q 20 792 40 772 q 0 833 0 813 q 10 857 0 846 l 119 989 q 134 1000 126 997 q 150 1003 142 1003 q 192 983 172 1003 q 211 943 211 963 q 203 919 211 929 l 93 788 m 315 788 q 286 772 304 772 q 242 792 263 772 q 222 833 222 813 q 232 857 222 846 l 342 989 q 356 1000 349 997 q 372 1003 364 1003 q 414 983 394 1003 q 433 943 433 963 q 425 919 433 929 l 315 788 z "},"-":{"ha":578,"x_min":43,"x_max":536,"o":"m 43 333 q 61 397 43 371 q 108 422 79 422 l 469 422 q 515 397 494 422 q 536 333 536 371 q 515 269 536 293 q 469 246 494 246 l 108 246 q 61 269 79 246 q 43 333 43 293 z "},"i":{"ha":339,"x_min":56,"x_max":282,"o":"m 169 661 q 246 643 214 661 q 278 596 278 625 l 278 67 q 246 21 278 42 q 169 0 214 0 q 92 21 122 0 q 63 67 63 42 l 63 596 q 92 643 63 625 q 169 661 122 661 m 169 988 q 249 958 217 988 q 282 889 282 929 q 249 819 282 849 q 169 789 217 789 q 88 819 121 789 q 56 889 56 849 q 88 958 56 929 q 169 988 121 988 z "},"í":{"ha":339,"x_min":46,"x_max":353,"o":"m 169 661 q 246 643 214 661 q 278 596 278 625 l 278 67 q 246 21 278 42 q 169 0 214 0 q 92 21 122 0 q 63 67 63 42 l 63 596 q 92 643 63 625 q 169 661 122 661 m 131 782 q 110 776 117 776 q 64 803 82 776 q 46 857 46 829 q 74 906 46 892 l 268 996 q 288 1000 278 1000 q 313 992 301 1000 q 334 973 325 985 q 348 947 343 961 q 353 919 353 933 q 347 892 353 904 q 325 872 340 879 l 131 782 z "},"ĭ":{"ha":339,"x_min":-24,"x_max":364,"o":"m 169 661 q 246 643 214 661 q 278 596 278 625 l 278 67 q 246 21 278 42 q 169 0 214 0 q 92 21 122 0 q 63 67 63 42 l 63 596 q 92 643 63 625 q 169 661 122 661 m 364 1006 q 348 932 364 967 q 305 871 332 897 q 243 828 278 844 q 171 813 208 813 q 98 828 133 813 q 35 871 63 844 q -8 932 8 897 q -24 1006 -24 967 l 88 1006 q 114 933 88 961 q 171 904 140 904 q 226 933 200 904 q 253 1006 253 961 l 364 1006 z "},"î":{"ha":339,"x_min":-32,"x_max":374,"o":"m 169 661 q 246 643 214 661 q 278 596 278 625 l 278 67 q 246 21 278 42 q 169 0 214 0 q 92 21 122 0 q 63 67 63 42 l 63 596 q 92 643 63 625 q 169 661 122 661 m 26 794 q 11 790 18 790 q -20 810 -8 790 q -32 854 -32 831 q -24 888 -32 872 q 3 915 -17 904 l 147 993 q 171 1000 161 1000 q 194 993 181 1000 l 339 915 q 366 888 358 904 q 374 854 374 872 q 362 810 374 831 q 331 790 350 790 q 315 794 324 790 l 171 872 l 26 794 z "},"ï":{"ha":339,"x_min":-14,"x_max":365,"o":"m 169 661 q 246 643 214 661 q 278 596 278 625 l 278 67 q 246 21 278 42 q 169 0 214 0 q 92 21 122 0 q 63 67 63 42 l 63 596 q 92 643 63 625 q 169 661 122 661 m 65 956 q 120 931 97 956 q 143 875 143 907 q 120 818 143 843 q 65 793 97 793 q 10 818 33 793 q -14 875 -14 843 q 10 931 -14 907 q 65 956 33 956 m 288 956 q 342 931 319 956 q 365 875 365 907 q 342 818 365 843 q 288 793 319 793 q 232 818 256 793 q 208 875 208 843 q 232 931 208 907 q 288 956 256 956 z "},"ì":{"ha":339,"x_min":-10,"x_max":297,"o":"m 169 661 q 246 643 214 661 q 278 596 278 625 l 278 67 q 246 21 278 42 q 169 0 214 0 q 92 21 122 0 q 63 67 63 42 l 63 596 q 92 643 63 625 q 169 661 122 661 m 18 872 q -3 892 3 879 q -10 919 -10 904 q -5 947 -10 933 q 9 973 0 961 q 30 992 18 985 q 56 1000 42 1000 q 75 996 64 1000 l 269 906 q 297 857 297 892 q 279 803 297 829 q 233 776 261 776 q 213 782 226 776 l 18 872 z "},"ĳ":{"ha":643,"x_min":56,"x_max":585,"o":"m 169 661 q 246 643 214 661 q 278 596 278 625 l 278 67 q 246 21 278 42 q 169 0 214 0 q 92 21 122 0 q 63 67 63 42 l 63 596 q 92 643 63 625 q 169 661 122 661 m 169 988 q 249 958 217 988 q 282 889 282 929 q 249 819 282 849 q 169 789 217 789 q 88 819 121 789 q 56 889 56 849 q 88 958 56 929 q 169 988 121 988 m 472 988 q 552 958 519 988 q 585 889 585 929 q 552 819 585 849 q 472 789 519 789 q 391 819 424 789 q 358 889 358 849 q 391 958 358 929 q 472 988 424 988 m 471 661 q 549 643 517 661 q 581 596 581 625 l 581 -39 q 566 -145 581 -97 q 523 -228 551 -193 q 453 -282 494 -262 q 360 -301 413 -301 q 303 -294 325 -301 q 269 -274 282 -286 q 252 -246 257 -261 q 247 -214 247 -231 q 271 -146 247 -171 q 328 -121 294 -121 q 359 -98 353 -121 q 365 -39 365 -75 l 365 596 q 395 643 365 625 q 471 661 425 661 z "},"ī":{"ha":339,"x_min":-33,"x_max":376,"o":"m 169 661 q 246 643 214 661 q 278 596 278 625 l 278 67 q 246 21 278 42 q 169 0 214 0 q 92 21 122 0 q 63 67 63 42 l 63 596 q 92 643 63 625 q 169 661 122 661 m -33 901 q -15 951 -33 931 q 32 971 3 971 l 310 971 q 356 951 335 971 q 376 901 376 931 q 356 852 376 871 q 310 833 335 833 l 32 833 q -15 852 3 833 q -33 901 -33 871 z "},"∞":{"ha":1274,"x_min":44,"x_max":1229,"o":"m 363 629 q 513 585 439 629 q 636 464 588 542 q 759 585 685 542 q 911 629 833 629 q 1030 610 972 629 q 1132 554 1088 592 q 1203 460 1176 517 q 1229 328 1229 403 q 1203 196 1229 253 q 1132 101 1176 139 q 1030 45 1088 64 q 910 26 972 26 q 759 69 833 26 q 636 190 685 113 q 513 69 588 113 q 363 26 439 26 q 244 45 301 26 q 142 101 186 64 q 71 196 97 139 q 44 328 44 253 q 71 460 44 403 q 142 554 97 517 q 244 610 186 592 q 363 629 301 629 m 707 328 q 747 272 724 296 q 798 233 771 249 q 854 209 825 217 q 910 201 883 201 q 1001 232 963 201 q 1040 328 1040 263 q 1001 424 1040 393 q 910 454 963 454 q 854 447 883 454 q 798 423 825 439 q 747 383 771 407 q 707 328 724 360 m 567 328 q 526 383 550 360 q 476 423 503 407 q 419 447 449 439 q 364 454 390 454 q 272 424 311 454 q 233 328 233 393 q 272 232 233 263 q 364 201 311 201 q 419 209 390 201 q 476 233 449 217 q 526 272 503 249 q 567 328 550 296 z "},"∫":{"ha":506,"x_min":-7,"x_max":514,"o":"m 449 1039 q 491 1017 468 1039 q 514 960 514 996 q 510 933 514 947 q 500 906 507 918 q 480 885 493 893 q 449 876 467 876 q 406 872 422 876 q 379 857 389 868 q 365 827 369 846 q 361 778 361 808 l 361 -4 q 351 -101 361 -53 q 310 -190 340 -150 q 223 -253 279 -229 q 75 -278 167 -278 q 16 -253 39 -278 q -7 -197 -7 -229 q 11 -137 -7 -165 q 64 -110 29 -110 q 128 -84 113 -110 q 144 -6 144 -58 l 144 786 q 157 886 144 840 q 203 966 169 932 q 297 1019 238 1000 q 449 1039 356 1039 z "},"į":{"ha":339,"x_min":18,"x_max":282,"o":"m 200 -215 q 227 -231 219 -215 q 235 -262 235 -247 q 227 -290 235 -278 q 192 -303 219 -303 q 59 -263 100 -303 q 18 -168 18 -224 q 43 -74 18 -122 q 113 10 68 -26 q 76 35 89 19 q 63 67 63 50 l 63 596 q 92 643 63 625 q 169 661 122 661 q 246 643 214 661 q 278 596 278 625 l 278 67 q 264 35 278 50 q 228 11 250 21 q 185 -20 204 -1 q 151 -61 165 -39 q 128 -106 136 -83 q 119 -149 119 -128 q 138 -197 119 -178 q 200 -215 156 -215 m 169 988 q 249 958 217 988 q 282 889 282 929 q 249 819 282 849 q 169 789 217 789 q 88 819 121 789 q 56 889 56 849 q 88 958 56 929 q 169 988 121 988 z "},"ĩ":{"ha":339,"x_min":-75,"x_max":418,"o":"m 169 661 q 246 643 214 661 q 278 596 278 625 l 278 67 q 246 21 278 42 q 169 0 214 0 q 92 21 122 0 q 63 67 63 42 l 63 596 q 92 643 63 625 q 169 661 122 661 m 97 842 q 58 837 75 842 q 28 827 42 832 q 2 817 14 822 q -22 813 -10 813 q -49 821 -39 813 q -65 841 -58 829 q -73 864 -71 853 q -75 881 -75 875 q -60 938 -75 918 q -26 968 -46 958 q 14 980 -6 978 q 43 982 33 982 q 100 976 75 982 q 148 963 125 971 q 194 950 171 956 q 246 944 217 944 q 285 949 268 944 q 315 959 301 954 q 341 969 329 964 q 365 974 353 974 q 392 965 382 974 q 408 944 401 956 q 416 922 414 933 q 418 906 418 911 q 403 848 418 868 q 369 818 389 828 q 329 806 349 808 q 300 804 310 804 q 236 810 263 804 q 187 823 210 815 q 143 836 164 831 q 97 842 122 842 z "},"j":{"ha":340,"x_min":-56,"x_max":282,"o":"m 169 988 q 249 958 217 988 q 282 889 282 929 q 249 819 282 849 q 169 789 217 789 q 88 819 121 789 q 56 889 56 849 q 88 958 56 929 q 169 988 121 988 m 168 661 q 246 643 214 661 q 278 596 278 625 l 278 -39 q 263 -145 278 -97 q 220 -228 249 -193 q 151 -282 192 -262 q 57 -301 110 -301 q 1 -294 22 -301 q -33 -274 -21 -286 q -51 -246 -46 -261 q -56 -214 -56 -231 q -32 -146 -56 -171 q 25 -121 -8 -121 q 56 -98 50 -121 q 63 -39 63 -75 l 63 596 q 92 643 63 625 q 168 661 122 661 z "},"ĵ":{"ha":340,"x_min":-56,"x_max":374,"o":"m 168 661 q 246 643 214 661 q 278 596 278 625 l 278 -39 q 263 -145 278 -97 q 220 -228 249 -193 q 151 -282 192 -262 q 57 -301 110 -301 q 1 -294 22 -301 q -33 -274 -21 -286 q -51 -246 -46 -261 q -56 -214 -56 -231 q -32 -146 -56 -171 q 25 -121 -8 -121 q 56 -98 50 -121 q 63 -39 63 -75 l 63 596 q 92 643 63 625 q 168 661 122 661 m 26 794 q 11 790 18 790 q -20 810 -8 790 q -32 854 -32 831 q -24 888 -32 872 q 3 915 -17 904 l 147 993 q 171 1000 161 1000 q 194 993 181 1000 l 339 915 q 366 888 358 904 q 374 854 374 872 q 362 810 374 831 q 331 790 350 790 q 315 794 324 790 l 171 872 l 26 794 z "},"k":{"ha":707,"x_min":64,"x_max":693,"o":"m 492 393 l 682 126 q 693 93 693 108 q 681 55 693 74 q 651 21 669 36 q 610 -4 632 6 q 569 -14 589 -14 q 518 13 536 -14 l 350 261 l 279 196 l 279 67 q 247 21 279 42 q 169 0 215 0 q 94 21 124 0 q 64 67 64 42 l 64 974 q 94 1021 64 1003 q 169 1039 124 1039 q 247 1021 215 1039 q 279 974 279 1003 l 279 429 l 510 653 q 551 669 526 669 q 588 660 569 669 q 621 635 606 650 q 646 602 636 621 q 656 567 656 583 q 639 529 656 546 l 492 393 z "},"ķ":{"ha":707,"x_min":64,"x_max":693,"o":"m 492 393 l 682 126 q 693 93 693 108 q 681 55 693 74 q 651 21 669 36 q 610 -4 632 6 q 569 -14 589 -14 q 518 13 536 -14 l 350 261 l 279 196 l 279 67 q 247 21 279 42 q 169 0 215 0 q 94 21 124 0 q 64 67 64 42 l 64 974 q 94 1021 64 1003 q 169 1039 124 1039 q 247 1021 215 1039 q 279 974 279 1003 l 279 429 l 510 653 q 551 669 526 669 q 588 660 569 669 q 621 635 606 650 q 646 602 636 621 q 656 567 656 583 q 639 529 656 546 l 492 393 m 282 -285 q 261 -290 268 -290 q 215 -264 233 -290 q 197 -210 197 -237 q 225 -161 197 -175 l 419 -71 q 439 -67 429 -67 q 465 -74 453 -67 q 485 -94 476 -82 q 499 -119 494 -106 q 504 -147 504 -133 q 498 -175 504 -162 q 476 -194 492 -187 l 282 -285 z "},"ĸ":{"ha":706,"x_min":63,"x_max":692,"o":"m 490 393 l 681 126 q 692 93 692 108 q 680 55 692 74 q 649 21 668 36 q 609 -4 631 6 q 568 -14 588 -14 q 517 13 535 -14 l 349 261 l 278 196 l 278 67 q 246 21 278 42 q 168 0 214 0 q 92 21 122 0 q 63 67 63 42 l 63 596 q 92 643 63 625 q 168 661 122 661 q 246 643 214 661 q 278 596 278 625 l 278 429 l 508 653 q 550 669 525 669 q 586 660 568 669 q 619 635 604 650 q 644 602 635 621 q 654 567 654 583 q 638 529 654 546 l 490 393 z "},"l":{"ha":365,"x_min":75,"x_max":290,"o":"m 182 1039 q 258 1021 226 1039 q 290 974 290 1003 l 290 67 q 258 21 290 42 q 182 0 226 0 q 105 21 135 0 q 75 67 75 42 l 75 974 q 105 1021 75 1003 q 182 1039 135 1039 z "},"ĺ":{"ha":365,"x_min":71,"x_max":378,"o":"m 182 1039 q 258 1021 226 1039 q 290 974 290 1003 l 290 67 q 258 21 290 42 q 182 0 226 0 q 105 21 135 0 q 75 67 75 42 l 75 974 q 105 1021 75 1003 q 182 1039 135 1039 m 156 1101 q 135 1096 142 1096 q 89 1122 107 1096 q 71 1176 71 1149 q 99 1225 71 1211 l 293 1315 q 313 1319 303 1319 q 338 1312 326 1319 q 359 1292 350 1304 q 373 1267 368 1281 q 378 1239 378 1253 q 372 1211 378 1224 q 350 1192 365 1199 l 156 1101 z "},"ľ":{"ha":365,"x_min":75,"x_max":571,"o":"m 182 1039 q 258 1021 226 1039 q 290 974 290 1003 l 290 67 q 258 21 290 42 q 182 0 226 0 q 105 21 135 0 q 75 67 75 42 l 75 974 q 105 1021 75 1003 q 182 1039 135 1039 m 464 1029 q 540 998 508 1029 q 571 924 571 967 q 569 908 571 917 q 558 878 567 900 q 533 814 550 856 q 485 701 515 772 q 466 681 478 686 q 443 676 454 676 q 397 690 421 676 q 374 731 374 704 q 379 753 374 742 l 414 828 q 374 867 389 843 q 358 922 358 892 q 389 998 358 967 q 464 1029 419 1029 z "},"ļ":{"ha":365,"x_min":29,"x_max":336,"o":"m 182 1039 q 258 1021 226 1039 q 290 974 290 1003 l 290 67 q 258 21 290 42 q 182 0 226 0 q 105 21 135 0 q 75 67 75 42 l 75 974 q 105 1021 75 1003 q 182 1039 135 1039 m 114 -285 q 93 -290 100 -290 q 47 -264 65 -290 q 29 -210 29 -237 q 57 -161 29 -175 l 251 -71 q 271 -67 261 -67 q 297 -74 285 -67 q 317 -94 308 -82 q 331 -119 326 -106 q 336 -147 336 -133 q 330 -175 336 -162 q 308 -194 324 -187 l 114 -285 z "},"ŀ":{"ha":544,"x_min":75,"x_max":553,"o":"m 182 1039 q 258 1021 226 1039 q 290 974 290 1003 l 290 67 q 258 21 290 42 q 182 0 226 0 q 105 21 135 0 q 75 67 75 42 l 75 974 q 105 1021 75 1003 q 182 1039 135 1039 m 440 515 q 520 486 488 515 q 553 417 553 457 q 520 347 553 376 q 440 317 488 317 q 359 347 392 317 q 326 417 326 376 q 359 486 326 457 q 440 515 392 515 z "},"<":{"ha":593,"x_min":26,"x_max":543,"o":"m 26 385 q 36 425 26 403 q 69 463 46 447 l 422 692 q 449 699 431 699 q 481 691 464 699 q 511 669 497 683 q 534 637 525 656 q 543 597 543 618 q 518 543 543 558 l 274 385 l 518 226 q 543 172 543 211 q 534 133 543 151 q 511 100 525 114 q 481 78 497 86 q 449 71 464 71 q 422 78 431 71 l 69 307 q 36 344 46 322 q 26 385 26 367 z "},"≤":{"ha":614,"x_min":40,"x_max":557,"o":"m 521 407 q 548 384 540 399 q 556 353 556 369 q 548 317 556 335 q 527 283 540 299 q 497 258 514 268 q 463 249 481 249 q 436 256 450 249 l 83 429 q 49 465 57 442 q 40 507 40 489 q 49 549 40 525 q 83 585 57 572 l 436 758 q 463 765 450 765 q 497 756 481 765 q 527 731 514 746 q 548 697 540 715 q 556 661 556 679 q 548 630 556 644 q 521 607 540 615 l 288 507 l 521 407 m 40 117 q 58 180 40 154 q 106 206 76 206 l 490 206 q 536 180 515 206 q 557 117 557 154 q 536 53 557 76 q 490 29 515 29 l 106 29 q 58 53 76 29 q 40 117 40 76 z "},"¬":{"ha":700,"x_min":36,"x_max":642,"o":"m 36 333 q 54 397 36 371 q 101 422 72 422 l 575 422 q 621 397 600 422 q 642 333 642 371 l 642 154 q 610 108 642 129 q 533 88 578 88 q 456 108 486 88 q 426 154 426 129 l 426 246 l 101 246 q 54 269 72 246 q 36 333 36 293 z "},"◊":{"ha":742,"x_min":28,"x_max":714,"o":"m 651 665 q 696 581 678 619 q 714 508 714 543 q 696 435 714 474 q 651 351 678 397 l 467 29 q 428 -1 456 10 q 371 -12 401 -12 q 313 -1 340 -12 q 275 29 286 10 l 90 351 q 46 435 64 397 q 28 508 28 474 q 46 581 28 543 q 90 665 64 619 l 275 988 q 313 1018 286 1007 q 371 1029 340 1029 q 428 1018 401 1029 q 467 988 456 1007 l 651 665 m 222 508 l 371 238 l 519 508 l 371 793 l 222 508 z "},"ł":{"ha":467,"x_min":18,"x_max":450,"o":"m 232 1039 q 308 1021 276 1039 q 340 974 340 1003 l 340 626 l 358 635 q 375 639 367 639 q 403 630 390 639 q 427 606 417 621 q 444 575 438 592 q 450 543 450 558 q 424 496 450 508 l 340 457 l 340 67 q 308 21 340 42 q 232 0 276 0 q 155 21 185 0 q 125 67 125 42 l 125 356 l 108 349 q 90 344 100 344 q 63 353 75 344 q 40 376 50 363 q 24 406 29 389 q 18 440 18 424 q 24 468 18 456 q 43 488 29 481 l 125 525 l 125 974 q 155 1021 125 1003 q 232 1039 185 1039 z "},"m":{"ha":1129,"x_min":63,"x_max":1072,"o":"m 460 376 q 431 456 460 429 q 365 482 401 482 q 305 456 332 482 q 278 378 278 431 l 278 67 q 246 21 278 42 q 169 0 214 0 q 92 21 122 0 q 63 67 63 42 l 63 596 q 92 643 63 625 q 169 661 122 661 q 236 643 208 661 q 264 596 264 625 l 264 564 q 333 637 288 604 q 447 669 378 669 q 547 631 504 669 q 611 531 590 593 q 703 635 647 601 q 819 669 760 669 q 914 650 868 669 q 995 593 960 631 q 1051 501 1031 556 q 1072 378 1072 447 l 1072 67 q 1040 21 1072 42 q 964 0 1008 0 q 889 21 921 0 q 857 67 857 42 l 857 378 q 828 457 857 431 q 764 483 800 483 q 703 457 731 483 q 675 378 675 431 l 675 65 q 641 15 675 31 q 567 0 607 0 q 528 3 547 0 q 494 15 510 7 q 469 36 479 24 q 460 65 460 49 l 460 376 z "},"¯":{"ha":410,"x_min":0,"x_max":410,"o":"m 0 901 q 18 951 0 931 q 65 971 36 971 l 343 971 q 389 951 368 971 q 410 901 410 931 q 389 852 410 871 q 343 833 368 833 l 65 833 q 18 852 36 833 q 0 901 0 871 z "},"−":{"ha":681,"x_min":53,"x_max":629,"o":"m 53 394 q 71 458 53 432 q 118 483 89 483 l 563 483 q 608 458 588 483 q 629 394 629 432 q 608 331 629 354 q 563 307 588 307 l 118 307 q 71 331 89 307 q 53 394 53 354 z "},"µ":{"ha":735,"x_min":71,"x_max":703,"o":"m 388 -14 q 320 -3 353 -14 q 258 26 288 7 l 258 -235 q 234 -281 258 -260 q 176 -301 210 -301 q 101 -281 131 -301 q 71 -235 71 -260 l 71 594 q 103 640 71 619 q 179 661 135 661 q 254 640 222 661 q 286 594 286 619 l 286 278 q 294 240 286 258 q 316 206 303 221 q 348 183 329 192 q 388 174 367 174 q 426 183 408 174 q 458 206 444 192 q 480 240 472 221 q 488 278 488 258 l 488 596 q 519 642 488 622 q 596 661 551 661 q 673 642 643 661 q 703 596 703 622 l 703 278 q 678 167 703 219 q 610 74 653 114 q 509 10 567 33 q 388 -14 451 -14 z "},"×":{"ha":569,"x_min":47,"x_max":521,"o":"m 521 244 q 512 209 521 226 q 488 177 503 192 q 456 153 474 163 q 419 144 438 144 q 379 161 396 144 l 283 257 l 189 161 q 147 144 172 144 q 113 153 131 144 q 80 177 94 163 q 56 210 65 192 q 47 246 47 228 q 64 286 47 269 l 174 382 l 65 475 q 50 515 50 490 q 58 551 50 533 q 81 584 67 569 q 113 607 94 599 q 149 615 131 615 q 190 600 172 615 l 283 506 l 378 600 q 418 615 393 615 q 454 607 436 615 q 487 585 472 599 q 510 553 501 571 q 518 517 518 535 q 503 475 518 490 l 394 382 l 504 286 q 521 244 521 269 z "},"n":{"ha":742,"x_min":63,"x_max":686,"o":"m 278 67 q 246 21 278 42 q 169 0 214 0 q 92 21 122 0 q 63 67 63 42 l 63 596 q 92 643 63 625 q 169 661 122 661 q 236 643 208 661 q 264 596 264 625 l 264 564 q 332 637 283 604 q 450 669 381 669 q 540 647 497 669 q 615 584 583 624 q 667 491 647 544 q 686 378 686 438 l 686 67 q 652 17 686 33 q 578 0 618 0 q 540 4 558 0 q 506 17 521 8 q 481 38 490 25 q 471 67 471 50 l 471 378 q 463 416 471 397 q 442 449 456 435 q 410 473 428 464 q 371 482 392 482 q 307 454 336 482 q 278 378 278 426 l 278 67 z "},"ń":{"ha":742,"x_min":63,"x_max":686,"o":"m 278 67 q 246 21 278 42 q 169 0 214 0 q 92 21 122 0 q 63 67 63 42 l 63 596 q 92 643 63 625 q 169 661 122 661 q 236 643 208 661 q 264 596 264 625 l 264 564 q 332 637 283 604 q 450 669 381 669 q 540 647 497 669 q 615 584 583 624 q 667 491 647 544 q 686 378 686 438 l 686 67 q 652 17 686 33 q 578 0 618 0 q 540 4 558 0 q 506 17 521 8 q 481 38 490 25 q 471 67 471 50 l 471 378 q 463 416 471 397 q 442 449 456 435 q 410 473 428 464 q 371 482 392 482 q 307 454 336 482 q 278 378 278 426 l 278 67 m 315 782 q 294 776 301 776 q 249 803 267 776 q 231 857 231 829 q 258 906 231 892 l 453 996 q 472 1000 463 1000 q 498 992 486 1000 q 519 973 510 985 q 533 947 528 961 q 538 919 538 933 q 531 892 538 904 q 510 872 525 879 l 315 782 z "},"ň":{"ha":742,"x_min":63,"x_max":686,"o":"m 367 935 l 511 1013 q 526 1017 519 1017 q 558 997 546 1017 q 569 953 569 976 q 562 919 569 935 q 535 892 554 903 l 390 814 q 367 807 376 807 q 343 814 357 807 l 199 892 q 172 919 179 903 q 164 953 164 935 q 176 997 164 976 q 207 1017 188 1017 q 222 1013 214 1017 l 367 935 m 278 67 q 246 21 278 42 q 169 0 214 0 q 92 21 122 0 q 63 67 63 42 l 63 596 q 92 643 63 625 q 169 661 122 661 q 236 643 208 661 q 264 596 264 625 l 264 564 q 332 637 283 604 q 450 669 381 669 q 540 647 497 669 q 615 584 583 624 q 667 491 647 544 q 686 378 686 438 l 686 67 q 652 17 686 33 q 578 0 618 0 q 540 4 558 0 q 506 17 521 8 q 481 38 490 25 q 471 67 471 50 l 471 378 q 463 416 471 397 q 442 449 456 435 q 410 473 428 464 q 371 482 392 482 q 307 454 336 482 q 278 378 278 426 l 278 67 z "}}}
